<?xml version="1.0" encoding="UTF-8"?>
<svg version="1.1" xmlns="http://www.w3.org/2000/svg" width="800" height="100">
<path d="M0 0 C264 0 528 0 800 0 C800 33 800 66 800 100 C536 100 272 100 0 100 C0 67 0 34 0 0 Z " fill="#006000" transform="translate(0,0)"/>
<path d="M0 0 C1.30388672 0.00902344 2.60777344 0.01804687 3.95117188 0.02734375 C7.15513832 0.05081603 10.35872264 0.08365273 13.5625 0.125 C13.5625 0.455 13.5625 0.785 13.5625 1.125 C12.325 1.2075 11.0875 1.29 9.8125 1.375 C6.67185789 1.75854744 5.68967461 2.02391249 3.125 4.0625 C-0.22575978 8.48550291 0.20589399 12.74194732 0.5625 18.125 C1.38221716 20.97402067 1.38221716 20.97402067 2.5625 23.125 C3.5625 26.125 3.5625 26.125 2.5625 29.125 C3.5525 29.125 4.5425 29.125 5.5625 29.125 C5.5625 28.135 5.5625 27.145 5.5625 26.125 C6.15417969 26.11082031 6.74585938 26.09664062 7.35546875 26.08203125 C11.37410535 25.8394708 14.08879055 25.39569112 17.625 23.375 C21.37864865 17.07855711 20.14428086 9.07446345 18.5625 2.125 C20.8725 2.125 23.1825 2.125 25.5625 2.125 C25.830625 3.259375 26.09875 4.39375 26.375 5.5625 C26.9628125 7.3259375 26.9628125 7.3259375 27.5625 9.125 C28.5525 9.455 29.5425 9.785 30.5625 10.125 C30.58955729 11.89574917 30.60892195 13.66661711 30.625 15.4375 C30.63660156 16.42363281 30.64820313 17.40976562 30.66015625 18.42578125 C30.5625 21.125 30.5625 21.125 29.5625 24.125 C30.2225 24.455 30.8825 24.785 31.5625 25.125 C31.58975341 26.8540774 31.60900987 28.58328176 31.625 30.3125 C31.63660156 31.27542969 31.64820313 32.23835938 31.66015625 33.23046875 C31.56725124 35.98417314 31.10189676 38.43251117 30.5625 41.125 C30.706875 42.1975 30.85125 43.27 31 44.375 C30.33191899 50.10140863 26.66980415 53.28161901 22.5625 57.125 C19.44505882 58.68372059 16.12630318 58.30894015 12.703125 58.328125 C11.53012848 58.33667511 11.53012848 58.33667511 10.33343506 58.34539795 C8.67575433 58.35485248 7.01805478 58.36138373 5.36035156 58.36523438 C2.83624941 58.37490897 0.31297239 58.40591411 -2.2109375 58.4375 C-3.82291184 58.44403335 -5.434892 58.44928252 -7.046875 58.453125 C-7.79708923 58.4654718 -8.54730347 58.4778186 -9.32025146 58.49053955 C-14.10857521 58.47040862 -17.38517202 57.68928008 -21.4375 55.125 C-23.1875 52.625 -23.1875 52.625 -24.4375 50.125 C-25.0975 49.135 -25.7575 48.145 -26.4375 47.125 C-26.64561559 44.36547972 -26.74152718 41.70942787 -26.73828125 38.94921875 C-26.74256638 38.14643997 -26.7468515 37.34366119 -26.75126648 36.51655579 C-26.75700824 34.81776878 -26.75751117 33.11895719 -26.75317383 31.42016602 C-26.75002424 28.83241264 -26.77343764 26.24581429 -26.79882812 23.65820312 C-26.80110231 22.00520977 -26.80180406 20.35221335 -26.80078125 18.69921875 C-26.809991 17.93026779 -26.81920074 17.16131683 -26.82868958 16.36906433 C-26.77964209 10.61583842 -25.64630084 6.33380084 -21.4375 2.125 C-14.54369545 -0.70373472 -7.3375884 -0.09630353 0 0 Z " fill="#000400" transform="translate(632.4375,5.875)"/>
<path d="M0 0 C6.31317741 -0.49515117 6.31317741 -0.49515117 9.6875 1.9375 C10.450625 2.618125 11.21375 3.29875 12 4 C14.18214568 4.77833534 14.18214568 4.77833534 16 5 C16 5.66 16 6.32 16 7 C16.99 7.33 17.98 7.66 19 8 C22.30171338 12.95257007 22.11722879 17.45651993 22.0625 23.3125 C22.05347656 24.56675781 22.04445312 25.82101563 22.03515625 27.11328125 C22.02355469 28.06589844 22.01195312 29.01851562 22 30 C23.98 30 25.96 30 28 30 C26.87548273 32.9719385 25.77706209 35.33440687 24 38 C24 39.32 24 40.64 24 42 C21.8046875 44.5078125 21.8046875 44.5078125 18.875 47.125 C17.92367187 47.99382812 16.97234375 48.86265625 15.9921875 49.7578125 C12.98432064 52.01174928 10.58931735 52.99903544 7 54 C6.2575 54.4125 5.515 54.825 4.75 55.25 C0.35829835 56.44773681 -3.6604124 55.09542988 -8 54 C-8 52.68 -8 51.36 -8 50 C-9.19625 49.896875 -10.3925 49.79375 -11.625 49.6875 C-15.62579463 49.15642107 -18.63178306 48.3499188 -22 46 C-24.18669271 41.99106337 -25 39.58309578 -25 35 C-25.66 35 -26.32 35 -27 35 C-28.6867443 31.31861363 -29.27227584 28.41806576 -29.25 24.375 C-29.25515625 23.43398438 -29.2603125 22.49296875 -29.265625 21.5234375 C-29 19 -29 19 -27 16 C-26.5359375 15.071875 -26.5359375 15.071875 -26.0625 14.125 C-24.83066217 11.66132434 -23.48291418 9.32108306 -22 7 C-21.67 7 -21.34 7 -21 7 C-21 11.95 -21 16.9 -21 22 C-19.35 22 -17.7 22 -16 22 C-16 18.37 -16 14.74 -16 11 C-13.89625 10.814375 -13.89625 10.814375 -11.75 10.625 C-8.40329395 10.32970241 -5.81918688 9.89566015 -3 8 C-1.88526866 6.06896092 -1.88526866 6.06896092 -1.25 3.875 C-1.00765625 3.15054688 -0.7653125 2.42609375 -0.515625 1.6796875 C-0.34546875 1.12539063 -0.1753125 0.57109375 0 0 Z " fill="#010501" transform="translate(178,39)"/>
<path d="M0 0 C7.43337328 -0.48390857 11.79142676 -0.13904882 18 4 C19.99620166 4.67795528 21.99538701 5.34733531 24 6 C26.76223278 8.76223278 26.57856291 11.20706617 27 15 C27.66 15 28.32 15 29 15 C29 17.64 29 20.28 29 23 C29.99 23 30.98 23 32 23 C32.33 22.34 32.66 21.68 33 21 C34.25 23.625 34.25 23.625 35 27 C33.25 30 33.25 30 31 33 C30.30899447 34.99172182 29.64097297 36.99161804 29 39 C26.51558278 44.09305529 22.99278528 47.72265602 17.78515625 49.9453125 C13.91864357 51.27060636 10.04096313 52.34823175 6 53 C5.34 51.68 4.68 50.36 4 49 C3.29875 49.061875 2.5975 49.12375 1.875 49.1875 C-1.65260212 48.95743899 -3.93984351 47.70799432 -7 46 C-5.515 45.505 -5.515 45.505 -4 45 C-4 44.34 -4 43.68 -4 43 C-6.64 43 -9.28 43 -12 43 C-12.495 41.515 -12.495 41.515 -13 40 C-13.99 40.495 -13.99 40.495 -15 41 C-15.33 37.04 -15.66 33.08 -16 29 C-16.66 29 -17.32 29 -18 29 C-19.76053005 23.89446285 -19.76053005 23.89446285 -20 21 C-18.125 17.625 -18.125 17.625 -16 15 C-16 14.34 -16 13.68 -16 13 C-15.31292969 12.89042969 -14.62585938 12.78085937 -13.91796875 12.66796875 C-13.01691406 12.50941406 -12.11585938 12.35085937 -11.1875 12.1875 C-10.29417969 12.03667969 -9.40085937 11.88585938 -8.48046875 11.73046875 C-5.73000125 10.92048856 -4.71784185 10.26252341 -3 8 C-2.01371583 5.96922316 -2.01371583 5.96922316 -1.3125 3.8125 C-1.06113281 3.09707031 -0.80976563 2.38164062 -0.55078125 1.64453125 C-0.36902344 1.10183594 -0.18726563 0.55914063 0 0 Z " fill="#000800" transform="translate(497,26)"/>
<path d="M0 0 C-0.33 2.97 -0.66 5.94 -1 9 C-0.01 8.67 0.98 8.34 2 8 C2.04125 8.61746094 2.0825 9.23492187 2.125 9.87109375 C2.83326247 12.29920182 2.83326247 12.29920182 5.6875 13.16015625 C6.780625 13.45792969 7.87375 13.75570313 9 14.0625 C12.3125 14.97265625 12.3125 14.97265625 15 16 C15.495 17.485 15.495 17.485 16 19 C14.02 19 12.04 19 10 19 C10 19.66 10 20.32 10 21 C13.96 21 17.92 21 22 21 C20.81118062 27.47246105 18.05056408 30.84585639 13 35 C12.113125 35.495 11.22625 35.99 10.3125 36.5 C6.20749539 39.1627057 4.52542668 43.42371995 3 48 C-0.45703024 50.48776943 -3.72528401 52.10622633 -8 51.75 C-8.66 51.5025 -9.32 51.255 -10 51 C-10 50.34 -10 49.68 -10 49 C-11.98 49 -13.96 49 -16 49 C-18.20399168 44.44508386 -18.58846263 39.97093824 -19 35 C-22.09720845 34.12159004 -23.90645403 34.00564594 -27 35 C-26.67 33.68 -26.34 32.36 -26 31 C-27.65 31 -29.3 31 -31 31 C-31 29.68 -31 28.36 -31 27 C-30.01 26.67 -29.02 26.34 -28 26 C-26.77030122 22.48809191 -26.77030122 22.48809191 -26 19 C-21.71 19 -17.42 19 -13 19 C-11 24 -11 24 -11 27 C-9.35 27 -7.7 27 -6 27 C-6.433125 25.865625 -6.86625 24.73125 -7.3125 23.5625 C-7.87567858 22.04191782 -8.4381405 20.52107008 -9 19 C-9.28617187 18.25621094 -9.57234375 17.51242188 -9.8671875 16.74609375 C-11.73831231 11.62277582 -12.57486786 7.46124469 -12 2 C-7.7975546 -0.80163026 -4.99895065 -0.14489712 0 0 Z " fill="#010A01" transform="translate(412,12)"/>
<path d="M0 0 C4.73745587 1.63401083 9.38014 3.49707629 14.01220703 5.40673828 C14.01220703 5.73673828 14.01220703 6.06673828 14.01220703 6.40673828 C13.20783203 6.53048828 12.40345703 6.65423828 11.57470703 6.78173828 C10.72908203 6.98798828 9.88345703 7.19423828 9.01220703 7.40673828 C8.68220703 8.06673828 8.35220703 8.72673828 8.01220703 9.40673828 C9.43533203 9.37580078 9.43533203 9.37580078 10.88720703 9.34423828 C14.01220703 9.40673828 14.01220703 9.40673828 16.01220703 10.40673828 C16.13720703 16.15673828 16.13720703 16.15673828 15.01220703 18.40673828 C14.43212891 18.36033203 13.85205078 18.31392578 13.25439453 18.26611328 C7.60548093 18.00510737 4.48978536 18.6007967 0.01220703 22.40673828 C-1.21964063 24.8704336 -1.15511639 26.59618838 -1.17529297 29.34423828 C-1.1965625 30.65714844 -1.1965625 30.65714844 -1.21826172 31.99658203 C-1.15442646 34.66918164 -1.15442646 34.66918164 1.01220703 37.40673828 C0.78946259 39.78267899 0.14214073 41.19740065 -1.11279297 43.21923828 C-4.12971652 45.12995653 -6.63039339 44.13926183 -9.98779297 43.40673828 C-10.64779297 43.07673828 -11.30779297 42.74673828 -11.98779297 42.40673828 C-11.98779297 40.40673828 -11.98779297 40.40673828 -9.55029297 37.84423828 C-8.70466797 37.03986328 -7.85904297 36.23548828 -6.98779297 35.40673828 C-5.42745674 33.84640205 -5.78071738 32.31726692 -5.73779297 30.15673828 C-5.78941961 26.09759363 -6.286565 23.59032839 -8.98779297 20.40673828 C-11.5997083 18.27851097 -13.74544907 18.29111907 -16.98779297 18.53173828 C-19.70741036 18.98163781 -21.01125461 19.42217357 -23.36279297 20.96923828 C-25.61470291 24.34710319 -26.19267636 27.43115525 -26.98779297 31.40673828 C-27.64779297 31.40673828 -28.30779297 31.40673828 -28.98779297 31.40673828 C-30.41133044 24.6449353 -30.97636128 18.23121918 -28.67529297 11.65673828 C-25.58684668 6.92860777 -20.02162599 4.58806592 -14.98779297 2.40673828 C-14.32779297 2.40673828 -13.66779297 2.40673828 -12.98779297 2.40673828 C-12.98779297 1.74673828 -12.98779297 1.08673828 -12.98779297 0.40673828 C-8.84981322 -1.66225159 -4.33452829 -1.29365067 0 0 Z " fill="#020802" transform="translate(698.98779296875,42.59326171875)"/>
<path d="M0 0 C0.66 0.33 1.32 0.66 2 1 C2 1.66 2 2.32 2 3 C2.66 3 3.32 3 4 3 C5.32286246 7.96073422 5.08893197 12.91111512 5 18 C4.67 18 4.34 18 4 18 C3.505 13.05 3.505 13.05 3 8 C-1.65399327 11.10266218 -3.56761109 16.09721611 -6 21 C-13 35 -13 35 -14.625 37.9375 C-16.14506779 41.32310552 -16.63225718 44.32257181 -17 48 C-15.69905396 47.50777954 -15.69905396 47.50777954 -14.37182617 47.00561523 C-11.00803007 46.00239489 -8.53717019 45.80674521 -5.05078125 45.91015625 C-3.40819336 45.94012695 -3.40819336 45.94012695 -1.73242188 45.97070312 C0.55934394 46.03221826 2.85101512 46.09735941 5.14257812 46.16601562 C6.23376953 46.18470703 7.32496094 46.20339844 8.44921875 46.22265625 C9.44268311 46.25109619 10.43614746 46.27953613 11.4597168 46.30883789 C14.01990347 46.19508002 14.01990347 46.19508002 15.85864258 44.73217773 C17.5611466 42.14837751 16.94053227 39.85979185 16.46875 36.921875 C16.05899945 34.88673476 16.05899945 34.88673476 14.8125 32.8125 C14 31 14 31 14.875 28.25 C15.24625 27.5075 15.6175 26.765 16 26 C18.29633824 29.44450737 18.54016485 31.93812283 19 36 C19.66 36 20.32 36 21 36 C21.67354499 37.43429001 22.33859701 38.87257057 23 40.3125 C23.37125 41.11300781 23.7425 41.91351563 24.125 42.73828125 C25 45 25 45 25 48 C17.97387047 54.5577209 11.86410661 54.31113918 2.7487793 54.61254883 C0.57349118 54.68712319 -1.60074946 54.77782293 -3.77539062 54.86914062 C-5.16142387 54.91766145 -6.54749122 54.96521939 -7.93359375 55.01171875 C-9.19228271 55.05772217 -10.45097168 55.10372559 -11.74780273 55.15112305 C-14.83601896 55.00761987 -16.43497784 54.64478078 -19 53 C-19 52.34 -19 51.68 -19 51 C-19.99 51 -20.98 51 -22 51 C-22.36504603 49.41913952 -22.71660506 47.83516093 -23.0625 46.25 C-23.25972656 45.36828125 -23.45695312 44.4865625 -23.66015625 43.578125 C-24.50085847 37.20038406 -20.42728884 31.3212773 -17.75 25.75 C-17.27175781 24.73808594 -16.79351562 23.72617187 -16.30078125 22.68359375 C-8.71627657 6.83629535 -8.71627657 6.83629535 -3.1875 2.5 C-2.58292969 2.0153125 -1.97835937 1.530625 -1.35546875 1.03125 C-0.68451172 0.52078125 -0.68451172 0.52078125 0 0 Z " fill="#003D00" transform="translate(98,10)"/>
<path d="M0 0 C1.30388672 0.00902344 2.60777344 0.01804687 3.95117188 0.02734375 C7.15513832 0.05081603 10.35872264 0.08365273 13.5625 0.125 C13.5625 0.455 13.5625 0.785 13.5625 1.125 C11.64192708 1.25520833 9.72135417 1.38541667 7.80078125 1.515625 C5.36504871 1.98989026 5.36504871 1.98989026 3.3984375 4.16796875 C-0.72742765 7.01515668 -4.25205546 6.45556703 -9.125 6.1875 C-10.83661425 6.10223743 -12.54894087 6.029971 -14.26171875 5.97265625 C-15.39226685 5.9109021 -15.39226685 5.9109021 -16.5456543 5.84790039 C-17.16996338 5.93934326 -17.79427246 6.03078613 -18.4375 6.125 C-21.03290566 10.01810849 -20.7252783 13.2939213 -20.703125 17.80859375 C-20.70503845 18.66050797 -20.7069519 19.51242218 -20.70892334 20.39015198 C-20.71028401 22.19150081 -20.70659581 23.99285948 -20.69824219 25.79418945 C-20.68755407 28.54856473 -20.69813456 31.30228583 -20.7109375 34.05664062 C-20.70961563 35.8072931 -20.70705265 37.55794518 -20.703125 39.30859375 C-20.70717346 40.13161484 -20.71122192 40.95463593 -20.71539307 41.80259705 C-20.67854408 47.26435524 -20.67854408 47.26435524 -18.4375 52.125 C-12.63509432 52.14967332 -6.83271902 52.16784724 -1.03027344 52.17993164 C0.94466687 52.1849681 2.91960343 52.19179751 4.89453125 52.20043945 C7.72917605 52.21253508 10.56377166 52.2182351 13.3984375 52.22265625 C14.28493988 52.22781754 15.17144226 52.23297882 16.08480835 52.23829651 C20.46021239 52.37902092 20.46021239 52.37902092 24.5625 51.125 C25.47285504 48.39393489 25.68465713 46.82606761 25.67602539 44.02075195 C25.67594986 43.20012772 25.67587433 42.37950348 25.67579651 41.53401184 C25.67063522 40.65267075 25.66547394 39.77132965 25.66015625 38.86328125 C25.6587413 37.95748825 25.65732635 37.05169525 25.65586853 36.11845398 C25.65027001 33.22476909 25.63771781 30.33116151 25.625 27.4375 C25.61998481 25.47591258 25.61542193 23.51432394 25.61132812 21.55273438 C25.60030107 16.74345979 25.58303747 11.934243 25.5625 7.125 C23.5825 7.125 21.6025 7.125 19.5625 7.125 C19.0675 4.65 19.0675 4.65 18.5625 2.125 C20.8725 2.125 23.1825 2.125 25.5625 2.125 C25.830625 3.259375 26.09875 4.39375 26.375 5.5625 C26.9628125 7.3259375 26.9628125 7.3259375 27.5625 9.125 C28.5525 9.455 29.5425 9.785 30.5625 10.125 C30.58955729 11.89574917 30.60892195 13.66661711 30.625 15.4375 C30.63660156 16.42363281 30.64820313 17.40976562 30.66015625 18.42578125 C30.5625 21.125 30.5625 21.125 29.5625 24.125 C30.2225 24.455 30.8825 24.785 31.5625 25.125 C31.58975341 26.8540774 31.60900987 28.58328176 31.625 30.3125 C31.63660156 31.27542969 31.64820313 32.23835938 31.66015625 33.23046875 C31.56725124 35.98417314 31.10189676 38.43251117 30.5625 41.125 C30.706875 42.1975 30.85125 43.27 31 44.375 C30.33191899 50.10140863 26.66980415 53.28161901 22.5625 57.125 C19.44505882 58.68372059 16.12630318 58.30894015 12.703125 58.328125 C11.53012848 58.33667511 11.53012848 58.33667511 10.33343506 58.34539795 C8.67575433 58.35485248 7.01805478 58.36138373 5.36035156 58.36523438 C2.83624941 58.37490897 0.31297239 58.40591411 -2.2109375 58.4375 C-3.82291184 58.44403335 -5.434892 58.44928252 -7.046875 58.453125 C-7.79708923 58.4654718 -8.54730347 58.4778186 -9.32025146 58.49053955 C-14.10857521 58.47040862 -17.38517202 57.68928008 -21.4375 55.125 C-23.1875 52.625 -23.1875 52.625 -24.4375 50.125 C-25.0975 49.135 -25.7575 48.145 -26.4375 47.125 C-26.64561559 44.36547972 -26.74152718 41.70942787 -26.73828125 38.94921875 C-26.74256638 38.14643997 -26.7468515 37.34366119 -26.75126648 36.51655579 C-26.75700824 34.81776878 -26.75751117 33.11895719 -26.75317383 31.42016602 C-26.75002424 28.83241264 -26.77343764 26.24581429 -26.79882812 23.65820312 C-26.80110231 22.00520977 -26.80180406 20.35221335 -26.80078125 18.69921875 C-26.809991 17.93026779 -26.81920074 17.16131683 -26.82868958 16.36906433 C-26.77964209 10.61583842 -25.64630084 6.33380084 -21.4375 2.125 C-14.54369545 -0.70373472 -7.3375884 -0.09630353 0 0 Z " fill="#003D00" transform="translate(632.4375,5.875)"/>
<path d="M0 0 C4.85337343 1.80792994 7.72851071 4.34344695 10 9 C10.83289393 14.50760488 10.87892265 20.16864766 8.25 25.1875 C6 28 6 28 3.75 28.9375 C3.1725 28.958125 2.595 28.97875 2 29 C2.66 30.32 3.32 31.64 4 33 C6.31 33 8.62 33 11 33 C10.67 34.65 10.34 36.3 10 38 C2.67368421 38.48842105 2.67368421 38.48842105 -0.5 36.1875 C-2 34 -2 34 -2 31 C-3.299375 31.12375 -3.299375 31.12375 -4.625 31.25 C-10.00481462 30.85149521 -12.79346701 28.3017856 -16.375 24.4375 C-18.67768515 19.56643525 -18.77379561 15.29813119 -18 10 C-14.46621787 2.52469165 -8.36193836 -1.59813108 0 0 Z " fill="#E7EEE7" transform="translate(246,31)"/>
<path d="M0 0 C7.68755442 -0.37963232 11.64367038 -0.23755308 18 4 C19.99620166 4.67795528 21.99538701 5.34733531 24 6 C26.76223278 8.76223278 26.57856291 11.20706617 27 15 C27.66 15 28.32 15 29 15 C29 17.64 29 20.28 29 23 C29.99 23 30.98 23 32 23 C32.33 22.34 32.66 21.68 33 21 C34.25 23.625 34.25 23.625 35 27 C33.25 30 33.25 30 31 33 C30.30899447 34.99172182 29.64097297 36.99161804 29 39 C26.51558278 44.09305529 22.99278528 47.72265602 17.78515625 49.9453125 C13.91864357 51.27060636 10.04096313 52.34823175 6 53 C5.34 51.68 4.68 50.36 4 49 C3.29875 49.061875 2.5975 49.12375 1.875 49.1875 C-1.65260212 48.95743899 -3.93984351 47.70799432 -7 46 C-5.515 45.505 -5.515 45.505 -4 45 C-4 44.34 -4 43.68 -4 43 C-2.02 43 -0.04 43 2 43 C2 43.66 2 44.32 2 45 C5.92763498 46.09100972 7.48152725 45.92457814 11 44 C11.99 43.55720703 11.99 43.55720703 13 43.10546875 C18.87727758 40.40789017 22.06186519 37.31950915 24.875 31.4375 C26.54975531 26.72669094 25.57725716 22.61483162 24.54296875 17.83203125 C24.02674398 15.13949196 23.90509336 12.73231235 24 10 C21.36 9.67 18.72 9.34 16 9 C16 8.01 16 7.02 16 6 C7.95623412 5.28409487 7.95623412 5.28409487 0.8125 8.5 C-0.5796875 9.7375 -0.5796875 9.7375 -2 11 C-2.66 10.67 -3.32 10.34 -4 10 C-2.68 6.7 -1.36 3.4 0 0 Z M-4 12 C-4.5775 12.70125 -5.155 13.4025 -5.75 14.125 C-8.44806128 17.57252274 -11.03772378 21.07544756 -13 25 C-12.67 25.99 -12.34 26.98 -12 28 C-11.96045766 30.33299825 -11.95598268 32.66708189 -12 35 C-11.34 35 -10.68 35 -10 35 C-10.33 37.64 -10.66 40.28 -11 43 C-11.66 42.01 -12.32 41.02 -13 40 C-13.66 40.33 -14.32 40.66 -15 41 C-15.33 37.04 -15.66 33.08 -16 29 C-16.66 29 -17.32 29 -18 29 C-19.76053005 23.89446285 -19.76053005 23.89446285 -20 21 C-18.125 17.625 -18.125 17.625 -16 15 C-16 14.34 -16 13.68 -16 13 C-14.37681021 12.63762737 -12.7513642 12.28534843 -11.125 11.9375 C-10.22007812 11.74027344 -9.31515625 11.54304688 -8.3828125 11.33984375 C-6 11 -6 11 -4 12 Z " fill="#003100" transform="translate(497,26)"/>
<path d="M0 0 C0.07347656 1.39412109 0.07347656 1.39412109 0.1484375 2.81640625 C0.53436623 9.19753821 1.06017658 14.92188662 3 21 C3.0396713 22.66619446 3.04384447 24.33391013 3 26 C3.185625 26.804375 3.37125 27.60875 3.5625 28.4375 C4.08763609 31.51329712 3.63523761 33.96497585 3 37 C4.7325 36.4740625 4.7325 36.4740625 6.5 35.9375 C10.11562365 35.03517159 12.96269663 35.08923376 16.66796875 35.703125 C21.75102697 36.35021449 26.88797848 36.12780054 32 36 C32.804375 35.99484375 33.60875 35.9896875 34.4375 35.984375 C38.2908592 35.78003019 39.94164381 35.05074451 42.875 32.5 C45.25042678 29.22382414 45.98006636 25.79900385 46.640625 21.85546875 C47 20 47 20 48 19 C48.39993686 16.31137336 48.75134543 13.63647783 49.0625 10.9375 C49.15337891 10.17888672 49.24425781 9.42027344 49.33789062 8.63867188 C49.5624374 6.7595699 49.78170978 4.87983905 50 3 C50.99 3.33 51.98 3.66 53 4 C55.44230769 30.25480769 55.44230769 30.25480769 52 38 C47.77472251 42.22527749 42.83857113 43.22706455 36.99604797 43.25224304 C35.8629847 43.24146477 35.8629847 43.24146477 34.70703125 43.23046875 C33.91979172 43.23001053 33.13255219 43.22955231 32.32145691 43.2290802 C30.6648914 43.2260697 29.00832841 43.21821955 27.35180664 43.20581055 C24.81060828 43.18748636 22.26977335 43.18530151 19.72851562 43.18554688 C18.11718434 43.1806337 16.50585552 43.17480626 14.89453125 43.16796875 C14.13308304 43.16685593 13.37163483 43.1657431 12.58711243 43.16459656 C7.23220062 43.11610031 7.23220062 43.11610031 5 42 C5 41.01 5 40.02 5 39 C3.10820797 38.3185177 3.10820797 38.3185177 1 38 C0.34 38.66 -0.32 39.32 -1 40 C-1 37.69 -1 35.38 -1 33 C-1.66 32.67 -2.32 32.34 -3 32 C-5.22888246 27.54223509 -4.22992729 21.4577323 -4.25 16.5625 C-4.270625 15.30888672 -4.29125 14.05527344 -4.3125 12.76367188 C-4.31765625 11.56419922 -4.3228125 10.36472656 -4.328125 9.12890625 C-4.3374707 8.02619385 -4.34681641 6.92348145 -4.35644531 5.78735352 C-4 3 -4 3 -2.54199219 1.11694336 C-1 0 -1 0 0 0 Z M-1 24 C0 26 0 26 0 26 Z M-2 26 C-1 28 -1 28 -1 28 Z " fill="#002A00" transform="translate(310,52)"/>
<path d="M0 0 C6.31317741 -0.49515117 6.31317741 -0.49515117 9.6875 1.9375 C10.450625 2.618125 11.21375 3.29875 12 4 C14.18214568 4.77833534 14.18214568 4.77833534 16 5 C16 5.66 16 6.32 16 7 C16.99 7.33 17.98 7.66 19 8 C22.30171338 12.95257007 22.11722879 17.45651993 22.0625 23.3125 C22.05347656 24.56675781 22.04445312 25.82101563 22.03515625 27.11328125 C22.02355469 28.06589844 22.01195312 29.01851562 22 30 C23.98 30 25.96 30 28 30 C26.87548273 32.9719385 25.77706209 35.33440687 24 38 C24 39.32 24 40.64 24 42 C21.8046875 44.5078125 21.8046875 44.5078125 18.875 47.125 C17.92367187 47.99382812 16.97234375 48.86265625 15.9921875 49.7578125 C12.98432064 52.01174928 10.58931735 52.99903544 7 54 C6.2575 54.4125 5.515 54.825 4.75 55.25 C0.35829835 56.44773681 -3.6604124 55.09542988 -8 54 C-8 52.68 -8 51.36 -8 50 C-9.19625 49.896875 -10.3925 49.79375 -11.625 49.6875 C-15.62579463 49.15642107 -18.63178306 48.3499188 -22 46 C-24.18669271 41.99106337 -25 39.58309578 -25 35 C-25.66 35 -26.32 35 -27 35 C-28.6867443 31.31861363 -29.27227584 28.41806576 -29.25 24.375 C-29.25515625 23.43398438 -29.2603125 22.49296875 -29.265625 21.5234375 C-29 19 -29 19 -27 16 C-26.5359375 15.071875 -26.5359375 15.071875 -26.0625 14.125 C-24.83066217 11.66132434 -23.48291418 9.32108306 -22 7 C-21.67 7 -21.34 7 -21 7 C-20.77775749 9.58281836 -20.57176512 12.16522187 -20.375 14.75 C-20.31054688 15.47960938 -20.24609375 16.20921875 -20.1796875 16.9609375 C-19.88345307 21.03416096 -20.05325411 23.46046201 -22 27 C-22.24110759 30.05014928 -22.24110759 30.05014928 -22.125 33.25 C-22.09792969 34.86648437 -22.09792969 34.86648437 -22.0703125 36.515625 C-22.04710937 37.33546875 -22.02390625 38.1553125 -22 39 C-21.34 39 -20.68 39 -20 39 C-18.97591432 39.9753197 -17.98165594 40.98198643 -17 42 C-11.95212665 46.75942345 -7.13435012 47.67006841 -0.4375 48.375 C7.00652421 47.56292463 12.41419083 42.64042678 17 37 C19.90866756 32.27213047 20.83331408 27.57134607 19.5625 22.125 C19.2840625 21.073125 19.2840625 21.073125 19 20 C18.61966147 17.3376303 18.31169569 14.67167736 18 12 C17.34 12 16.68 12 16 12 C16 11.34 16 10.68 16 10 C13.36 9.34 10.72 8.68 8 8 C8 7.34 8 6.68 8 6 C5.03 6 2.06 6 -1 6 C-0.67 4.02 -0.34 2.04 0 0 Z " fill="#003200" transform="translate(178,39)"/>
<path d="M0 0 C3.83625 -0.061875 3.83625 -0.061875 7.75 -0.125 C8.54889648 -0.14320801 9.34779297 -0.16141602 10.17089844 -0.18017578 C17.14344519 -0.23462136 17.14344519 -0.23462136 20 2 C20.9375 5.4375 20.9375 5.4375 21 9 C19.5625 10.9375 19.5625 10.9375 18 12 C18.825 12.495 19.65 12.99 20.5 13.5 C23.13420504 16.13420504 23.41296768 16.5152469 23.5625 20 C23.3732302 23.07993579 23.08113612 23.89452304 21.125 26.4375 C16.97609944 29.48816218 13.34666135 29.11456652 8.375 29.0625 C5.61125 29.041875 2.8475 29.02125 0 29 C0 19.43 0 9.86 0 0 Z " fill="#DFEBDF" transform="translate(472,10)"/>
<path d="M0 0 C1.07765625 0.11085937 2.1553125 0.22171875 3.265625 0.3359375 C4.08546875 0.43132813 4.9053125 0.52671875 5.75 0.625 C5.89547545 4.68712212 5.98413226 8.74857287 6.0625 12.8125 C6.10439453 13.96298828 6.14628906 15.11347656 6.18945312 16.29882812 C6.31185392 24.74448267 6.31185392 24.74448267 3.65625 28.90625 C0.1180015 30.99876255 -1.98023986 31.14367475 -6.0625 30.9375 C-7.22394531 30.89238281 -8.38539063 30.84726563 -9.58203125 30.80078125 C-10.46246094 30.74277344 -11.34289062 30.68476562 -12.25 30.625 C-12.25 28.975 -12.25 27.325 -12.25 25.625 C-11.56292969 25.73199219 -10.87585938 25.83898437 -10.16796875 25.94921875 C-9.26691406 26.06910156 -8.36585938 26.18898438 -7.4375 26.3125 C-6.09751953 26.50392578 -6.09751953 26.50392578 -4.73046875 26.69921875 C-2.21938287 26.8588213 -2.21938287 26.8588213 -0.48828125 25.33203125 C0.94832429 23.53181929 0.94832429 23.53181929 1.75 20.625 C1.21375 20.955 0.6775 21.285 0.125 21.625 C-2.97046073 22.92835189 -4.91574641 23.10132194 -8.25 22.625 C-11.0625 20.1875 -11.0625 20.1875 -13.25 17.625 C-13.58 17.295 -13.91 16.965 -14.25 16.625 C-14.79396172 11.80960113 -14.97490311 7.86769105 -12.5 3.625 C-8.25948052 -0.14435065 -5.6549968 -0.61467357 0 0 Z " fill="#EAECEA" transform="translate(711.25,60.375)"/>
<path d="M0 0 C0.99 0 1.98 0 3 0 C2.9071875 1.11375 2.9071875 1.11375 2.8125 2.25 C2.73094169 5.03209284 2.73094169 5.03209284 4.484375 6.76953125 C6.51232775 9.75396686 6.43335947 11.85593899 6.4375 15.4375 C6.46650391 17.10619141 6.46650391 17.10619141 6.49609375 18.80859375 C5.90261423 22.62648959 4.66933006 24.26107847 2 27 C-0.40545638 28.20272819 -1.94996953 28.10071472 -4.625 28.0625 C-5.85089844 28.04896484 -5.85089844 28.04896484 -7.1015625 28.03515625 C-7.72804688 28.02355469 -8.35453125 28.01195313 -9 28 C-9 28.99 -9 29.98 -9 31 C-9.99 31 -10.98 31 -12 31 C-11.95875 30.21625 -11.9175 29.4325 -11.875 28.625 C-11.71271266 25.83883881 -11.71271266 25.83883881 -14 24 C-15.81785007 18.58140844 -15.97287181 12.22370699 -13.6875 7 C-11.61463192 4.54326746 -10.01365326 3.08753482 -6.73828125 2.8046875 C-5.53751953 2.83949219 -5.53751953 2.83949219 -4.3125 2.875 C-3.10013672 2.90207031 -3.10013672 2.90207031 -1.86328125 2.9296875 C-0.94095703 2.96449219 -0.94095703 2.96449219 0 3 C0 2.01 0 1.02 0 0 Z " fill="#E2E2E2" transform="translate(647,4)"/>
<path d="M0 0 C2.79041005 -0.45671382 5.14875418 -0.23370867 8 0 C6.81118062 6.47246105 4.05056408 9.84585639 -1 14 C-1.886875 14.495 -2.77375 14.99 -3.6875 15.5 C-7.79250461 18.1627057 -9.47457332 22.42371995 -11 27 C-14.45703024 29.48776943 -17.72528401 31.10622633 -22 30.75 C-22.66 30.5025 -23.32 30.255 -24 30 C-24 29.34 -24 28.68 -24 28 C-25.98 28 -27.96 28 -30 28 C-32.20399168 23.44508386 -32.58846263 18.97093824 -33 14 C-36.09720845 13.12159004 -37.90645403 13.00564594 -41 14 C-40.67 12.68 -40.34 11.36 -40 10 C-41.65 10 -43.3 10 -45 10 C-45 8.68 -45 7.36 -45 6 C-43.02 5.67 -41.04 5.34 -39 5 C-38.01 6.485 -38.01 6.485 -37 8 C-36.319375 8.165 -35.63875 8.33 -34.9375 8.5 C-34.298125 8.665 -33.65875 8.83 -33 9 C-32.67 9.99 -32.34 10.98 -32 12 C-31.34 12 -30.68 12 -30 12 C-26 18.5 -26 18.5 -26 23 C-22.62599422 23.41725678 -22.62599422 23.41725678 -19 23 C-17.01113677 20.59964782 -16.14840767 18.4240219 -15.125 15.5 C-13.14012767 11.08917259 -10.19273726 8.57251388 -5.875 6.5 C-2.80009449 5.24841255 -2.80009449 5.24841255 -1.625 2.3125 C-1.08875 1.549375 -0.5525 0.78625 0 0 Z " fill="#003300" transform="translate(426,33)"/>
<path d="M0 0 C5.69610261 4.82930439 5.69610261 4.82930439 6.2734375 8.953125 C6.45133626 12.97637385 6.44311184 16.12951176 4.0625 19.5 C0.11776031 22.72019566 -2.96091532 23.41154049 -8 23 C-11.670261 21.43818681 -12.7727373 20.34089404 -15 17 C-15.76903631 11.31722643 -16.12049948 6.54447226 -12.6875 1.8125 C-8.13959962 -1.25468863 -5.27740864 -1.27385726 0 0 Z " fill="#E4E4E4" transform="translate(688,61)"/>
<path d="M0 0 C14 0 14 0 19 3 C20.56941198 4.56941198 20.2449847 6.14134994 20.3125 8.3125 C20.28536683 11.72585322 20.23503324 12.68662235 18.125 15.5 C13.68296957 18.63555089 10.36327112 18.07661816 5 18 C5 21.63 5 25.26 5 29 C3.35 29 1.7 29 0 29 C0 19.43 0 9.86 0 0 Z " fill="#E8EDE8" transform="translate(157,32)"/>
<path d="M0 0 C2.31 0 4.62 0 7 0 C9.16746996 4.97739358 11.20247544 9.98568264 13.125 15.0625 C13.38925781 15.74376953 13.65351563 16.42503906 13.92578125 17.12695312 C15.41984857 21.07447617 16.46092447 24.78600712 17 29 C15.35 29 13.7 29 12 29 C11.34 26.36 10.68 23.72 10 21 C5.71 21 1.42 21 -3 21 C-3.33 23.31 -3.66 25.62 -4 28 C-5.65 28.33 -7.3 28.66 -9 29 C-7.78678563 21.64089703 -5.69271559 14.9432858 -3 8 C-2.41519426 6.43805049 -1.8316877 4.87561338 -1.25 3.3125 C-0.8375 2.219375 -0.425 1.12625 0 0 Z " fill="#E6EAE6" transform="translate(389,10)"/>
<path d="M0 0 C1.65 0 3.3 0 5 0 C5 3.63 5 7.26 5 11 C9.62 11 14.24 11 19 11 C19 7.37 19 3.74 19 0 C20.65 0 22.3 0 24 0 C24 9.57 24 19.14 24 29 C22.35 29 20.7 29 19 29 C19 24.38 19 19.76 19 15 C14.38 15 9.76 15 5 15 C5 19.62 5 24.24 5 29 C3.35 29 1.7 29 0 29 C0 19.43 0 9.86 0 0 Z " fill="#E5EFE5" transform="translate(572,54)"/>
<path d="M0 0 C3.33761045 2.15090451 4.73470933 3.20412799 6 7 C6.51005145 11.93328449 6.76029306 15.758188 4.125 20.0625 C1.61376126 22.35215885 0.55794684 22.92560709 -2.8125 23.375 C-7.0238265 22.87954982 -8.30545019 21.15647263 -11 18 C-11.33 17.67 -11.66 17.34 -12 17 C-12.53146616 11.80731428 -12.85321507 7.42202511 -10.125 2.875 C-6.70585417 -0.14189338 -4.53625566 -0.44473095 0 0 Z " fill="#042A04" transform="translate(245,35)"/>
<path d="M0 0 C1.32 1.65 2.64 3.3 4 5 C-0.62 5 -5.24 5 -10 5 C-10 5.66 -10 6.32 -10 7 C-10.845625 7.4125 -11.69125 7.825 -12.5625 8.25 C-13.696875 8.8275 -14.83125 9.405 -16 10 C-16.91652344 10.43505859 -16.91652344 10.43505859 -17.8515625 10.87890625 C-22.4763238 13.23064657 -24.15557059 15.21221468 -26 20 C-26.33163552 22.80803147 -26.28701834 25.55276191 -26.1875 28.375 C-26.17396484 29.11105469 -26.16042969 29.84710938 -26.14648438 30.60546875 C-26.11144869 32.40396743 -26.05765288 34.20208422 -26 36 C-25.34 36 -24.68 36 -24 36 C-24 34.35 -24 32.7 -24 31 C-23.67 31 -23.34 31 -23 31 C-22.97421875 31.60328125 -22.9484375 32.2065625 -22.921875 32.828125 C-22.5965201 38.04453897 -22.5965201 38.04453897 -20.0625 42.5 C-16.26961377 45.25846272 -13.65972569 45.08629122 -9 45 C-9 45.66 -9 46.32 -9 47 C-5.97170479 47.6663569 -3.10601995 48.14543237 0 48 C3.08798674 45.74942433 3.08798674 45.74942433 5 43 C5.99 43.495 5.99 43.495 7 44 C10.53018797 44.15348643 13.61527952 44.04145246 17 43 C16.6875 45.375 16.6875 45.375 16 48 C12.51195905 50.32536063 11.09859246 50.33457898 7 50 C4.625 49 4.625 49 3 48 C3 48.99 3 49.98 3 51 C-7.39756961 51.3634102 -7.39756961 51.3634102 -12 49 C-15.92850428 47.18684418 -19.49784638 45.80631835 -23.734375 44.90625 C-24.93658691 44.64811523 -24.93658691 44.64811523 -26.16308594 44.38476562 C-26.76926758 44.25779297 -27.37544922 44.13082031 -28 44 C-28.22386695 39.71361767 -28.38639029 35.43039318 -28.49438477 31.13989258 C-28.53942597 29.68356026 -28.60068743 28.22763006 -28.67895508 26.77270508 C-29.31192117 14.69670485 -29.31192117 14.69670485 -26.07299805 10.5078125 C-23.78639522 8.71107974 -21.58881738 7.31471205 -19 6 C-17.3603125 5.071875 -17.3603125 5.071875 -15.6875 4.125 C-13.43504587 3.18211223 -11.35945253 2.56952302 -9 2 C-5.50434664 -0.33043558 -4.1134271 -0.58763244 0 0 Z " fill="#013501" transform="translate(696,38)"/>
<path d="M0 0 C1.26237731 2.52475462 1.09856404 4.31200466 1.0625 7.125 C1.05347656 8.03507812 1.04445313 8.94515625 1.03515625 9.8828125 C1.02355469 10.58148438 1.01195313 11.28015625 1 12 C0.67 12 0.34 12 0 12 C-0.495 7.05 -0.495 7.05 -1 2 C-5.65399327 5.10266218 -7.56761109 10.09721611 -10 15 C-17 29 -17 29 -18.625 31.9375 C-20.14506779 35.32310552 -20.63225718 38.32257181 -21 42 C-19.69905396 41.50777954 -19.69905396 41.50777954 -18.37182617 41.00561523 C-15.00803007 40.00239489 -12.53717019 39.80674521 -9.05078125 39.91015625 C-7.40819336 39.94012695 -7.40819336 39.94012695 -5.73242188 39.97070312 C-3.44065606 40.03221826 -1.14898488 40.09735941 1.14257812 40.16601562 C2.23376953 40.18470703 3.32496094 40.20339844 4.44921875 40.22265625 C5.44268311 40.25109619 6.43614746 40.27953613 7.4597168 40.30883789 C10.0255684 40.20971236 10.0255684 40.20971236 11.78442383 38.67358398 C13.20071384 36.9006193 13.20071384 36.9006193 14 34 C14.66 34 15.32 34 16 34 C16.35923623 39.38854352 16.35923623 39.38854352 15.01245117 41.6809082 C11.78940622 43.79350215 8.3371768 43.36560282 4.61328125 43.29296875 C3.79627243 43.28872391 2.97926361 43.28447906 2.13749695 43.28010559 C-0.47117107 43.26331691 -3.07906562 43.22566519 -5.6875 43.1875 C-7.45636905 43.17245337 -9.22525021 43.15876492 -10.99414062 43.14648438 C-15.32972496 43.11341286 -19.66473136 43.0616299 -24 43 C-24 39.04 -24 35.08 -24 31 C-23.34 31 -22.68 31 -22 31 C-21.74992187 29.84628906 -21.49984375 28.69257812 -21.2421875 27.50390625 C-20.10811704 22.97659334 -18.27658491 19.06070453 -16.125 14.9375 C-15.78597656 14.26912109 -15.44695312 13.60074219 -15.09765625 12.91210938 C-14.0846709 10.93043271 -13.04644561 8.96418136 -12 7 C-11.65549805 6.33371582 -11.31099609 5.66743164 -10.95605469 4.98095703 C-8.04979484 -0.4402822 -5.99475711 -1.73532443 0 0 Z " fill="#001E00" transform="translate(102,16)"/>
<path d="M0 0 C1.2065625 0.495 1.2065625 0.495 2.4375 1 C2.4375 2.65 2.4375 4.3 2.4375 6 C1.426875 5.67 0.41625 5.34 -0.625 5 C-4.88731238 3.77848365 -9.47160939 2.95455469 -13.5625 5 C-13.5625 6.65 -13.5625 8.3 -13.5625 10 C-12.58667969 10.25394531 -11.61085938 10.50789063 -10.60546875 10.76953125 C-9.33316406 11.11371094 -8.06085937 11.45789063 -6.75 11.8125 C-5.48542969 12.14894531 -4.22085938 12.48539063 -2.91796875 12.83203125 C1.6620538 14.42624166 1.6620538 14.42624166 3.4375 17 C4 20.375 4 20.375 3.4375 24 C1.22187891 26.65603507 -1.46817794 28.45283897 -4.5625 30 C-9.93973857 30.46244252 -14.52149535 30.06810447 -19.5625 28 C-19.5625 26.35 -19.5625 24.7 -19.5625 23 C-17.17685923 23.57584432 -14.89567216 24.22227595 -12.5625 25 C-7.22954568 25.343491 -7.22954568 25.343491 -2.5625 23 C-2.5625 21.68 -2.5625 20.36 -2.5625 19 C-3.45453125 18.75765625 -4.3465625 18.5153125 -5.265625 18.265625 C-7.02132812 17.76289062 -7.02132812 17.76289062 -8.8125 17.25 C-9.97265625 16.92515625 -11.1328125 16.6003125 -12.328125 16.265625 C-15.70039766 14.94604004 -17.35656773 13.84153988 -19.5625 11 C-20.125 7.5 -20.125 7.5 -19.5625 4 C-13.74700914 -1.81549086 -7.70331393 -2.16233374 0 0 Z " fill="#E7F0E7" transform="translate(760.5625,54)"/>
<path d="M0 0 C2.70184474 5.10348452 2 9.03642012 2 15 C16.85 15.495 16.85 15.495 32 16 C32.66 17.32 33.32 18.64 34 20 C32 22 32 22 30.02880859 22.22705078 C29.24328613 22.21657715 28.45776367 22.20610352 27.6484375 22.1953125 C26.79765625 22.18886719 25.946875 22.18242187 25.0703125 22.17578125 C23.73613281 22.15064453 23.73613281 22.15064453 22.375 22.125 C21.02921875 22.11146484 21.02921875 22.11146484 19.65625 22.09765625 C17.43723414 22.0740497 15.21874923 22.0411231 13 22 C12.505 20.515 12.505 20.515 12 19 C11.31292969 18.87882812 10.62585938 18.75765625 9.91796875 18.6328125 C9.01691406 18.46523438 8.11585938 18.29765625 7.1875 18.125 C6.29417969 17.96257813 5.40085937 17.80015625 4.48046875 17.6328125 C2 17 2 17 -1 15 C-1.33 14.01 -1.66 13.02 -2 12 C-2.66 12 -3.32 12 -4 12 C-3.67 9.03 -3.34 6.06 -3 3 C-4.44375 3.12375 -5.8875 3.2475 -7.375 3.375 C-8.18710937 3.44460937 -8.99921875 3.51421875 -9.8359375 3.5859375 C-12.20334191 3.82892588 -12.20334191 3.82892588 -14 6 C-14.39764263 7.98821313 -14.73775349 9.98944339 -15 12 C-17.08379509 8.15299368 -18.49686624 4.09945571 -20 0 C-13.01555784 -3.36287956 -6.99685106 -3.72763272 0 0 Z " fill="#003F00" transform="translate(415,9)"/>
<path d="M0 0 C1.32 0 2.64 0 4 0 C3.67 1.98 3.34 3.96 3 6 C5.64 6 8.28 6 11 6 C11 7.32 11 8.64 11 10 C7.7 10.33 4.4 10.66 1 11 C0.67 12.32 0.34 13.64 0 15 C3.63 15 7.26 15 11 15 C11 15.99 11 16.98 11 18 C6.71 18 2.42 18 -2 18 C-2.33 20.31 -2.66 22.62 -3 25 C-4.32 25 -5.64 25 -7 25 C-6.67 22.69 -6.34 20.38 -6 18 C-8.64 18 -11.28 18 -14 18 C-14 17.01 -14 16.02 -14 15 C-10.37 15 -6.74 15 -3 15 C-3 13.35 -3 11.7 -3 10 C-6.63 10 -10.26 10 -14 10 C-14 8.68 -14 7.36 -14 6 C-8.06 5.505 -8.06 5.505 -2 5 C-1.34 3.35 -0.68 1.7 0 0 Z " fill="#D8E7D8" transform="translate(302,20)"/>
<path d="M0 0 C0.99 0.33 1.98 0.66 3 1 C5.44230769 27.25480769 5.44230769 27.25480769 2 35 C-2.22527749 39.22527749 -7.16142887 40.22706455 -13.00395203 40.25224304 C-14.1370153 40.24146477 -14.1370153 40.24146477 -15.29296875 40.23046875 C-16.08020828 40.23001053 -16.86744781 40.22955231 -17.67854309 40.2290802 C-19.3351086 40.2260697 -20.99167159 40.21821955 -22.64819336 40.20581055 C-25.18939172 40.18748636 -27.73022665 40.18530151 -30.27148438 40.18554688 C-31.88281566 40.1806337 -33.49414448 40.17480626 -35.10546875 40.16796875 C-35.86691696 40.16685593 -36.62836517 40.1657431 -37.41288757 40.16459656 C-42.76779938 40.11610031 -42.76779938 40.11610031 -45 39 C-45 38.34 -45 37.68 -45 37 C-43.21384277 36.970271 -43.21384277 36.970271 -41.39160156 36.93994141 C-36.97081468 36.86383005 -32.55035457 36.77512106 -28.12988281 36.68261719 C-26.21718805 36.64435032 -24.30442189 36.60949342 -22.39160156 36.578125 C-19.64101658 36.53242473 -16.89092217 36.47443855 -14.140625 36.4140625 C-13.28631897 36.40251129 -12.43201294 36.39096008 -11.55181885 36.37905884 C-10.75129089 36.35918915 -9.95076294 36.33931946 -9.12597656 36.31884766 C-8.42426331 36.30552399 -7.72255005 36.29220032 -6.99957275 36.2784729 C-4.60411009 35.94486592 -3.01733336 35.33659434 -1 34 C0.59311594 26.99362621 0.11357648 19.65070706 0.0625 12.5 C0.05798828 11.29601562 0.05347656 10.09203125 0.04882812 8.8515625 C0.0371195 5.90098927 0.02071995 2.95052141 0 0 Z " fill="#004500" transform="translate(360,55)"/>
<path d="M0 0 C3.46398563 1.20932562 6.88439076 2.52519964 10.29296875 3.8828125 C10.29296875 4.2128125 10.29296875 4.5428125 10.29296875 4.8828125 C8.64723642 4.91049772 7.00135806 4.92950835 5.35546875 4.9453125 C4.34484375 4.955625 3.33421875 4.9659375 2.29296875 4.9765625 C-0.35199115 4.8939075 -2.57702509 4.51167415 -5.14453125 3.9453125 C-11.60409839 3.12043972 -16.72821303 7.21755483 -21.70703125 10.8828125 C-24.82182044 13.47556998 -27.38353426 15.79406035 -28.0234375 19.92578125 C-28.01970678 21.91425383 -27.86687329 23.90077121 -27.70703125 25.8828125 C-28.20703125 28.8828125 -28.20703125 28.8828125 -28.70703125 30.8828125 C-29.36703125 30.8828125 -30.02703125 30.8828125 -30.70703125 30.8828125 C-32.13056872 24.12100952 -32.69559957 17.7072934 -30.39453125 11.1328125 C-27.30608496 6.40468199 -21.74086427 4.06414014 -16.70703125 1.8828125 C-16.04703125 1.8828125 -15.38703125 1.8828125 -14.70703125 1.8828125 C-14.70703125 1.2228125 -14.70703125 0.5628125 -14.70703125 -0.1171875 C-9.9455985 -2.49790387 -4.8742604 -1.46895519 0 0 Z " fill="#002200" transform="translate(700.70703125,43.1171875)"/>
<path d="M0 0 C0.66 0.33 1.32 0.66 2 1 C0.0165978 19.99002105 0.0165978 19.99002105 -4.29296875 25.71875 C-6.5909916 27.4435818 -8.0900404 27.36816462 -10.9375 27.3125 C-11.79214844 27.30863281 -12.64679688 27.30476563 -13.52734375 27.30078125 C-16.1664347 26.97975439 -17.77320234 26.43803996 -20 25 C-22 22 -22 22 -22 18 C-16.39 18 -10.78 18 -5 18 C-5 15.69 -5 13.38 -5 11 C-4.16015625 8.671875 -4.16015625 8.671875 -3.0625 6.75 C-1.77674249 4.44577508 -0.84373206 2.53119618 0 0 Z " fill="#003C00" transform="translate(351,54)"/>
<path d="M0 0 C2.30078125 -0.2265625 2.30078125 -0.2265625 5 0 C10.87345037 5.22379108 13.04464256 12.00271242 13.5 19.625 C13.42396537 26.37518576 10.9032681 34.0967319 6 39 C4.00041636 39.04080783 1.99954746 39.04254356 0 39 C0.42152344 38.32453125 0.84304688 37.6490625 1.27734375 36.953125 C1.82519531 36.06109375 2.37304688 35.1690625 2.9375 34.25 C3.48277344 33.36828125 4.02804687 32.4865625 4.58984375 31.578125 C7.8550176 25.60855509 8.07151636 18.19561275 6.3984375 11.64453125 C5.16723335 8.33022917 3.68410347 5.10911411 2 2 C1.34 2 0.68 2 0 2 C0 1.34 0 0.68 0 0 Z " fill="#DAE8DA" transform="translate(768,52)"/>
<path d="M0 0 C3.125 -0.1875 3.125 -0.1875 6 0 C6 0.66 6 1.32 6 2 C5.401875 2.556875 4.80375 3.11375 4.1875 3.6875 C-1.42456035 9.62024951 -1.52695904 15.7284522 -1.359375 23.61328125 C-0.88045389 28.12659214 0.41564854 31.31336243 3 35 C3.5775 35.825 4.155 36.65 4.75 37.5 C5.1625 37.995 5.575 38.49 6 39 C3.3125 39.5 3.3125 39.5 0 39 C-5.91172215 32.55958725 -7.51076274 24.59817979 -7.39453125 16.11328125 C-6.61131924 9.93288547 -3.39427081 5.09140622 0 0 Z " fill="#DBE9DB" transform="translate(730,52)"/>
<path d="M0 0 C1.32 0 2.64 0 4 0 C4.05607422 1.78857422 4.05607422 1.78857422 4.11328125 3.61328125 C4.17894032 5.179719 4.24538768 6.74612384 4.3125 8.3125 C4.33505859 9.09818359 4.35761719 9.88386719 4.38085938 10.69335938 C4.41630859 11.45068359 4.45175781 12.20800781 4.48828125 12.98828125 C4.51446533 13.68477783 4.54064941 14.38127441 4.56762695 15.09887695 C5.13020122 17.57248837 5.9695615 18.50436581 8 20 C11.58333333 20.08333333 11.58333333 20.08333333 15 19 C17.58853704 15.53428429 17.43607246 11.41427794 17.625 7.25 C17.66367188 6.55261719 17.70234375 5.85523438 17.7421875 5.13671875 C17.83598624 3.42489182 17.91906174 1.71248318 18 0 C19.32 0 20.64 0 22 0 C22.10883596 2.37625177 22.18766696 4.74743976 22.25 7.125 C22.30027344 8.12273438 22.30027344 8.12273438 22.3515625 9.140625 C22.45236898 14.28175552 21.24460291 17.06679432 18 21 C14.00191454 23.66539031 10.70248347 23.84149704 6 23 C3 20.5625 3 20.5625 1 18 C0.67 17.67 0.34 17.34 0 17 C-0.07325168 14.13732433 -0.09238205 11.299281 -0.0625 8.4375 C-0.05798828 7.63119141 -0.05347656 6.82488281 -0.04882812 5.99414062 C-0.03700518 3.99606244 -0.01906914 1.99802217 0 0 Z " fill="#E0ECE0" transform="translate(113,9)"/>
<path d="M0 0 C0.84755859 0.01289063 1.69511719 0.02578125 2.56835938 0.0390625 C3.44943359 0.07257812 4.33050781 0.10609375 5.23828125 0.140625 C6.13095703 0.15867187 7.02363281 0.17671875 7.94335938 0.1953125 C10.14691629 0.24244741 12.34830726 0.30821843 14.55078125 0.390625 C14.55078125 1.380625 14.55078125 2.370625 14.55078125 3.390625 C13.23013672 3.41189453 13.23013672 3.41189453 11.8828125 3.43359375 C10.14064453 3.50513672 10.14064453 3.50513672 8.36328125 3.578125 C6.64044922 3.63033203 6.64044922 3.63033203 4.8828125 3.68359375 C0.59099824 4.59428353 -0.87507119 5.86063589 -3.44921875 9.390625 C-4.27060662 12.93654984 -4.27060662 12.93654984 -4.26171875 16.828125 C-4.28685547 17.52534668 -4.31199219 18.22256836 -4.33789062 18.94091797 C-4.52123822 24.72553456 -4.4966616 30.51894482 -4.38671875 36.3046875 C-4.4499684 39.42763892 -4.86039806 42.32691736 -5.44921875 45.390625 C-8.06784346 42.77200029 -7.70847428 40.88756716 -7.75276184 37.32046509 C-7.75185043 36.49025848 -7.75093903 35.66005188 -7.75 34.8046875 C-7.75428513 33.95135834 -7.75857025 33.09802917 -7.76298523 32.21884155 C-7.76873404 30.4115284 -7.76922475 28.6041921 -7.76489258 26.796875 C-7.76173909 24.03345084 -7.78516166 21.27110368 -7.81054688 18.5078125 C-7.81282049 16.75260552 -7.81352308 14.99739566 -7.8125 13.2421875 C-7.82170975 12.41602936 -7.83091949 11.58987122 -7.84040833 10.73867798 C-7.81286468 7.31582952 -7.73135017 4.96385317 -6.20458984 1.86181641 C-3.98270902 -0.00036076 -2.87491213 -0.07717885 0 0 Z " fill="#001C00" transform="translate(618.44921875,10.609375)"/>
<path d="M0 0 C5.94 0 11.88 0 18 0 C18 8.25 18 16.5 18 25 C12.06 25 6.12 25 0 25 C0 24.34 0 23.68 0 23 C4.62 23 9.24 23 14 23 C14 19.7 14 16.4 14 13 C9.71 13 5.42 13 1 13 C1 12.34 1 11.68 1 11 C5.29 11 9.58 11 14 11 C14 8.03 14 5.06 14 2 C9.38 2 4.76 2 0 2 C0 1.34 0 0.68 0 0 Z " fill="#E7F0E7" transform="translate(20,36)"/>
<path d="M0 0 C0 0.66 0 1.32 0 2 C-4.29 2.66 -8.58 3.32 -13 4 C-13.66 5.98 -14.32 7.96 -15 10 C-10.05 10 -5.1 10 0 10 C0 10.66 0 11.32 0 12 C-5.28 12 -10.56 12 -16 12 C-15.01 14.31 -14.02 16.62 -13 19 C-9.85678327 20.27178196 -9.85678327 20.27178196 -6.3125 20.4375 C-5.13300781 20.55996094 -3.95351563 20.68242188 -2.73828125 20.80859375 C-1.38283203 20.90333984 -1.38283203 20.90333984 0 21 C0 21.66 0 22.32 0 23 C-12.4800965 23.75995175 -12.4800965 23.75995175 -17.375 21.3125 C-20.00112547 15.95924424 -19.8661391 10.8315055 -19 5 C-15.40734022 -2.32349877 -7.07905314 -0.43106548 0 0 Z " fill="#F1F4F1" transform="translate(345,60)"/>
<path d="M0 0 C3.13010458 1.39192704 5.32336692 3.02642226 7.75 5.4375 C8.67039062 6.33275391 8.67039062 6.33275391 9.609375 7.24609375 C11 9 11 9 11 12 C9.35546875 13.7890625 9.35546875 13.7890625 7.1875 15.625 C6.47980469 16.23601563 5.77210938 16.84703125 5.04296875 17.4765625 C3 19 3 19 0 20 C0.33 18.68 0.66 17.36 1 16 C-5.93 15.67 -12.86 15.34 -20 15 C-20 14.34 -20 13.68 -20 13 C-7.625 12.505 -7.625 12.505 5 12 C5 10.68 5 9.36 5 8 C-2.92 7.67 -10.84 7.34 -19 7 C-19 6.34 -19 5.68 -19 5 C-12.07 5 -5.14 5 2 5 C1.34 3.35 0.68 1.7 0 0 Z " fill="#F1F6F1" transform="translate(442,18)"/>
<path d="M0 0 C1.32 0 2.64 0 4 0 C4 1.98 4 3.96 4 6 C9.94 6 15.88 6 22 6 C22 6.66 22 7.32 22 8 C16.06 8 10.12 8 4 8 C4 9.65 4 11.3 4 13 C9.94 13 15.88 13 22 13 C22 13.66 22 14.32 22 15 C16.06 15 10.12 15 4 15 C4 17.31 4 19.62 4 22 C2.68 22 1.36 22 0 22 C0 14.74 0 7.48 0 0 Z " fill="#EAF2EA" transform="translate(531,30)"/>
<path d="M0 0 C2.26475594 1.67418561 2.92772684 2.5691953 3.3984375 5.375 C3.39070312 6.24125 3.38296875 7.1075 3.375 8 C3.38273438 8.86625 3.39046875 9.7325 3.3984375 10.625 C2.92577246 13.44245433 2.29166075 14.33626503 0 16 C-3.0625 16.375 -3.0625 16.375 -6 16 C-8.23054053 12.65418921 -8.29683128 11.35990189 -8.3125 7.4375 C-8.32925781 6.46683594 -8.34601562 5.49617188 -8.36328125 4.49609375 C-8.24339844 3.67238281 -8.12351562 2.84867187 -8 2 C-4.76746204 -0.15502531 -3.74849077 -0.46856135 0 0 Z " fill="#090A09" transform="translate(686,64)"/>
<path d="M0 0 C1.65 0 3.3 0 5 0 C5 10.23 5 20.46 5 31 C3.35 31 1.7 31 0 31 C0 20.77 0 10.54 0 0 Z " fill="#DBE5DB" transform="translate(663,52)"/>
<path d="M0 0 C0 3.96 0 7.92 0 12 C-3.73741613 13.86870807 -5.03827351 14.41702384 -9 14 C-11.51012963 11.48987037 -11.29721609 10.53194763 -11.3125 7.0625 C-11.32925781 6.18722656 -11.34601562 5.31195313 -11.36328125 4.41015625 C-11 2 -11 2 -9.7421875 0.1640625 C-6.5812684 -1.94794174 -3.59556534 -0.64838063 0 0 Z " fill="#0E110E" transform="translate(713,65)"/>
<path d="M0 0 C0.33 0 0.66 0 1 0 C1.05423638 1.91635217 1.09289963 3.83314925 1.125 5.75 C1.14820313 6.81734375 1.17140625 7.8846875 1.1953125 8.984375 C1.00322356 11.95022828 0.63578192 13.55204664 -1 16 C-4.33155251 17.66577625 -8.06536059 17.12007856 -11.7265625 17.09765625 C-13.02078629 17.09553383 -13.02078629 17.09553383 -14.34115601 17.09336853 C-17.1024723 17.08776188 -19.86370812 17.07520827 -22.625 17.0625 C-24.4947905 17.05748586 -26.36458226 17.0529228 -28.234375 17.04882812 C-32.82294777 17.03779029 -37.41146023 17.0205212 -42 17 C-38.45634996 13.63042789 -35.75165424 13.65787743 -30.96875 13.7421875 C-30.29581909 13.74880402 -29.62288818 13.75542053 -28.92956543 13.76223755 C-26.78590434 13.78557334 -24.64328996 13.82925465 -22.5 13.875 C-20.35683675 13.91014961 -18.21373574 13.94095677 -16.07043457 13.96633911 C-14.12560541 13.99099147 -12.18094654 14.02813653 -10.23632812 14.06591797 C-7.5787697 14.01178846 -5.50923672 13.80474582 -3 13 C-2.855625 12.360625 -2.71125 11.72125 -2.5625 11.0625 C-2 9 -2 9 -1 8 C-0.76924918 6.65252916 -0.58846937 5.29622435 -0.4375 3.9375 C-0.293125 2.638125 -0.14875 1.33875 0 0 Z " fill="#001D00" transform="translate(658,42)"/>
<path d="M0 0 C3.48872415 1.16290805 4.09976864 2.13967609 6.1875 5.0625 C6.71730469 5.79597656 7.24710938 6.52945313 7.79296875 7.28515625 C8.19128906 7.85105469 8.58960938 8.41695312 9 9 C6.83125748 8.49396008 5.00032373 8.00016187 3 7 C3 16.24 3 25.48 3 35 C2.01 35 1.02 35 0 35 C0 25.43 0 15.86 0 6 C-1.32 6.99 -2.64 7.98 -4 9 C-4.66 9 -5.32 9 -6 9 C-4.47291037 5.56404834 -2.40072955 2.88087546 0 0 Z " fill="#D2E1D2" transform="translate(201,34)"/>
<path d="M0 0 C2 2 2 2 2 5 C-5.02612953 11.5577209 -11.13589339 11.31113918 -20.2512207 11.61254883 C-22.42650882 11.68712319 -24.60074946 11.77782293 -26.77539062 11.86914062 C-28.16142387 11.91766145 -29.54749122 11.96521939 -30.93359375 12.01171875 C-32.19228271 12.05772217 -33.45097168 12.10372559 -34.74780273 12.15112305 C-37.83601896 12.00761987 -39.43497784 11.64478078 -42 10 C-42 9.34 -42 8.68 -42 8 C-40.93040039 7.97494385 -39.86080078 7.9498877 -38.75878906 7.92407227 C-34.78536273 7.82980472 -30.81210332 7.72963142 -26.83886719 7.62768555 C-25.12015695 7.58440984 -23.40140576 7.54272959 -21.68261719 7.50268555 C-19.210161 7.44480435 -16.73790953 7.38116164 -14.265625 7.31640625 C-13.11540863 7.29133751 -13.11540863 7.29133751 -11.94195557 7.26576233 C-6.87546923 7.18110186 -6.87546923 7.18110186 -2 6 C-0.6954344 3.00384054 -0.6954344 3.00384054 0 0 Z " fill="#004700" transform="translate(121,53)"/>
<path d="M0 0 C1.65 0 3.3 0 5 0 C3.81118062 6.47246105 1.05056408 9.84585639 -4 14 C-4.886875 14.495 -5.77375 14.99 -6.6875 15.5 C-10.79250461 18.1627057 -12.47457332 22.42371995 -14 27 C-17.45703024 29.48776943 -20.72528401 31.10622633 -25 30.75 C-25.66 30.5025 -26.32 30.255 -27 30 C-27 29.34 -27 28.68 -27 28 C-24.03 27.67 -21.06 27.34 -18 27 C-17.67 26.01 -17.34 25.02 -17 24 C-16.34 24 -15.68 24 -15 24 C-15.103125 23.13375 -15.20625 22.2675 -15.3125 21.375 C-14.91141324 17.04326295 -13.23326453 14.73287835 -10 12 C-7.93357993 10.7764618 -5.86479332 9.73863913 -3.671875 8.76171875 C-2.00202905 8.11879555 -2.00202905 8.11879555 -1 7 C-0.63239269 4.67182036 -0.29758419 2.3381615 0 0 Z " fill="#004100" transform="translate(429,33)"/>
<path d="M0 0 C1.4606285 2.64738916 2 3.89448334 2 7 C1.00664799 8.67063747 0.00568242 10.33675599 -1 12 C-1.33 12.99 -1.66 13.98 -2 15 C-3.90522468 20.71567405 -6.85466558 24.77722034 -12 28 C-16.49785372 29.91971887 -21.17126392 31.2211716 -26 32 C-26.66 30.68 -27.32 29.36 -28 28 C-27.41992188 27.87882812 -26.83984375 27.75765625 -26.2421875 27.6328125 C-21.71926179 26.66254791 -17.35583678 25.58394065 -13 24 C-12.113125 23.814375 -11.22625 23.62875 -10.3125 23.4375 C-6.50419344 21.0701743 -6.15616936 17.14775758 -5 13 C-4.608125 12.113125 -4.21625 11.22625 -3.8125 10.3125 C-2.80893512 7.45619996 -2.86026285 5.00434863 -3 2 C-2.01 2 -1.02 2 0 2 C0 1.34 0 0.68 0 0 Z " fill="#004100" transform="translate(529,47)"/>
<path d="M0 0 C0.66 0 1.32 0 2 0 C2.34978036 3.14802321 2.30684342 4.57041921 0.4375 7.1875 C-2.54756633 9.40716471 -5.44740507 9.99454861 -9 11 C-9.33 11.99 -9.66 12.98 -10 14 C-10.66 14 -11.32 14 -12 14 C-12.03738281 14.61488281 -12.07476562 15.22976562 -12.11328125 15.86328125 C-12.17902344 16.67152344 -12.24476563 17.47976562 -12.3125 18.3125 C-12.37050781 19.11300781 -12.42851562 19.91351563 -12.48828125 20.73828125 C-13.09873797 23.43640677 -13.7660125 24.39111909 -16 26 C-24.25059289 26.65480896 -24.25059289 26.65480896 -28 24 C-28.609375 21.8359375 -28.609375 21.8359375 -28.75 19.375 C-28.80671875 18.55773437 -28.8634375 17.74046875 -28.921875 16.8984375 C-28.94765625 16.27195312 -28.9734375 15.64546875 -29 15 C-26.37613513 18.06117568 -26 18.73173127 -26 23 C-22.62599422 23.41725678 -22.62599422 23.41725678 -19 23 C-17.01113677 20.59964782 -16.14840767 18.4240219 -15.125 15.5 C-13.14012767 11.08917259 -10.19273726 8.57251388 -5.875 6.5 C-2.56525102 4.77317445 -1.73830889 3.21587145 0 0 Z " fill="#001E00" transform="translate(426,33)"/>
<path d="M0 0 C0.33 0 0.66 0 1 0 C1.33 2.64 1.66 5.28 2 8 C2.556875 7.649375 3.11375 7.29875 3.6875 6.9375 C6.6168682 5.7499183 8.02608955 6.00869652 11 7 C13.50703617 8.94991702 14.71107323 11.12470182 16 14 C13.67106405 16.14978703 12.22038995 16.96248682 9.0625 17.5 C5.0077307 16.83799685 3.61797369 15.06676918 1 12 C0.67 11.67 0.34 11.34 0 11 C-0.07226502 9.14712498 -0.0838122 7.29166122 -0.0625 5.4375 C-0.05347656 4.42558594 -0.04445312 3.41367187 -0.03515625 2.37109375 C-0.02355469 1.58863281 -0.01195312 0.80617187 0 0 Z " fill="#0B5F0B" transform="translate(233,41)"/>
<path d="M0 0 C2.37280518 -0.08853751 4.45543403 0.24114786 6.78125 0.703125 C9.15901458 1.0212766 10.73213861 0.72159226 13 0 C12.6875 2.375 12.6875 2.375 12 5 C8.51195905 7.32536063 7.09859246 7.33457898 3 7 C0.625 6 0.625 6 -1 5 C-1 5.99 -1 6.98 -1 8 C-8.71255046 8.26956487 -13.83432006 8.02388736 -20 3 C-16.535 2.505 -16.535 2.505 -13 2 C-13 2.66 -13 3.32 -13 4 C-9.97788029 4.65220959 -7.09750428 5.1570413 -4 5 C-3.34 4.175 -2.68 3.35 -2 2.5 C-1.34 1.675 -0.68 0.85 0 0 Z " fill="#012501" transform="translate(700,81)"/>
<path d="M0 0 C6.31317741 -0.49515117 6.31317741 -0.49515117 9.6875 1.9375 C10.450625 2.618125 11.21375 3.29875 12 4 C14.18214568 4.77833534 14.18214568 4.77833534 16 5 C16 5.66 16 6.32 16 7 C16.99 7.33 17.98 7.66 19 8 C21.29633824 11.44450737 21.54016485 13.93812283 22 18 C20 16.6875 20 16.6875 18 15 C18 14.01 18 13.02 18 12 C17.34 12 16.68 12 16 12 C16 11.34 16 10.68 16 10 C13.36 9.34 10.72 8.68 8 8 C8 7.34 8 6.68 8 6 C5.03 6 2.06 6 -1 6 C-0.67 4.02 -0.34 2.04 0 0 Z " fill="#003900" transform="translate(178,39)"/>
<path d="M0 0 C8.625 -0.25 8.625 -0.25 12 2 C12.3125 5 12.3125 5 12 8 C10 10 10 10 7.6171875 10.1953125 C6.71226562 10.17210937 5.80734375 10.14890625 4.875 10.125 C2.461875 10.063125 2.461875 10.063125 0 10 C0 6.7 0 3.4 0 0 Z " fill="#015E01" transform="translate(478,25)"/>
<path d="M0 0 C0.33 0.99 0.66 1.98 1 3 C4.96 3 8.92 3 13 3 C13 3.99 13 4.98 13 6 C8.71 6 4.42 6 0 6 C-0.33 8.31 -0.66 10.62 -1 13 C-2.32 13 -3.64 13 -5 13 C-4.67 10.69 -4.34 8.38 -4 6 C-6.64 6 -9.28 6 -12 6 C-12 5.01 -12 4.02 -12 3 C-8.37 3 -4.74 3 -1 3 C-0.67 2.01 -0.34 1.02 0 0 Z " fill="#F5F9F5" transform="translate(300,32)"/>
<path d="M0 0 C6.3782235 -0.36103152 6.3782235 -0.36103152 8.9375 1.125 C10.52225401 3.92162472 10.45947423 5.8493196 10 9 C8.375 10.875 8.375 10.875 6 12 C4.02 12 2.04 12 0 12 C0 8.04 0 4.08 0 0 Z " fill="#296F29" transform="translate(162,35)"/>
<path d="M0 0 C1.32 1.65 2.64 3.3 4 5 C-0.62 5 -5.24 5 -10 5 C-10 5.66 -10 6.32 -10 7 C-11.13179687 7.49371094 -12.26359375 7.98742188 -13.4296875 8.49609375 C-14.91147042 9.14320148 -16.3932406 9.79033841 -17.875 10.4375 C-18.62136719 10.76298828 -19.36773438 11.08847656 -20.13671875 11.42382812 C-20.85214844 11.73642578 -21.56757812 12.04902344 -22.3046875 12.37109375 C-23.2944458 12.8031311 -23.2944458 12.8031311 -24.30419922 13.24389648 C-25.54991875 13.79932312 -26.78006037 14.39003018 -28 15 C-25.89174175 9.8190675 -21.70550239 7.67863903 -17 5 C-15.01985568 4.27648573 -13.02178685 3.59734611 -11 3 C-10.175 2.46375 -9.35 1.9275 -8.5 1.375 C-5.34191969 -0.36194417 -3.55141572 -0.60449629 0 0 Z " fill="#004500" transform="translate(696,38)"/>
<path d="M0 0 C2.47061129 21.43730408 2.47061129 21.43730408 -3 30 C-3.33 30 -3.66 30 -4 30 C-4.08690253 25.56262288 -4.14035926 21.12546366 -4.1875 16.6875 C-4.21263672 15.42486328 -4.23777344 14.16222656 -4.26367188 12.86132812 C-4.27333984 11.65283203 -4.28300781 10.44433594 -4.29296875 9.19921875 C-4.31653442 7.52605591 -4.31653442 7.52605591 -4.34057617 5.8190918 C-4 3 -4 3 -2.54418945 1.11254883 C-1 0 -1 0 0 0 Z " fill="#004300" transform="translate(310,52)"/>
<path d="M0 0 C1.19496094 0.13148437 1.19496094 0.13148437 2.4140625 0.265625 C3.06117188 0.42546875 3.70828125 0.5853125 4.375 0.75 C4.705 1.41 5.035 2.07 5.375 2.75 C4.199375 2.646875 3.02375 2.54375 1.8125 2.4375 C-3.30515584 2.39188809 -5.77885432 4.5448786 -9.625 7.75 C-10.285 7.42 -10.945 7.09 -11.625 6.75 C-10.965 5.76 -10.305 4.77 -9.625 3.75 C-8.965 3.75 -8.305 3.75 -7.625 3.75 C-7.625 3.09 -7.625 2.43 -7.625 1.75 C-4.3237992 -0.45080053 -3.73398842 -0.46218749 0 0 Z M-11.625 8.75 C-12.2025 9.45125 -12.78 10.1525 -13.375 10.875 C-16.07306128 14.32252274 -18.66272378 17.82544756 -20.625 21.75 C-20.295 22.74 -19.965 23.73 -19.625 24.75 C-19.58545766 27.08299825 -19.58098268 29.41708189 -19.625 31.75 C-19.955 30.43 -20.285 29.11 -20.625 27.75 C-21.285 27.75 -21.945 27.75 -22.625 27.75 C-23.05827621 20.92589967 -22.49404417 15.55978658 -18.625 9.75 C-14.6037234 7.2606383 -14.6037234 7.2606383 -11.625 8.75 Z " fill="#012401" transform="translate(504.625,29.25)"/>
<path d="M0 0 C0.99 0 1.98 0 3 0 C2.938125 0.7425 2.87625 1.485 2.8125 2.25 C2.72715933 5.03445734 2.72715933 5.03445734 4.5 6.75 C6.56006594 9.84009891 6.29770009 12.07666364 6.1875 15.75 C6.16042969 16.92046875 6.13335938 18.0909375 6.10546875 19.296875 C6.07066406 20.18890625 6.03585937 21.0809375 6 22 C4.68 22 3.36 22 2 22 C1.67 17.71 1.34 13.42 1 9 C0.01 9 -0.98 9 -2 9 C-2 7.68 -2 6.36 -2 5 C-3.98 5 -5.96 5 -8 5 C-7.67 4.34 -7.34 3.68 -7 3 C-4.69 3 -2.38 3 0 3 C0 2.01 0 1.02 0 0 Z " fill="#E6E8E6" transform="translate(647,4)"/>
<path d="M0 0 C-0.65226563 0.35191406 -1.30453125 0.70382813 -1.9765625 1.06640625 C-10.22332506 5.70558848 -10.22332506 5.70558848 -16 13 C-16.44557487 15.8130269 -16.23264922 18.11514967 -16 21 C-16.5 24 -16.5 24 -17 26 C-17.66 26 -18.32 26 -19 26 C-19.78998471 22.24757263 -20.13913605 18.57480626 -20.25 14.75 C-20.27578125 13.89921875 -20.3015625 13.0484375 -20.328125 12.171875 C-20.16570313 11.09679687 -20.16570313 11.09679687 -20 10 C-19.01 9.34 -18.02 8.68 -17 8 C-16.7421875 7.35675781 -16.484375 6.71351562 -16.21875 6.05078125 C-14.355923 2.91621658 -11.8597389 2.41766989 -8.5 1.1875 C-6.75203125 0.52814453 -6.75203125 0.52814453 -4.96875 -0.14453125 C-2 -1 -2 -1 0 0 Z " fill="#001700" transform="translate(689,48)"/>
<path d="M0 0 C8.25 0 16.5 0 25 0 C25 1.32 25 2.64 25 4 C16.75 4 8.5 4 0 4 C0 2.68 0 1.36 0 0 Z " fill="#DBE7DB" transform="translate(617,64)"/>
<path d="M0 0 C8.25 0 16.5 0 25 0 C25 1.32 25 2.64 25 4 C16.75 4 8.5 4 0 4 C0 2.68 0 1.36 0 0 Z " fill="#DEEADE" transform="translate(64,65)"/>
<path d="M0 0 C4.95 0 9.9 0 15 0 C15.66 1.32 16.32 2.64 17 4 C15 6 15 6 11.5234375 6.1953125 C10.14049032 6.18201493 8.75761346 6.15816232 7.375 6.125 C6.66859375 6.11597656 5.9621875 6.10695313 5.234375 6.09765625 C3.48943902 6.07407603 1.74467705 6.03820461 0 6 C0 4.02 0 2.04 0 0 Z " fill="#026202" transform="translate(432,25)"/>
<path d="M0 0 C5.28 0 10.56 0 16 0 C13 5 13 5 10.8125 5.8125 C10.214375 5.874375 9.61625 5.93625 9 6 C9 6.66 9 7.32 9 8 C6 9 6 9 3.9375 8.25 C2 7 2 7 0 4 C0 2.68 0 1.36 0 0 Z " fill="#014501" transform="translate(329,72)"/>
<path d="M0 0 C1.26237731 2.52475462 1.09856404 4.31200466 1.0625 7.125 C1.05347656 8.03507812 1.04445313 8.94515625 1.03515625 9.8828125 C1.02355469 10.58148438 1.01195313 11.28015625 1 12 C0.67 12 0.34 12 0 12 C-0.495 7.05 -0.495 7.05 -1 2 C-2.6396875 2.556875 -2.6396875 2.556875 -4.3125 3.125 C-4.92738281 3.33382813 -5.54226562 3.54265625 -6.17578125 3.7578125 C-8.90583081 5.61681841 -9.65039136 8.02094262 -11 11 C-12.16033786 13.14926217 -13.32717061 15.29502876 -14.5 17.4375 C-16.91011161 21.89085634 -19.13898997 26.29273933 -21 31 C-22 29 -22 29 -21.46875 27.109375 C-17.70829404 17.95084516 -13.61974288 8.1836574 -8 0 C-4.69693408 -1.10102197 -3.28414305 -0.95067299 0 0 Z M-24 31 C-23.01 31.495 -23.01 31.495 -22 32 C-22.99 32.495 -22.99 32.495 -24 33 C-24 32.34 -24 31.68 -24 31 Z " fill="#003000" transform="translate(102,16)"/>
<path d="M0 0 C2.475 0.495 2.475 0.495 5 1 C6.22097315 6.42039001 6.18392788 11.65428553 6.1875 17.1875 C6.19974609 18.19748047 6.21199219 19.20746094 6.22460938 20.24804688 C6.22654297 21.21162109 6.22847656 22.17519531 6.23046875 23.16796875 C6.23457764 24.04735107 6.23868652 24.9267334 6.24291992 25.83276367 C6 28 6 28 4 30 C3.11851346 26.25368222 3 22.8366244 3 19 C2.67 18.01 2.34 17.02 2 16 C2.08617726 13.767731 2.23922241 11.53761514 2.4375 9.3125 C2.53933594 8.13300781 2.64117188 6.95351563 2.74609375 5.73828125 C2.87177734 4.38283203 2.87177734 4.38283203 3 3 C2.01 3 1.02 3 0 3 C0 2.01 0 1.02 0 0 Z " fill="#001C00" transform="translate(653,12)"/>
<path d="M0 0 C0.66 0.33 1.32 0.66 2 1 C2.13536022 3.08153935 2.23215465 5.16561206 2.3125 7.25 C2.39951172 8.99023438 2.39951172 8.99023438 2.48828125 10.765625 C2 14 2 14 -0.33203125 16.421875 C-3 18 -3 18 -6 18 C-5.42912225 11.29218641 -2.98548202 5.97096403 0 0 Z " fill="#0C0E0C" transform="translate(647,12)"/>
<path d="M0 0 C1.11375 0.1546875 1.11375 0.1546875 2.25 0.3125 C0.4168733 6.31182374 -1.82321751 11.76170563 -4.75 17.3125 C-7.23018753 14.83231247 -7.07361558 13.92734049 -7.125 10.5 C-7.04744196 6.92715984 -6.80113513 5.40719469 -5.0625 2.1875 C-2.75 0.3125 -2.75 0.3125 0 0 Z " fill="#040804" transform="translate(642.75,8.6875)"/>
<path d="M0 0 C7.75 -0.125 7.75 -0.125 10 1 C10.93315743 4.38476631 11.11910887 7.58525438 11.09765625 11.08203125 C11.09443359 12.01337891 11.09121094 12.94472656 11.08789062 13.90429688 C11.07951172 14.86400391 11.07113281 15.82371094 11.0625 16.8125 C11.05798828 17.79154297 11.05347656 18.77058594 11.04882812 19.77929688 C11.03708684 22.18626111 11.02066419 24.59309857 11 27 C10.67 27 10.34 27 10 27 C10 22.05 10 17.1 10 12 C8.68 12 7.36 12 6 12 C6.33 9.36 6.66 6.72 7 4 C4.36 3.67 1.72 3.34 -1 3 C-0.67 2.01 -0.34 1.02 0 0 Z " fill="#003300" transform="translate(708,49)"/>
<path d="M0 0 C0.33 0 0.66 0 1 0 C1.22331199 1.58129029 1.42804644 3.16521089 1.625 4.75 C1.74101562 5.63171875 1.85703125 6.5134375 1.9765625 7.421875 C2.00279705 10.3076755 1.28274611 11.47337888 0 14 C-0.24073194 16.82085728 -0.24073194 16.82085728 -0.125 19.75 C-0.10695312 20.73484375 -0.08890625 21.7196875 -0.0703125 22.734375 C-0.04710937 23.48203125 -0.02390625 24.2296875 0 25 C-2 24 -2 24 -3.125 21.625 C-4.63564689 15.36660572 -4.95577008 9.41020281 -2.5625 3.375 C-1 1 -1 1 0 0 Z " fill="#002600" transform="translate(156,52)"/>
<path d="M0 0 C0.7734375 0.00386719 1.546875 0.00773438 2.34375 0.01171875 C4.5 0.3125 4.5 0.3125 7.5 2.3125 C9.12384701 6.75671286 9.73009967 10.59545683 9.5 15.3125 C8.84 14.3225 8.18 13.3325 7.5 12.3125 C6.84 12.3125 6.18 12.3125 5.5 12.3125 C5.83 9.3425 6.16 6.3725 6.5 3.3125 C5.05625 3.43625 3.6125 3.56 2.125 3.6875 C1.31289063 3.75710938 0.50078125 3.82671875 -0.3359375 3.8984375 C-2.70334191 4.14142588 -2.70334191 4.14142588 -4.5 6.3125 C-4.89764263 8.30071313 -5.23775349 10.30194339 -5.5 12.3125 C-7.3454602 9.19828592 -7.96369062 6.92928684 -7.5 3.3125 C-5.25322267 0.34987249 -3.65446524 -0.07918008 0 0 Z " fill="#002F00" transform="translate(405.5,8.6875)"/>
<path d="M0 0 C8.25 0 16.5 0 25 0 C25 0.99 25 1.98 25 3 C16.75 3 8.5 3 0 3 C0 2.01 0 1.02 0 0 Z " fill="#F4F8F4" transform="translate(64,82)"/>
<path d="M0 0 C8.25 0 16.5 0 25 0 C25 0.99 25 1.98 25 3 C16.75 3 8.5 3 0 3 C0 2.01 0 1.02 0 0 Z " fill="#F0F6F0" transform="translate(64,74)"/>
<path d="M0 0 C8.25 0 16.5 0 25 0 C25 0.99 25 1.98 25 3 C16.75 3 8.5 3 0 3 C0 2.01 0 1.02 0 0 Z " fill="#F4F8F4" transform="translate(617,73)"/>
<path d="M0 0 C2.25 0.25 2.25 0.25 4 1 C2.69659855 4.91020436 1.33188599 7.50108551 -2 10 C-5.25 10.25 -5.25 10.25 -8 10 C-8 9.34 -8 8.68 -8 8 C-8.66 7.67 -9.32 7.34 -10 7 C-9.67 6.01 -9.34 5.02 -9 4 C-8.2575 4.0825 -7.515 4.165 -6.75 4.25 C-3.84128762 4.28141439 -3.84128762 4.28141439 -1.9375 1.9375 C-1.298125 1.298125 -0.65875 0.65875 0 0 Z " fill="#004400" transform="translate(243,18)"/>
<path d="M0 0 C6.8359375 -0.1953125 6.8359375 -0.1953125 9 0 C11 2 11 2 11.1953125 4.1640625 C11.17210937 4.97617187 11.14890625 5.78828125 11.125 6.625 C11.10695313 7.44226562 11.08890625 8.25953125 11.0703125 9.1015625 C11.03550781 10.04128906 11.03550781 10.04128906 11 11 C10.01 11 9.02 11 8 11 C8 8.03 8 5.06 8 2 C6.68 2.33 5.36 2.66 4 3 C3.67 5.64 3.34 8.28 3 11 C2.01 11 1.02 11 0 11 C0 7.37 0 3.74 0 0 Z " fill="#D5E6D5" transform="translate(779,40)"/>
<path d="M0 0 C3.7416279 5.61244186 4.26875287 10.72486371 4.55859375 17.31640625 C4 20 4 20 -1 25 C-0.67 16.75 -0.34 8.5 0 0 Z " fill="#004A00" transform="translate(719,56)"/>
<path d="M0 0 C0 9.57 0 19.14 0 29 C-0.33 29 -0.66 29 -1 29 C-1.04898438 28.05898437 -1.09796875 27.11796875 -1.1484375 26.1484375 C-1.22320312 24.90320313 -1.29796875 23.65796875 -1.375 22.375 C-1.44460937 21.14523438 -1.51421875 19.91546875 -1.5859375 18.6484375 C-2.14420908 13.72932752 -3.25420777 10.11868834 -6 6 C-6 5.01 -6 4.02 -6 3 C-2.66666667 0 -2.66666667 0 0 0 Z " fill="#2C6C2C" transform="translate(201,40)"/>
<path d="M0 0 C2.97 0 5.94 0 9 0 C9.33 1.32 9.66 2.64 10 4 C9.01 5.485 9.01 5.485 8 7 C6.0546875 7.29296875 6.0546875 7.29296875 3.875 7.1875 C2.59625 7.125625 1.3175 7.06375 0 7 C0 4.69 0 2.38 0 0 Z " fill="#016501" transform="translate(478,14)"/>
<path d="M0 0 C0.825 0.515625 1.65 1.03125 2.5 1.5625 C5.77587435 3.44612775 7.41602131 2.93495096 11 2 C11.99 1.67 12.98 1.34 14 1 C12.25 4.875 12.25 4.875 10 6 C4.80706708 6.39191947 2.34573962 5.70140571 -2 3 C-4.08333333 3.16666667 -4.08333333 3.16666667 -6 4 C-7.33333333 4.33333333 -8.66666667 4.66666667 -10 5 C-8.2383215 -0.28503549 -5.06305325 -0.50630533 0 0 Z " fill="#DBE9DB" transform="translate(465,69)"/>
<path d="M0 0 C2.33698908 3.50548362 3.45185838 7.0809881 4.6875 11.0625 C5.04424805 12.16174805 5.04424805 12.16174805 5.40820312 13.28320312 C7.12194293 18.75611413 7.12194293 18.75611413 6 21 C5.34 19.68 4.68 18.36 4 17 C3.34 17 2.68 17 2 17 C-1.54570896 6.32066231 -1.54570896 6.32066231 -1 1 C-0.67 0.67 -0.34 0.34 0 0 Z " fill="#003E00" transform="translate(319,57)"/>
<path d="M0 0 C3.33773709 3.64116773 3.97864902 7.28607242 5 12 C2.36 12 -0.28 12 -3 12 C-2.69106068 10.3743193 -2.3777305 8.74947252 -2.0625 7.125 C-1.88847656 6.22007813 -1.71445312 5.31515625 -1.53515625 4.3828125 C-1 2 -1 2 0 0 Z " fill="#1F591F" transform="translate(392,15)"/>
<path d="M0 0 C-0.3125 2.375 -0.3125 2.375 -1 5 C-4.45662331 7.30441554 -5.94857881 7.25860135 -10 7 C-10.66 6.67 -11.32 6.34 -12 6 C-11.67 4.35 -11.34 2.7 -11 1 C-9.88625 1.020625 -8.7725 1.04125 -7.625 1.0625 C-4.58237918 1.01004102 -2.83730029 0 0 0 Z " fill="#023402" transform="translate(713,81)"/>
<path d="M0 0 C0.99 0.33 1.98 0.66 3 1 C1.23536928 7.10737442 -0.69557475 13.07433507 -3 19 C-3.33 18.01 -3.66 17.02 -4 16 C-4.99 15.67 -5.98 15.34 -7 15 C-6.401875 13.824375 -5.80375 12.64875 -5.1875 11.4375 C-3.30526646 7.67973126 -1.61620564 3.87889353 0 0 Z " fill="#B9B9B9" transform="translate(644,11)"/>
<path d="M0 0 C1.27230469 0.01804688 2.54460937 0.03609375 3.85546875 0.0546875 C5.31919922 0.08949219 5.31919922 0.08949219 6.8125 0.125 C6.8125 0.785 6.8125 1.445 6.8125 2.125 C2.5225 2.785 -1.7675 3.445 -6.1875 4.125 C-6.8475 6.105 -7.5075 8.085 -8.1875 10.125 C-8.8475 8.805 -9.5075 7.485 -10.1875 6.125 C-11.1775 6.62 -11.1775 6.62 -12.1875 7.125 C-9.85278678 0.30045367 -6.90279617 -0.12665681 0 0 Z " fill="#DBE8DB" transform="translate(338.1875,59.875)"/>
<path d="M0 0 C3.46398563 1.20932562 6.88439076 2.52519964 10.29296875 3.8828125 C10.29296875 4.2128125 10.29296875 4.5428125 10.29296875 4.8828125 C2.05978489 5.36711743 2.05978489 5.36711743 -1.08203125 3.3828125 C-5.33859815 0.95048856 -9.91186337 1.65607076 -14.70703125 1.8828125 C-14.70703125 1.2228125 -14.70703125 0.5628125 -14.70703125 -0.1171875 C-9.9455985 -2.49790387 -4.8742604 -1.46895519 0 0 Z " fill="#003300" transform="translate(700.70703125,43.1171875)"/>
<path d="M0 0 C0.33 0 0.66 0 1 0 C1 1.65 1 3.3 1 5 C1.66 5 2.32 5 3 5 C4.42258812 8.82320557 5.24042276 11.91281305 5 16 C4.01 16 3.02 16 2 16 C-1.06475363 10.23826317 -1.19937786 6.37259801 0 0 Z " fill="#003400" transform="translate(106,20)"/>
<path d="M0 0 C0.66 0.33 1.32 0.66 2 1 C1.57316368 2.27445454 1.13302798 3.54445882 0.6875 4.8125 C0.44386719 5.52019531 0.20023437 6.22789063 -0.05078125 6.95703125 C-1.09402255 9.2023613 -2.05447178 10.47409551 -4 12 C-7.1875 12.1875 -7.1875 12.1875 -10 12 C-8.71034824 10.62437146 -7.37310707 9.29233607 -6 8 C-5.34 8 -4.68 8 -4 8 C-3.566875 6.8553125 -3.566875 6.8553125 -3.125 5.6875 C-2 3 -2 3 0 0 Z " fill="#002000" transform="translate(349,69)"/>
<path d="M0 0 C4.29 0 8.58 0 13 0 C7.16058394 4.67153285 7.16058394 4.67153285 3 5 C2.01 4.67 1.02 4.34 0 4 C0 2.68 0 1.36 0 0 Z " fill="#0A5E0A" transform="translate(329,72)"/>
<path d="M0 0 C0.33 0.99 0.66 1.98 1 3 C1.99 2.67 2.98 2.34 4 2 C4.74778098 4.69201151 5.1508614 6.4719851 4.375 9.1875 C3 11 3 11 -2 13 C-1.34 8.71 -0.68 4.42 0 0 Z " fill="#023002" transform="translate(226,30)"/>
<path d="M0 0 C3.3 0 6.6 0 10 0 C9.34 1.32 8.68 2.64 8 4 C4.375 4.75 4.375 4.75 1 5 C0.67 3.35 0.34 1.7 0 0 Z " fill="#003C00" transform="translate(689,89)"/>
<path d="M0 0 C2.97 0.33 5.94 0.66 9 1 C9 1.66 9 2.32 9 3 C10.65 3 12.3 3 14 3 C14.66 4.32 15.32 5.64 16 7 C13.36 6.34 10.72 5.68 8 5 C8 4.34 8 3.68 8 3 C5.03 3 2.06 3 -1 3 C-0.67 2.01 -0.34 1.02 0 0 Z " fill="#002500" transform="translate(178,42)"/>
<path d="M0 0 C0.66 0 1.32 0 2 0 C1.06422018 8.11009174 1.06422018 8.11009174 -1 11 C-3.625 12.75 -3.625 12.75 -6 14 C-4.7023817 8.70139194 -2.84984298 4.65474354 0 0 Z " fill="#004800" transform="translate(224,34)"/>
<path d="M0 0 C1.13643966 3.40931897 0.86747764 4.00335456 -0.4375 7.1875 C-0.72496094 7.90292969 -1.01242187 8.61835938 -1.30859375 9.35546875 C-1.53675781 9.89816406 -1.76492188 10.44085938 -2 11 C-2.66 11 -3.32 11 -4 11 C-4.33 13.31 -4.66 15.62 -5 18 C-5.33 18 -5.66 18 -6 18 C-6.75429531 10.0798993 -4.90453338 6.17445721 0 0 Z " fill="#014001" transform="translate(383,23)"/>
<path d="M0 0 C0.66 0.99 1.32 1.98 2 3 C4.05925139 3.72382467 4.05925139 3.72382467 6 4 C6 4.99 6 5.98 6 7 C5.67 6.67 5.34 6.34 5 6 C3.15108054 5.76636119 1.29511969 5.58696365 -0.5625 5.4375 C-1.57441406 5.35371094 -2.58632813 5.26992188 -3.62890625 5.18359375 C-4.80259766 5.09271484 -4.80259766 5.09271484 -6 5 C-6 3.68 -6 2.36 -6 1 C-3 0 -3 0 0 0 Z " fill="#012401" transform="translate(387,38)"/>
<path d="M0 0 C1.45947705 0.06006078 2.91779272 0.1488689 4.375 0.25 C5.59316406 0.31960937 5.59316406 0.31960937 6.8359375 0.390625 C9 1 9 1 10.2890625 3.046875 C10.64097656 4.01367188 10.64097656 4.01367188 11 5 C10.113125 4.79375 9.22625 4.5875 8.3125 4.375 C4.7747289 3.97449761 3.13367033 4.43316484 0 6 C0 4.02 0 2.04 0 0 Z " fill="#003D00" transform="translate(234,44)"/>
<path d="M0 0 C0.99 0 1.98 0 3 0 C3 3.96 3 7.92 3 12 C2.01 12.33 1.02 12.66 0 13 C0 8.71 0 4.42 0 0 Z " fill="#F8FBF8" transform="translate(131,9)"/>
<path d="M0 0 C-0.66 1.98 -1.32 3.96 -2 6 C-2.78375 5.95875 -3.5675 5.9175 -4.375 5.875 C-7.16116119 5.71271266 -7.16116119 5.71271266 -9 8 C-8.64005447 5.3364031 -8.28838998 3.41816548 -6.75 1.1875 C-4.41988723 -0.39364795 -2.75498245 -0.22337696 0 0 Z " fill="#193619" transform="translate(645,9)"/>
<path d="M0 0 C0.33 0 0.66 0 1 0 C1.08117951 2.41734542 1.14056926 4.83194949 1.1875 7.25 C1.22520508 8.27287109 1.22520508 8.27287109 1.26367188 9.31640625 C1.31137459 12.59199289 1.21085076 14.65348556 -0.51171875 17.484375 C-1.00285156 17.98453125 -1.49398437 18.4846875 -2 19 C-2.66 18.67 -3.32 18.34 -4 18 C-3.67 16.35 -3.34 14.7 -3 13 C-2.01 12.67 -1.02 12.34 0 12 C0 8.04 0 4.08 0 0 Z " fill="#B8D4B8" transform="translate(134,9)"/>
<path d="M0 0 C3.12290635 0.48578543 5.99580359 0.9986012 9 2 C9.33 2.99 9.66 3.98 10 5 C3.375 5.25 3.375 5.25 0 3 C0 2.01 0 1.02 0 0 Z " fill="#001F00" transform="translate(418,26)"/>
<path d="M0 0 C0.66 0 1.32 0 2 0 C0.84826645 2.46800047 -0.04783565 4.04783565 -2 6 C-5.125 6.125 -5.125 6.125 -8 6 C-8 5.34 -8 4.68 -8 4 C-8.66 3.67 -9.32 3.34 -10 3 C-9.04287109 2.80083984 -9.04287109 2.80083984 -8.06640625 2.59765625 C-7.24011719 2.42105469 -6.41382813 2.24445312 -5.5625 2.0625 C-4.73878906 1.88847656 -3.91507813 1.71445312 -3.06640625 1.53515625 C-1.02338796 1.19247006 -1.02338796 1.19247006 0 0 Z " fill="#002D00" transform="translate(243,22)"/>
<path d="M0 0 C0.33 0 0.66 0 1 0 C1.04898438 0.60328125 1.09796875 1.2065625 1.1484375 1.828125 C1.22320313 2.62734375 1.29796875 3.4265625 1.375 4.25 C1.44460938 5.03890625 1.51421875 5.8278125 1.5859375 6.640625 C2.01507113 9.085877 2.78600638 10.84836903 4 13 C2.68 13 1.36 13 0 13 C-2.1519437 9.77208445 -2.20086443 8.71599191 -2 5 C-1.34 5 -0.68 5 0 5 C0 3.35 0 1.7 0 0 Z " fill="#0F320F" transform="translate(672,69)"/>
<path d="M0 0 C-0.66 1.32 -1.32 2.64 -2 4 C-4.31 4 -6.62 4 -9 4 C-9 3.01 -9 2.02 -9 1 C-5.8035914 -0.06546953 -3.34252724 -0.07427838 0 0 Z " fill="#002D00" transform="translate(172,42)"/>
<path d="M0 0 C-1.609375 1.55078125 -1.609375 1.55078125 -4 3 C-7.015625 2.85546875 -7.015625 2.85546875 -10.25 2.1875 C-11.32765625 1.97480469 -12.4053125 1.76210937 -13.515625 1.54296875 C-14.33546875 1.36378906 -15.1553125 1.18460937 -16 1 C-16 0.67 -16 0.34 -16 0 C-14.08416353 -0.1958009 -12.16727461 -0.38132214 -10.25 -0.5625 C-8.64898437 -0.71912109 -8.64898437 -0.71912109 -7.015625 -0.87890625 C-4.35858796 -0.98560074 -2.50039428 -0.81930395 0 0 Z " fill="#004700" transform="translate(186,92)"/>
<path d="M0 0 C1.23556641 0.01740234 1.23556641 0.01740234 2.49609375 0.03515625 C3.32238281 0.04417969 4.14867187 0.05320312 5 0.0625 C5.63808594 0.07410156 6.27617187 0.08570313 6.93359375 0.09765625 C6.93359375 0.42765625 6.93359375 0.75765625 6.93359375 1.09765625 C4.62359375 1.75765625 2.31359375 2.41765625 -0.06640625 3.09765625 C-0.39640625 5.40765625 -0.72640625 7.71765625 -1.06640625 10.09765625 C-2.91704944 6.97469587 -3.35996779 4.71824857 -3.06640625 1.09765625 C-2.06640625 0.09765625 -2.06640625 0.09765625 0 0 Z " fill="#0A2C0A" transform="translate(401.06640625,10.90234375)"/>
<path d="M0 0 C2.41158537 8.95731707 2.41158537 8.95731707 1.0625 12.375 C0.711875 12.91125 0.36125 13.4475 0 14 C-0.85380428 11.03878992 -1.13517764 8.3912356 -1.125 5.3125 C-1.12757813 4.52488281 -1.13015625 3.73726563 -1.1328125 2.92578125 C-1 1 -1 1 0 0 Z " fill="#001E00" transform="translate(312,73)"/>
<path d="M0 0 C-0.3125 2.375 -0.3125 2.375 -1 5 C-4.4352048 7.29013653 -5.985331 7.17842973 -10 7 C-10 6.67 -10 6.34 -10 6 C-8.35 5.67 -6.7 5.34 -5 5 C-4.814375 4.0409375 -4.814375 4.0409375 -4.625 3.0625 C-4.41875 2.381875 -4.2125 1.70125 -4 1 C-2 0 -2 0 0 0 Z " fill="#2C642C" transform="translate(713,81)"/>
<path d="M0 0 C1.65 0.33 3.3 0.66 5 1 C5.33 1.99 5.66 2.98 6 4 C3.36 4 0.72 4 -2 4 C-2 3.34 -2 2.68 -2 2 C-1.34 2 -0.68 2 0 2 C0 1.34 0 0.68 0 0 Z " fill="#012B01" transform="translate(391,23)"/>
<path d="M0 0 C1.32 0.33 2.64 0.66 4 1 C4.66 3.64 5.32 6.28 6 9 C5.01 8.34 4.02 7.68 3 7 C3 6.34 3 5.68 3 5 C2.34 5 1.68 5 1 5 C0.67 3.35 0.34 1.7 0 0 Z " fill="#002D00" transform="translate(320,69)"/>
<path d="M0 0 C0.625 1.875 0.625 1.875 1 4 C-1 6 -1 6 -3.625 6.125 C-4.40875 6.08375 -5.1925 6.0425 -6 6 C-2.25 1.125 -2.25 1.125 0 0 Z " fill="#024902" transform="translate(489,29)"/>
<path d="M0 0 C0.66 0.33 1.32 0.66 2 1 C0.84826645 3.46800047 -0.04783565 5.04783565 -2 7 C-2.99 7 -3.98 7 -5 7 C-3.75023244 3.34683329 -3.32901247 2.21934164 0 0 Z " fill="#D5DDD5" transform="translate(638,7)"/>
<path d="M0 0 C1.32 0 2.64 0 4 0 C2.73058503 3.91402949 1.48832306 5.79072873 -2 8 C-1.34 5.36 -0.68 2.72 0 0 Z " fill="#004300" transform="translate(202,69)"/>
<path d="M0 0 C-0.5625 1.9375 -0.5625 1.9375 -2 4 C-5.625 4.75 -5.625 4.75 -9 5 C-9 4.34 -9 3.68 -9 3 C-2.25 0 -2.25 0 0 0 Z " fill="#E5EFE5" transform="translate(479,70)"/>
<path d="M0 0 C0.33 0.99 0.66 1.98 1 3 C1.99 2.67 2.98 2.34 4 2 C3.67 3.65 3.34 5.3 3 7 C1.68 7 0.36 7 -1 7 C-0.67 4.69 -0.34 2.38 0 0 Z " fill="#BFD8BF" transform="translate(296,38)"/>
<path d="M0 0 C3.63 0 7.26 0 11 0 C11 0.33 11 0.66 11 1 C10.38511719 1.13277344 9.77023437 1.26554687 9.13671875 1.40234375 C7.92435547 1.66724609 7.92435547 1.66724609 6.6875 1.9375 C5.48673828 2.19853516 5.48673828 2.19853516 4.26171875 2.46484375 C1.854599 2.99886159 1.854599 2.99886159 -1 4 C-0.67 2.68 -0.34 1.36 0 0 Z " fill="#004800" transform="translate(497,26)"/>
<path d="M0 0 C0 1.32 0 2.64 0 4 C-2.64 4.33 -5.28 4.66 -8 5 C-3.16129032 0 -3.16129032 0 0 0 Z " fill="#004300" transform="translate(172,38)"/>
<path d="M0 0 C0.99 0.33 1.98 0.66 3 1 C1.25 6.75 1.25 6.75 -1 9 C-1.80967438 6.08517222 -2.21845993 4.53886783 -1.0625 1.6875 C-0.711875 1.130625 -0.36125 0.57375 0 0 Z " fill="#C9CDC9" transform="translate(644,11)"/>
<path d="M0 0 C2.4375 0.375 2.4375 0.375 5 1 C5.33 1.66 5.66 2.32 6 3 C4.35 3 2.7 3 1 3 C0.67 4.32 0.34 5.64 0 7 C0 4.69 0 2.38 0 0 Z " fill="#185D18" transform="translate(177,36)"/>
<path d="M0 0 C0 3.52809907 -0.64276511 4.46815512 -3 7 C-3.99 7 -4.98 7 -6 7 C-6 6.01 -6 5.02 -6 4 C-3 1.8125 -3 1.8125 0 0 Z " fill="#043C04" transform="translate(252,25)"/>
<path d="M0 0 C2.97 0 5.94 0 9 0 C6 3 6 3 3.3125 3.1875 C2.1678125 3.0946875 2.1678125 3.0946875 1 3 C0.67 2.01 0.34 1.02 0 0 Z " fill="#004D00" transform="translate(689,91)"/>
</svg>
