<?xml version="1.0" encoding="UTF-8" standalone="no" ?>
<!DOCTYPE svg PUBLIC "-//W3C//DTD SVG 1.1//EN" "http://www.w3.org/Graphics/SVG/1.1/DTD/svg11.dtd">
<svg xmlns="http://www.w3.org/2000/svg" xmlns:xlink="http://www.w3.org/1999/xlink" version="1.1" viewBox="0 0 640 480" xml:space="preserve">
<g transform="matrix(0.36 0 0 0.36 175.29 175.31)"  >
<path style="stroke: none; stroke-width: 1; stroke-dasharray: none; stroke-linecap: butt; stroke-dashoffset: 0; stroke-linejoin: miter; stroke-miterlimit: 4; fill: rgb(0,0,0); fill-rule: nonzero; opacity: 1;"  transform=" translate(-674.6, -676.52)" d="M 659 191.6 c -1.4 0.2 -10.1 0.8 -19.5 1.3 c -9.3 0.5 -20.4 1.5 -24.5 2.1 c -25.2 3.8 -38.6 6.1 -46.5 8.1 c -2.2 0.6 -5.1 1.2 -6.5 1.5 c -1.4 0.3 -4.7 1.1 -7.5 1.9 c -2.7 0.8 -7.9 2.2 -11.5 3.1 c -10 2.7 -37.5 11.9 -45 15.1 c -1.4 0.6 -4.5 1.9 -7 2.8 c -2.5 1 -7.3 3.1 -10.8 4.7 c -3.4 1.5 -6.5 2.8 -6.8 2.8 c -1.5 0 -32.2 15.9 -40.9 21.2 c -1.6 1 -3.9 2.2 -5 2.7 s -3.7 2.1 -5.8 3.5 c -2.1 1.4 -4 2.6 -4.2 2.6 c -1 0 -22.9 15.2 -36.1 25.1 c -18.1 13.6 -35.8 29.1 -51.4 44.9 c -14.5 14.7 -29.5 32 -41.6 48.1 c -12 15.9 -24.6 34.3 -28.4 41.4 c -0.6 1.1 -1.9 3.3 -2.9 5 c -1.1 1.6 -3.1 5 -4.4 7.5 c -1.4 2.5 -3.4 6.1 -4.5 8 c -6.4 11 -21.2 43.1 -27.4 59.5 c -3 7.9 -11.3 33.4 -13.3 40.5 c -0.9 3.6 -2.3 8.5 -3 11 c -1.2 4.4 -2.9 11.9 -5.9 26.5 c -7.4 36.1 -10.7 79.2 -8.7 116.1 c 1.4 27.2 5.1 57.4 8.7 71.6 c 0.8 3.2 1.4 6.7 1.4 7.9 c 0 1.2 0.6 4.5 1.4 7.3 c 0.8 2.8 2.2 8 3.1 11.6 c 0.9 3.6 2.2 8.5 2.9 11 c 0.8 2.5 2.1 7.2 3.1 10.5 s 2.4 7.5 3.1 9.3 c 0.8 1.8 1.4 3.9 1.4 4.7 c 0 0.8 0.6 2.9 1.4 4.7 c 1.4 3.3 3.6 8.9 6.3 16.3 c 1.5 4 3 7.7 5.8 14 c 0.8 1.9 2.1 5 2.9 6.7 c 6.4 14.6 18.6 38.1 27.3 52.4 c 3.2 5.2 6.3 10.3 6.8 11.2 c 2.8 4.8 21.1 30.9 24.4 34.8 c 1.4 1.7 4 4.8 5.6 6.9 c 15.6 20.2 44.1 49.5 65.5 67.5 c 3.6 3 6.7 5.8 7 6.1 c 3.4 3.8 51.5 37.4 57.2 39.9 c 1.3 0.6 3.7 1.9 5.3 3 c 5.2 3.3 7.1 4.4 15.6 8.8 c 4.6 2.4 9.1 4.7 9.9 5.2 c 1.3 0.8 16.5 7.9 24.5 11.4 c 3.7 1.7 17.6 7.3 23 9.3 c 2.2 0.8 5.1 2 6.5 2.5 c 3.6 1.4 22.6 7.6 28.5 9.2 c 12 3.4 16.4 4.6 22 6 c 11.8 2.9 19.1 4.5 23 5 c 2.2 0.2 6.5 0.9 9.5 1.5 c 22.9 4.3 43.4 6.2 73.9 6.8 c 33.4 0.7 56.5 -1.1 93.6 -7.3 c 5 -0.9 11.3 -2.2 14.1 -3 c 2.8 -0.8 6.2 -1.4 7.6 -1.4 c 1.3 0 4.4 -0.6 6.9 -1.4 c 2.4 -0.7 7.3 -2.1 10.9 -3.1 c 8.4 -2.2 25.5 -7.3 30.3 -9.1 c 2 -0.8 5.5 -2.1 7.7 -2.9 c 2.2 -0.8 5.7 -2.1 7.8 -2.9 c 14.6 -5.4 22.6 -8.7 23.7 -9.7 c 0.5 -0.5 1.5 -0.9 2.3 -0.9 c 1.4 0 27.1 -12.6 35.2 -17.4 c 2.5 -1.4 5.2 -2.9 6 -3.3 c 3.1 -1.4 25.7 -15.2 32 -19.5 c 14.4 -10 29.7 -21.4 38.9 -29.2 c 2.5 -2.1 5.7 -4.7 7.1 -5.9 c 35.5 -29.9 72.1 -72.9 97.8 -115 c 13.2 -21.5 21.2 -37.2 33.5 -65.7 c 4.9 -11.3 11.9 -29.9 13.7 -36.5 c 0.5 -1.7 1.3 -4.4 1.8 -6 c 0.6 -1.7 1.8 -5.7 2.8 -9 c 0.9 -3.3 2.3 -7.8 3 -10 c 0.8 -2.3 1.4 -4.9 1.4 -5.8 c 0 -1 0.6 -3.9 1.4 -6.5 c 4 -13.6 8.4 -39.7 11.7 -69.2 c 2.1 -18.7 2.4 -63.3 0.5 -83 c -2.7 -28.1 -6.7 -52.7 -12.2 -75.5 c -3.3 -13.4 -9.4 -34.5 -12.2 -42 c -6 -16.4 -9.9 -26.7 -11.9 -31.2 c -0.7 -1.8 -2 -4.7 -2.7 -6.5 c -2.9 -6.7 -17.7 -36.5 -21.1 -42.3 c -1.9 -3.3 -3.9 -6.9 -4.5 -8 c -6.7 -12.9 -33.2 -51.3 -44.6 -64.5 c -12.9 -15.1 -18.9 -21.6 -31.4 -34 c -18.9 -19 -40 -37.1 -58.5 -50.2 c -14.8 -10.6 -36.6 -24.8 -38 -24.8 c -0.2 0 -2.3 -1.2 -4.7 -2.8 c -2.4 -1.5 -5.2 -3.2 -6.3 -3.9 c -2.6 -1.5 -34 -17 -38 -18.7 c -1.6 -0.7 -4.6 -2 -6.5 -2.8 c -1.9 -0.9 -5.1 -2.2 -7 -3 c -4.2 -1.8 -11.6 -4.7 -23.7 -9.2 c -8.1 -2.9 -28.7 -9.2 -40.3 -12.1 c -3.6 -0.9 -8.8 -2.3 -11.6 -3.1 c -2.8 -0.8 -5.9 -1.4 -7 -1.4 c -1 0 -4.8 -0.6 -8.4 -1.4 c -11 -2.5 -23.3 -4.6 -26.7 -4.6 c -1.8 0 -7.2 -0.6 -12 -1.4 c -13.9 -2.3 -60.5 -4.3 -70.3 -3 z M 939.3 423 c 5.8 2.6 12 9.6 14.1 16 c 3.4 10.3 1.3 25.2 -4.4 32.2 c -4.4 5.3 -13.9 9.8 -20.9 9.8 c -12.4 0 -23.4 -7.6 -26.5 -18.2 c -2.5 -8.7 -2.1 -18.3 1 -27.3 c 1.5 -4.1 7.7 -10 13.1 -12.6 c 5.5 -2.5 17.7 -2.5 23.6 0.1 z m -99.8 11 c 0.4 0.6 -1 3.4 -3.1 6.3 c -5.8 8 -11.9 17 -12.7 18.7 c -0.4 0.8 -1.6 2.8 -2.7 4.5 c -1.1 1.6 -2.4 3.9 -3 5 c -0.6 1.1 -2.7 4.9 -4.6 8.5 c -8 14.4 -16.9 33.2 -19.4 41 c -0.5 1.4 -1.8 5 -3 8 c -5.3 13.7 -13 40.7 -16.4 57 c -5.2 25.6 -7.3 41.8 -8.6 67.5 c -2.1 42.4 3.3 90 14.5 128.5 c 0.8 2.5 2.1 7.2 3.1 10.5 c 0.9 3.3 2.3 7.5 3 9.3 c 0.8 1.8 1.4 3.9 1.4 4.7 c 0 0.8 0.7 3.1 1.6 5.2 c 0.9 2.1 2.2 5.1 2.9 6.8 c 0.7 1.6 3 7 5 12 c 5.9 14.2 15.2 32.5 23.9 46.8 c 2.2 3.7 4.6 7.6 5.1 8.5 c 2.8 4.8 10.8 16.3 11.6 16.8 c 0.5 0.3 0.9 1.4 0.9 2.5 c 0 1.8 -0.9 1.9 -20.9 1.9 h -20.9 l -5.9 -6.8 c -3.3 -3.7 -8.1 -9.9 -10.8 -13.7 C 770 868.3 767 864 767 863.6 c 0 -0.3 -1.9 -3.7 -4.3 -7.8 c -4 -6.7 -11.9 -22.6 -15.3 -30.6 c -3.4 -7.8 -4.2 -9.9 -5.6 -13.7 c -5.5 -14.6 -11.9 -36.8 -15.2 -52 c -5.7 -26.9 -9.6 -62.7 -9.6 -88.5 c 0 -13 2.1 -44.1 3.6 -53.1 c 0.8 -4.8 1.4 -10 1.4 -11.5 c 0 -1.6 0.7 -6.3 1.5 -10.4 c 0.9 -4.1 2.3 -10.9 3.1 -15 c 1.7 -8.2 3.8 -17.1 5.8 -24 c 4 -13.8 4.9 -16.8 6.2 -19.8 c 0.8 -1.8 1.4 -3.9 1.4 -4.6 c 0 -0.8 1.4 -4.4 3 -8.1 c 1.7 -3.7 3 -7.1 3 -7.6 s 1.8 -4.8 4.1 -9.6 c 5.4 -11.8 5.8 -12.6 10.9 -21.8 c 2.4 -4.4 4.9 -8.9 5.5 -10 c 4.3 -7.9 24.5 -36.3 29 -40.9 c 1.4 -1.4 4.5 -1.6 22.5 -1.6 c 13.2 0 21.1 0.4 21.5 1 z m 222.2 3.7 c 14.7 17.6 31.8 45.4 41.8 67.8 c 1.4 3.3 3.1 6.9 3.7 7.9 c 0.6 1.1 1.4 3.1 1.8 4.5 c 0.5 1.4 1.8 5.1 3 8.1 c 1.1 3 3 8.4 4.1 12 c 1.2 3.6 2.7 8 3.5 9.8 c 0.8 1.8 1.4 4 1.4 4.8 c 0 0.9 0.7 3.7 1.5 6.3 c 2.4 7.8 4.6 17.6 8.5 37.6 c 0.6 3.3 1.6 9.6 2 14 c 0.5 4.4 1.5 10.9 2.1 14.5 c 1.7 8.9 1.7 82 0 91 c -0.6 3.6 -1.6 9.9 -2.1 14 c -1.5 13.1 -6.4 37.1 -10.4 51 c -3.4 11.8 -4.9 16.8 -6.1 20 c -3 8.4 -7.7 20.7 -8.9 23.5 c -3.6 8 -12 24.6 -15.1 30 c -1.9 3.3 -3.8 6.7 -4.2 7.5 c -2.7 5.7 -18.3 27.5 -26.2 36.7 l -4.5 5.3 h -20.7 c -14 0 -21 -0.4 -21.5 -1.1 c -0.3 -0.6 0.4 -2.5 1.7 -4.2 c 6.1 -8.3 16.2 -24.3 22.9 -36.2 c 6.8 -12.1 18.5 -36.9 21 -44.5 c 0.5 -1.4 1.8 -5 3 -8 c 6 -15.6 13.2 -40.9 16.5 -58 c 0.9 -4.7 2.3 -11.3 3.1 -14.7 c 0.8 -3.4 1.4 -7.8 1.4 -9.8 c 0 -1.9 0.7 -7.9 1.6 -13.3 c 1.3 -7.6 1.6 -17.1 1.6 -44.7 s -0.3 -37.1 -1.6 -44.7 c -0.9 -5.4 -1.6 -11.5 -1.6 -13.5 c 0 -2.1 -0.6 -6.7 -1.5 -10.3 c -0.8 -3.6 -2.2 -10.3 -3 -15 c -1.6 -8.2 -3.3 -15.3 -6 -25 c -0.7 -2.5 -2 -7.4 -3 -11 c -0.9 -3.6 -2.2 -7.6 -2.7 -9 c -0.6 -1.4 -1.4 -3.9 -1.8 -5.5 c -0.5 -1.7 -1.8 -5.5 -3 -8.5 s -2.5 -6.6 -2.9 -8 c -0.7 -2.3 -3 -7.5 -7.6 -17.5 c -4.1 -9 -13.6 -27.3 -16.6 -32 c -1 -1.7 -2.3 -3.9 -2.8 -5 s -5.2 -8.4 -10.4 -16.2 c -5.2 -7.8 -9.2 -14.4 -8.9 -14.7 c 0.3 -0.3 10.1 -0.6 21.7 -0.6 h 21.2 l 4 4.7 z m -666.2 88.2 c 11.7 1.8 27.7 7.8 34.2 12.7 c 1.7 1.3 3.5 2.4 4 2.4 c 1.3 0.1 11.6 10 15 14.5 c 1.6 2.2 4.2 6.2 5.7 9 c 5 9 6.3 9.2 11 1.9 c 5.5 -8.7 17.2 -19.9 27.1 -26.1 c 6.2 -3.9 19.7 -9.6 26.5 -11.3 c 1.9 -0.5 5.3 -1.3 7.5 -1.9 c 13.2 -3.4 33.9 -3.9 53.5 -1.3 c 18.6 2.5 38.6 12.9 50.3 26.2 c 6.6 7.6 14.7 24.5 16.6 34.5 c 0.5 2.2 1.3 5.8 1.9 8 c 2.8 10.6 3.3 34.2 3 128 l -0.3 95 h -46 l -0.6 -101.5 c -0.6 -107.4 -0.5 -104.4 -5.2 -118 c -5.3 -15.4 -16.5 -26.4 -32.2 -31.5 c -8.4 -2.8 -37.7 -2.8 -47.5 -0.1 c -20.8 5.8 -33.2 16.2 -41.7 34.6 C 468 623.2 467 635.4 467 738.7 c 0 51.2 -0.3 79.3 -1 79.5 c -0.5 0.1 -10.8 0.1 -22.7 -0.2 l -21.8 -0.5 l -0.6 -100 c -0.6 -96.3 -1 -109.1 -3.8 -114.3 c -0.6 -1.1 -1.1 -2.8 -1.1 -3.7 c 0 -3.6 -6.8 -15.2 -12 -20.4 c -5.2 -5.3 -10.3 -8.4 -21 -12.8 c -6.6 -2.7 -37.6 -2.7 -47 0.1 c -11.3 3.3 -21 8.5 -27.1 14.5 c -5.4 5.5 -12.9 16.8 -12.9 19.6 c 0 0.8 -0.4 1.6 -0.9 1.9 c -0.9 0.6 -3.8 9.6 -6.4 20.1 c -3.9 15.4 -4.1 20.1 -4.7 108.5 l -0.5 86.5 l -22.9 0.3 c -17.7 0.2 -23.1 -0.1 -23.8 -1 c -1 -1.7 -1 -284.9 0 -286.6 c 0.7 -0.9 5.2 -1.2 19.2 -1 l 18.4 0.3 l 1.8 8 c 2.3 10.7 4 20 4.7 25.5 c 0.9 6.4 2.9 6.3 8.2 -0.7 c 12.9 -17.2 26.6 -26.6 50.4 -34.3 c 11.2 -3.7 39.5 -4.8 56 -2.1 z m 554.9 4.7 c 0.8 2 0.8 283.8 0 285.8 c -0.5 1.4 -3.5 1.6 -22.9 1.6 c -12.9 0 -22.6 -0.4 -23 -0.9 c -0.7 -1.2 -0.7 -286 0.1 -287.2 c 0.3 -0.5 10.6 -0.9 22.9 -0.9 c 19.4 0 22.4 0.2 22.9 1.6 z" stroke-linecap="round" />
</g>
</svg>