<?xml version="1.0" encoding="UTF-8"?>
<svg version="1.1" xmlns="http://www.w3.org/2000/svg" width="800" height="100">
<path d="M0 0 C264 0 528 0 800 0 C800 33 800 66 800 100 C536 100 272 100 0 100 C0 67 0 34 0 0 Z " fill="#780C0C" transform="translate(0,0)"/>
<path d="M0 0 C2.6015625 -0.29296875 2.6015625 -0.29296875 5.625 -0.1875 C7.12933594 -0.14689453 7.12933594 -0.14689453 8.6640625 -0.10546875 C9.43492187 -0.07066406 10.20578125 -0.03585938 11 0 C12.60057669 4.80173006 11.80987574 8.24776886 9.734375 12.73828125 C8.68284897 14.78557056 7.62261958 16.82840807 6.5546875 18.8671875 C4.66085074 22.68341133 3.26305809 26.57380318 1.87109375 30.59375 C0.80966613 33.5257653 -0.55436031 36.24014241 -2 39 C-2.68753301 40.65816784 -3.35561283 42.32459336 -4 44 C-4.66 45.65 -5.32 47.3 -6 49 C-11.28 49 -16.56 49 -22 49 C-27 39.5 -27 39.5 -27 35 C-27.66 35 -28.32 35 -29 35 C-30.16182185 31.82435361 -31.00036033 28.99675705 -31.375 25.625 C-32.02142707 21.87572302 -33.18198589 19.42503376 -34.9453125 16.1171875 C-37.39572997 11.19820133 -39 6.50186224 -39 1 C-35.7 1 -32.4 1 -29 1 C-26 6.75 -26 6.75 -26 9 C-25.01 9.33 -24.02 9.66 -23 10 C-21.71875 12.1875 -21.71875 12.1875 -20.5 15 C-20.06945312 15.98742187 -19.63890625 16.97484375 -19.1953125 17.9921875 C-17.84663403 21.38592089 -16.73820625 24.79953302 -15.7734375 28.3203125 C-15.51820313 28.87460938 -15.26296875 29.42890625 -15 30 C-14.01 30.33 -13.02 30.66 -12 31 C-12.061875 30.29875 -12.12375 29.5975 -12.1875 28.875 C-11.9535214 25.28732808 -10.70385653 23.15528987 -9 20 C-6.84620515 15.13055077 -4.8849432 10.20041534 -2.96484375 5.234375 C-2 3 -2 3 0 0 Z " fill="#060000" transform="translate(357,51)"/>
<path d="M0 0 C1.093125 0.00257812 2.18625 0.00515625 3.3125 0.0078125 C4.405625 0.00523438 5.49875 0.00265625 6.625 0 C9.3125 0.1328125 9.3125 0.1328125 10.3125 1.1328125 C10.41187434 2.80492647 10.44330093 4.48118691 10.4453125 6.15625 C10.44724609 7.68765625 10.44724609 7.68765625 10.44921875 9.25 C10.44535156 10.32507813 10.44148438 11.40015625 10.4375 12.5078125 C10.44330078 14.10882812 10.44330078 14.10882812 10.44921875 15.7421875 C10.44792969 16.76570313 10.44664062 17.78921875 10.4453125 18.84375 C10.44418457 19.78524902 10.44305664 20.72674805 10.44189453 21.69677734 C10.3125 24.1328125 10.3125 24.1328125 9.3125 27.1328125 C16.5725 27.1328125 23.8325 27.1328125 31.3125 27.1328125 C31.3125 29.7728125 31.3125 32.4128125 31.3125 35.1328125 C21.4125 35.6278125 21.4125 35.6278125 11.3125 36.1328125 C10.9825 37.4528125 10.6525 38.7728125 10.3125 40.1328125 C8.35102126 41.52219327 6.35083424 42.8588536 4.3125 44.1328125 C1.93344325 48.890926 2.97818714 56.12913927 4.3125 61.1328125 C2.0025 61.1328125 -0.3075 61.1328125 -2.6875 61.1328125 C-2.6875 51.5628125 -2.6875 41.9928125 -2.6875 32.1328125 C-4.3375 32.1328125 -5.9875 32.1328125 -7.6875 32.1328125 C-7.6875 33.1228125 -7.6875 34.1128125 -7.6875 35.1328125 C-13.9575 35.1328125 -20.2275 35.1328125 -26.6875 35.1328125 C-26.6875 32.1628125 -26.6875 29.1928125 -26.6875 26.1328125 C-19.0975 26.1328125 -11.5075 26.1328125 -3.6875 26.1328125 C-3.69910156 24.33972656 -3.71070313 22.54664062 -3.72265625 20.69921875 C-3.73203229 18.36458437 -3.74113269 16.02994887 -3.75 13.6953125 C-3.75837891 12.51130859 -3.76675781 11.32730469 -3.77539062 10.10742188 C-3.78022461 8.42036133 -3.78022461 8.42036133 -3.78515625 6.69921875 C-3.79039307 5.65709229 -3.79562988 4.61496582 -3.80102539 3.54125977 C-3.64006017 0.12637397 -3.43777218 0.1698899 0 0 Z " fill="#050000" transform="translate(208.6875,11.8671875)"/>
<path d="M0 0 C9.9 0 19.8 0 30 0 C30 10 30 10 27.625 12.4375 C23.93776591 14.02682504 20.30514785 15.15739217 16.44140625 16.22265625 C13.61086299 17.12390122 11.35813636 18.40598292 8.84765625 19.9609375 C5.8230363 21.66188657 2.58752332 22.81173457 -0.64453125 24.05859375 C-3.1842133 25.03568499 -3.1842133 25.03568499 -6.25 26.625 C-9.11180541 28.0559027 -11.96804356 28.98934785 -15 30 C-15.99 30.53625 -16.98 31.0725 -18 31.625 C-21.273095 33.12516854 -23.44439305 33.25397192 -27 33 C-27 29.7 -27 26.4 -27 23 C-25.23244474 22.15973604 -23.46082737 21.32801278 -21.6875 20.5 C-20.70136719 20.0359375 -19.71523438 19.571875 -18.69921875 19.09375 C-16 18 -16 18 -13 18 C-12.67 17.01 -12.34 16.02 -12 15 C-9.5402989 13.84646476 -7.16860431 12.86180231 -4.625 11.9375 C0.88560544 9.88952156 0.88560544 9.88952156 6 7 C8.6875 6.875 8.6875 6.875 11 7 C11 6.01 11 5.02 11 4 C10.113125 3.87625 9.22625 3.7525 8.3125 3.625 C5.29612498 3.05587264 2.79673946 2.23385564 0 1 C0 0.67 0 0.34 0 0 Z " fill="#060000" transform="translate(437,0)"/>
<path d="M0 0 C1.98 0 3.96 0 6 0 C10.04080186 7.33330709 12.45552074 15.05499332 15 23 C15.66 24.98 16.32 26.96 17 29 C7.76 29 -1.48 29 -11 29 C-7.6136725 17.71224165 -7.6136725 17.71224165 -6.0625 13.9375 C-5.72863281 13.12410156 -5.39476562 12.31070312 -5.05078125 11.47265625 C-3.41618831 7.62619778 -1.72802683 3.80533568 0 0 Z " fill="#F3E9E9" transform="translate(764,18)"/>
<path d="M0 0 C0.11614929 4.0830942 0.18723457 8.16576377 0.25 12.25 C0.30027344 13.98830078 0.30027344 13.98830078 0.3515625 15.76171875 C0.36445313 16.87675781 0.37734375 17.99179688 0.390625 19.140625 C0.41157227 20.16704102 0.43251953 21.19345703 0.45410156 22.25097656 C-0.1172714 25.70993333 -1.31237459 26.82965814 -4 29 C-6.64458379 30.32229189 -8.67761301 30.09677194 -11.625 30.0625 C-12.62789062 30.05347656 -13.63078125 30.04445313 -14.6640625 30.03515625 C-15.43492187 30.02355469 -16.20578125 30.01195313 -17 30 C-17.33 28.35 -17.66 26.7 -18 25 C-17.38511719 25.08378906 -16.77023438 25.16757813 -16.13671875 25.25390625 C-15.32847656 25.35574219 -14.52023438 25.45757812 -13.6875 25.5625 C-12.88699219 25.66691406 -12.08648437 25.77132812 -11.26171875 25.87890625 C-8.83182884 26.14755178 -8.83182884 26.14755178 -6 25 C-5.26676204 22.98491642 -5.26676204 22.98491642 -5 21 C-5.66 21.33 -6.32 21.66 -7 22 C-14.24087591 22.58394161 -14.24087591 22.58394161 -17.4375 20.125 C-20.87725272 15.4469363 -20.61142386 10.64955646 -20 5 C-15.18886234 -3.01856277 -8.17577075 -1.40638899 0 0 Z " fill="#F5ECEC" transform="translate(255,53)"/>
<path d="M0 0 C6.59010821 9.88516231 5.07543372 26.64213195 3 38 C2.3974699 40.02024799 1.75679435 42.03233469 1 44 C-2.63 44 -6.26 44 -10 44 C-9.79503906 43.23300781 -9.59007812 42.46601562 -9.37890625 41.67578125 C-6.74396777 30.82084329 -6.2883578 20.12965506 -6 9 C-4.02 9 -2.04 9 0 9 C0 8.01 0 7.02 0 6 C-3.3 6 -6.6 6 -10 6 C-9.67 4.35 -9.34 2.7 -9 1 C-4.545 0.505 -4.545 0.505 0 0 Z " fill="#030000" transform="translate(51,56)"/>
<path d="M0 0 C3.8709903 1.68303926 5.41045369 3.15454736 7 7 C7.65528607 10.79376145 7.86351149 14.4527415 5.94921875 17.8828125 C4.18131514 20.04184522 2.50974598 21.74512701 0 23 C-7.06187625 23.57884232 -7.06187625 23.57884232 -10.9375 21.1875 C-14.52989849 17.37738039 -14.32936818 13.43594119 -14.29296875 8.44921875 C-13.88206478 5.01406155 -12.52072694 3.29830986 -10 1 C-6.80621918 -0.59689041 -3.47478685 -0.37348957 0 0 Z " fill="#F0EAEA" transform="translate(225,52)"/>
<path d="M0 0 C0.99261337 0.00222061 1.98522675 0.00444122 3.00791931 0.00672913 C4.12900589 0.00680466 5.25009247 0.00688019 6.40515137 0.00695801 C8.2348069 0.01469994 8.2348069 0.01469994 10.10142517 0.02259827 C11.96377052 0.02472069 11.96377052 0.02472069 13.86373901 0.02688599 C17.16982383 0.03154861 20.47584039 0.04053955 23.78190613 0.05158997 C27.15338042 0.06180625 30.52486175 0.06638407 33.89634705 0.07142639 C40.51550667 0.08248056 47.13463385 0.09923715 53.75376892 0.12025452 C53.75376892 2.43025452 53.75376892 4.74025452 53.75376892 7.12025452 C46.46955344 7.14338367 39.18534582 7.16117253 31.90110111 7.17206669 C28.51905079 7.17729427 25.13702552 7.18438962 21.75498962 7.19569397 C17.87047115 7.20859718 13.98596295 7.21348375 10.10142517 7.21791077 C8.88165482 7.22307205 7.66188446 7.22823334 6.40515137 7.23355103 C4.7235215 7.23366432 4.7235215 7.23366432 3.00791931 7.23377991 C2.01530594 7.23600052 1.02269257 7.23822113 0 7.24050903 C-2.24623108 7.12025452 -2.24623108 7.12025452 -3.24623108 6.12025452 C-3.37123108 3.62025452 -3.37123108 3.62025452 -3.24623108 1.12025452 C-2.24623108 0.12025452 -2.24623108 0.12025452 0 0 Z " fill="#080101" transform="translate(655.2462310791016,48.87974548339844)"/>
<path d="M0 0 C1.89510699 -0.08160748 3.79124504 -0.13946459 5.6875 -0.1875 C6.74324219 -0.22230469 7.79898437 -0.25710937 8.88671875 -0.29296875 C12.63814958 0.06005172 14.30818906 0.30818906 17 3 C17.62369406 6.41128072 17.46824924 9.73465908 17.3125 13.1875 C17.28994141 14.12787109 17.26738281 15.06824219 17.24414062 16.03710938 C17.18519227 18.35967473 17.10297785 20.67903776 17 23 C16.236875 22.814375 15.47375 22.62875 14.6875 22.4375 C11.91032625 21.77180827 11.91032625 21.77180827 9 23 C5.14689752 23.35028204 2.86452877 23.55418511 -0.4375 21.4375 C-2.63685634 18.00650412 -2.71290915 15.99229125 -2 12 C1.42728407 8.57271593 4.17271232 7.77228572 8.875 7.75 C10.25105487 7.81358009 11.62686409 7.89014913 13 8 C12.67 7.01 12.34 6.02 12 5 C7.66726186 4.07155611 4.33273814 4.07155611 0 5 C0 3.35 0 1.7 0 0 Z " fill="#F4EBEB" transform="translate(280,52)"/>
<path d="M0 0 C4.057041 0.53039297 5.94844566 2.57643552 8.75 5.4375 C9.54921875 6.24058594 10.3484375 7.04367188 11.171875 7.87109375 C13 10 13 10 13 12 C13.556875 12.226875 14.11375 12.45375 14.6875 12.6875 C17.71572375 14.40622159 19.77323664 16.32788397 22 19 C22 21.0625 22 21.0625 21 23 C20.64292969 23.69480469 20.28585937 24.38960937 19.91796875 25.10546875 C18 27 18 27 14.42578125 27.390625 C13.05414252 27.3641199 11.68278062 27.3165309 10.3125 27.25 C9.2596582 27.22292969 9.2596582 27.22292969 8.18554688 27.1953125 C6.45644564 27.14826213 4.72804795 27.07651873 3 27 C3.99 25.88625 3.99 25.88625 5 24.75 C7.39211447 22.02757055 7.39211447 22.02757055 7 18 C5.5833253 16.2488427 5.5833253 16.2488427 4 15 C4.66 14.67 5.32 14.34 6 14 C6 13.01 6 12.02 6 11 C4.741875 11.103125 3.48375 11.20625 2.1875 11.3125 C-0.01953125 11.33203125 -0.01953125 11.33203125 -2 11 C-4 8.5 -4 8.5 -5 6 C-3.35 4.02 -1.7 2.04 0 0 Z " fill="#090202" transform="translate(515,73)"/>
<path d="M0 0 C3.0625 2.0625 3.0625 2.0625 5 5 C5 7.31 5 9.62 5 12 C-0.28 12 -5.56 12 -11 12 C-8.83261678 18.05412805 -8.83261678 18.05412805 -5.25 19 C-1.51302944 19 1.47443638 18.19869163 5 17 C4.67 18.65 4.34 20.3 4 22 C-0.33622854 23.44540951 -4.46837187 23.5348333 -9 23 C-12.55680172 20.89495409 -13.69468936 19.91593192 -15 16 C-15.51005145 11.06671551 -15.76029306 7.241812 -13.125 2.9375 C-9.15383604 -0.68326714 -5.19359257 -0.77903888 0 0 Z " fill="#F5EDED" transform="translate(713,61)"/>
<path d="M0 0 C7.26 0 14.52 0 22 0 C22 0.99 22 1.98 22 3 C17.05 3.33 12.1 3.66 7 4 C10.63 7.63 14.26 11.26 18 15 C14.13834542 19.59720783 10.27917083 23.72082917 6 28 C11.61 28.33 17.22 28.66 23 29 C23 29.99 23 30.98 23 32 C15.08 32 7.16 32 -1 32 C0.15967535 27.36129859 2.36273923 25.08957553 5.5625 21.75 C6.08263672 21.19570312 6.60277344 20.64140625 7.13867188 20.0703125 C8.41930985 18.70743172 9.7088049 17.35288317 11 16 C8.15699146 12.60988329 5.3622705 9.33864416 2.125 6.3125 C0 4 0 4 0 0 Z " fill="#F4F3F3" transform="translate(498,55)"/>
<path d="M0 0 C1.093125 0.00257812 2.18625 0.00515625 3.3125 0.0078125 C4.405625 0.00523438 5.49875 0.00265625 6.625 0 C9.3125 0.1328125 9.3125 0.1328125 10.3125 1.1328125 C10.41187434 2.80492647 10.44330093 4.48118691 10.4453125 6.15625 C10.44724609 7.68765625 10.44724609 7.68765625 10.44921875 9.25 C10.44535156 10.32507813 10.44148438 11.40015625 10.4375 12.5078125 C10.44330078 14.10882812 10.44330078 14.10882812 10.44921875 15.7421875 C10.44792969 16.76570313 10.44664062 17.78921875 10.4453125 18.84375 C10.44418457 19.78524902 10.44305664 20.72674805 10.44189453 21.69677734 C10.3125 24.1328125 10.3125 24.1328125 9.3125 27.1328125 C16.5725 27.1328125 23.8325 27.1328125 31.3125 27.1328125 C31.3125 29.7728125 31.3125 32.4128125 31.3125 35.1328125 C21.4125 35.6278125 21.4125 35.6278125 11.3125 36.1328125 C10.9825 37.4528125 10.6525 38.7728125 10.3125 40.1328125 C9.3225 40.4628125 8.3325 40.7928125 7.3125 41.1328125 C7.26995644 39.13326504 7.27169217 37.13239614 7.3125 35.1328125 C8.3125 34.1328125 8.3125 34.1328125 10.44555664 34.01928711 C11.36199951 34.02452393 12.27844238 34.02976074 13.22265625 34.03515625 C14.70668945 34.03999023 14.70668945 34.03999023 16.22070312 34.04492188 C17.26162109 34.05330078 18.30253906 34.06167969 19.375 34.0703125 C20.94217773 34.07708008 20.94217773 34.07708008 22.54101562 34.08398438 C25.1315666 34.09581337 27.72200559 34.11229561 30.3125 34.1328125 C30.3125 32.1528125 30.3125 30.1728125 30.3125 28.1328125 C22.7225 28.1328125 15.1325 28.1328125 7.3125 28.1328125 C7.3125 19.2228125 7.3125 10.3128125 7.3125 1.1328125 C4.3425 1.1328125 1.3725 1.1328125 -1.6875 1.1328125 C-1.67964478 2.30638306 -1.67964478 2.30638306 -1.67163086 3.50366211 C-1.65092894 7.02587083 -1.63786162 10.5480668 -1.625 14.0703125 C-1.61662109 15.30201172 -1.60824219 16.53371094 -1.59960938 17.80273438 C-1.59477539 19.5574707 -1.59477539 19.5574707 -1.58984375 21.34765625 C-1.58198853 22.97368774 -1.58198853 22.97368774 -1.57397461 24.63256836 C-1.6875 27.1328125 -1.6875 27.1328125 -2.6875 28.1328125 C-4.39522358 28.21995081 -6.10648649 28.23981257 -7.81640625 28.23046875 C-9.36811523 28.22563477 -9.36811523 28.22563477 -10.95117188 28.22070312 C-12.03978516 28.21232422 -13.12839844 28.20394531 -14.25 28.1953125 C-15.8887207 28.18854492 -15.8887207 28.18854492 -17.56054688 28.18164062 C-20.26958495 28.16981076 -22.97851599 28.15332793 -25.6875 28.1328125 C-25.6875 30.1128125 -25.6875 32.0928125 -25.6875 34.1328125 C-19.7475 34.1328125 -13.8075 34.1328125 -7.6875 34.1328125 C-7.6875 34.4628125 -7.6875 34.7928125 -7.6875 35.1328125 C-13.9575 35.1328125 -20.2275 35.1328125 -26.6875 35.1328125 C-26.6875 32.1628125 -26.6875 29.1928125 -26.6875 26.1328125 C-19.0975 26.1328125 -11.5075 26.1328125 -3.6875 26.1328125 C-3.69910156 24.33972656 -3.71070313 22.54664062 -3.72265625 20.69921875 C-3.73203229 18.36458437 -3.74113269 16.02994887 -3.75 13.6953125 C-3.75837891 12.51130859 -3.76675781 11.32730469 -3.77539062 10.10742188 C-3.78022461 8.42036133 -3.78022461 8.42036133 -3.78515625 6.69921875 C-3.79039307 5.65709229 -3.79562988 4.61496582 -3.80102539 3.54125977 C-3.64006017 0.12637397 -3.43777218 0.1698899 0 0 Z " fill="#450606" transform="translate(208.6875,11.8671875)"/>
<path d="M0 0 C8.91 0 17.82 0 27 0 C27 2.31 27 4.62 27 7 C21.37670921 7.12365152 15.75421047 7.2143631 10.12988281 7.2746582 C8.21698217 7.29979381 6.30417749 7.33390784 4.39160156 7.37719727 C1.64103527 7.43789252 -1.10826099 7.46621845 -3.859375 7.48828125 C-5.14083405 7.52699089 -5.14083405 7.52699089 -6.44818115 7.56648254 C-7.64897308 7.56704903 -7.64897308 7.56704903 -8.87402344 7.56762695 C-9.57573669 7.57873001 -10.27744995 7.58983307 -11.00042725 7.60127258 C-13 7 -13 7 -17 2 C-11.39 2 -5.78 2 0 2 C0 1.34 0 0.68 0 0 Z " fill="#060000" transform="translate(521,56)"/>
<path d="M0 0 C4.62 0 9.24 0 14 0 C13.67 5.94 13.34 11.88 13 18 C3.72265625 18.09765625 3.72265625 18.09765625 1 18 C0 17 0 17 -0.09765625 13.18359375 C-0.09098089 11.60153318 -0.07901875 10.01948841 -0.0625 8.4375 C-0.05798828 7.63119141 -0.05347656 6.82488281 -0.04882812 5.99414062 C-0.03700518 3.99606244 -0.01906914 1.99802217 0 0 Z " fill="#160202" transform="translate(776,0)"/>
<path d="M0 0 C1.65 0 3.3 0 5 0 C5.83790789 1.78953185 6.67019396 3.58169695 7.5 5.375 C7.9640625 6.37273438 8.428125 7.37046875 8.90625 8.3984375 C10 11 10 11 10 13 C10.66 13 11.32 13 12 13 C12.19335938 12.39671875 12.38671875 11.7934375 12.5859375 11.171875 C12.84632813 10.37265625 13.10671875 9.5734375 13.375 8.75 C13.63023437 7.96109375 13.88546875 7.1721875 14.1484375 6.359375 C14.95173667 4.13372042 15.89711662 2.09068328 17 0 C18.32 0 19.64 0 21 0 C19.91546385 6.11284014 18.20803918 10.88742458 15.30859375 16.359375 C13.13177083 20.75200871 11.57735708 25.36486133 10 30 C8.35 30 6.7 30 5 30 C5.2165625 28.9790625 5.2165625 28.9790625 5.4375 27.9375 C5.623125 26.968125 5.80875 25.99875 6 25 C6.4021875 23.3603125 6.4021875 23.3603125 6.8125 21.6875 C7.02815625 17.44626032 6.15201096 15.78167909 4.125 12.19921875 C2.151943 8.34216634 1.12742899 4.16807083 0 0 Z " fill="#EFE2E2" transform="translate(424,53)"/>
<path d="M0 0 C4.18069103 -0.68981402 7.84098634 -0.90723582 12 0 C18.71718881 5.87754021 23.01057926 15.36630029 25 24 C22.36 24 19.72 24 17 24 C17.99 20.535 17.99 20.535 19 17 C17.02 17.66 15.04 18.32 13 19 C11.84735447 17.25447936 10.70312673 15.50339804 9.5625 13.75 C8.92441406 12.77546875 8.28632812 11.8009375 7.62890625 10.796875 C6 8 6 8 5.4375 5.71875 C5.293125 5.1515625 5.14875 4.584375 5 4 C2.50965614 2.70339566 2.50965614 2.70339566 0 2 C0 1.34 0 0.68 0 0 Z " fill="#090202" transform="translate(26,30)"/>
<path d="M0 0 C1.32 0 2.64 0 4 0 C3.67 1.98 3.34 3.96 3 6 C5.31 6.33 7.62 6.66 10 7 C10 7.99 10 8.98 10 10 C7.03 10 4.06 10 1 10 C0.67 11.65 0.34 13.3 0 15 C3.3 15 6.6 15 10 15 C10 15.99 10 16.98 10 18 C6.37 18 2.74 18 -1 18 C-1.66 20.31 -2.32 22.62 -3 25 C-4.32 25 -5.64 25 -7 25 C-6.67 22.69 -6.34 20.38 -6 18 C-8.64 18 -11.28 18 -14 18 C-14 17.01 -14 16.02 -14 15 C-10.7 15 -7.4 15 -4 15 C-4 13.68 -4 12.36 -4 11 C-7.3 10.67 -10.6 10.34 -14 10 C-14 9.01 -14 8.02 -14 7 C-10.04 7 -6.08 7 -2 7 C-1.34 4.69 -0.68 2.38 0 0 Z " fill="#F8F5F5" transform="translate(41,47)"/>
<path d="M0 0 C2.6875 -0.375 2.6875 -0.375 6 0 C8.06398076 1.823983 9.39041053 3.72763839 11 6 C11.804375 5.195625 12.60875 4.39125 13.4375 3.5625 C17 0 17 0 19.5625 -0.0625 C20.7690625 -0.0315625 20.7690625 -0.0315625 22 0 C21.3503125 0.90492187 21.3503125 0.90492187 20.6875 1.828125 C20.130625 2.62734375 19.57375 3.4265625 19 4.25 C18.443125 5.03890625 17.88625 5.8278125 17.3125 6.640625 C15.67591051 9.13261083 15.67591051 9.13261083 16 13 C17.29009392 15.41795268 17.29009392 15.41795268 19 17.75 C19.556875 18.54921875 20.11375 19.3484375 20.6875 20.171875 C21.120625 20.77515625 21.55375 21.3784375 22 22 C19.25 22.375 19.25 22.375 16 22 C13.625 19 13.625 19 12 16 C8.78504624 16.68264644 8.78504624 16.68264644 7.6875 19.5625 C7.130625 20.366875 6.57375 21.17125 6 22 C2.8125 22.3125 2.8125 22.3125 0 22 C0.42152344 21.46890625 0.84304688 20.9378125 1.27734375 20.390625 C1.82519531 19.68421875 2.37304688 18.9778125 2.9375 18.25 C3.75541016 17.20585938 3.75541016 17.20585938 4.58984375 16.140625 C6.04683863 13.9288987 6.87754554 12.64807779 7 10 C5.58964798 7.58338479 5.58964798 7.58338479 3.5625 5.3125 C0 1.05283757 0 1.05283757 0 0 Z " fill="#EEE6E6" transform="translate(645,17)"/>
<path d="M0 0 C2.75 -0.3125 2.75 -0.3125 6 0 C10 4 10 4 10 7 C13.42578949 3.82460444 13.42578949 3.82460444 16 0 C17.98 0 19.96 0 22 0 C21.57847656 0.53109375 21.15695313 1.0621875 20.72265625 1.609375 C20.17480469 2.31578125 19.62695312 3.0221875 19.0625 3.75 C18.24458984 4.79414063 18.24458984 4.79414063 17.41015625 5.859375 C15.95316137 8.0711013 15.12245446 9.35192221 15 12 C16.41035202 14.41661521 16.41035202 14.41661521 18.4375 16.6875 C22 20.94716243 22 20.94716243 22 22 C19.3125 22.375 19.3125 22.375 16 22 C13.93601924 20.176017 12.60958947 18.27236161 11 16 C10.195625 16.804375 9.39125 17.60875 8.5625 18.4375 C5 22 5 22 2.4375 22.0625 C1.633125 22.041875 0.82875 22.02125 0 22 C0.433125 21.39671875 0.86625 20.7934375 1.3125 20.171875 C1.869375 19.37265625 2.42625 18.5734375 3 17.75 C3.556875 16.96109375 4.11375 16.1721875 4.6875 15.359375 C6.32408949 12.86738917 6.32408949 12.86738917 6 9 C4.70990608 6.58204732 4.70990608 6.58204732 3 4.25 C2.1646875 3.05117188 2.1646875 3.05117188 1.3125 1.828125 C0.879375 1.22484375 0.44625 0.6215625 0 0 Z " fill="#F0E6E6" transform="translate(8,17)"/>
<path d="M0 0 C8.58 0 17.16 0 26 0 C26 2.64 26 5.28 26 8 C17.09 8 8.18 8 -1 8 C-0.67 5.36 -0.34 2.72 0 0 Z " fill="#0F0202" transform="translate(683,29)"/>
<path d="M0 0 C0.9075 0.12375 1.815 0.2475 2.75 0.375 C2.151875 1.15875 1.55375 1.9425 0.9375 2.75 C-3.06728761 8.77855928 -5.03396647 16.18864068 -4.25 23.375 C-2.7992902 29.25142591 -0.41692806 34.24239245 2.75 39.375 C0.125 40 0.125 40 -3.25 39.375 C-9.1992422 32.19488011 -11.08224678 24.51485305 -10.25 15.375 C-8.90030209 9.35098065 -6.8754873 0.79332546 0 0 Z " fill="#EBDADA" transform="translate(271.25,43.625)"/>
<path d="M0 0 C1.11375 0.1546875 1.11375 0.1546875 2.25 0.3125 C1.16865204 2.55837654 0.03496541 4.64795396 -1.3125 6.75 C-4.46004602 12.3608429 -4.37070446 19.0383522 -3.75 25.3125 C-2.25745853 30.60289452 -0.1718632 35.00820789 3.25 39.3125 C0.5625 39.8125 0.5625 39.8125 -2.75 39.3125 C-8.71581446 32.66764975 -10.15054416 25.19460562 -10.00390625 16.54296875 C-9.5124022 10.2895249 -7.23042395 0.82163909 0 0 Z " fill="#ECDCDC" transform="translate(638.75,7.6875)"/>
<path d="M0 0 C0 1.32 0 2.64 0 4 C-2.31 4 -4.62 4 -7 4 C-7.33 5.65 -7.66 7.3 -8 9 C-6.02 9 -4.04 9 -2 9 C-2 9.99 -2 10.98 -2 12 C-3.98 12 -5.96 12 -8 12 C-8 18.27 -8 24.54 -8 31 C-9.65 31 -11.3 31 -13 31 C-13 24.73 -13 18.46 -13 12 C-13.66 12 -14.32 12 -15 12 C-15 11.01 -15 10.02 -15 9 C-14.34 9 -13.68 9 -13 9 C-13.0825 8.2575 -13.165 7.515 -13.25 6.75 C-13 4 -13 4 -11.5625 1.6875 C-7.80766223 -0.78519805 -4.37248747 -0.33634519 0 0 Z " fill="#F2E6E6" transform="translate(628,8)"/>
<path d="M0 0 C2.6015625 -0.29296875 2.6015625 -0.29296875 5.625 -0.1875 C7.12933594 -0.14689453 7.12933594 -0.14689453 8.6640625 -0.10546875 C9.43492187 -0.07066406 10.20578125 -0.03585938 11 0 C12.60057669 4.80173006 11.80987574 8.24776886 9.734375 12.73828125 C8.68284897 14.78557056 7.62261958 16.82840807 6.5546875 18.8671875 C4.66323387 22.67860913 3.26843031 26.56585571 1.87109375 30.578125 C-0.97345133 38.48672566 -0.97345133 38.48672566 -4 40 C-3.33333333 36.66666667 -2.66666667 33.33333333 -2 30 C-1.34 30 -0.68 30 0 30 C0.09796875 29.45472656 0.1959375 28.90945312 0.296875 28.34765625 C1.28781076 23.35026469 2.747395 19.02010084 4.9140625 14.41796875 C6.87620519 10.04902513 8.41307903 5.51597191 10 1 C7.03 1 4.06 1 1 1 C0.88527344 1.72445312 0.77054687 2.44890625 0.65234375 3.1953125 C-0.02217996 6.09536054 -1.03005768 8.26058193 -2.4375 10.875 C-4.50464247 14.87383116 -5.78174317 18.65996005 -7 23 C-8.58161119 26.70721605 -10.27442429 30.35784975 -12 34 C-13.32 34 -14.64 34 -16 34 C-17.42944945 31.64561267 -18.08661261 30.51967567 -17.625 27.75 C-17.41875 27.1725 -17.2125 26.595 -17 26 C-16.731875 26.639375 -16.46375 27.27875 -16.1875 27.9375 C-15.11332248 30.33131686 -15.11332248 30.33131686 -12 31 C-12.0928125 29.948125 -12.0928125 29.948125 -12.1875 28.875 C-11.9535214 25.28732808 -10.70385653 23.15528987 -9 20 C-6.84620515 15.13055077 -4.8849432 10.20041534 -2.96484375 5.234375 C-2 3 -2 3 0 0 Z " fill="#3C0404" transform="translate(357,51)"/>
<path d="M0 0 C2.296875 -0.26953125 2.296875 -0.26953125 5 0 C6.765625 1.86328125 6.765625 1.86328125 8.25 4.3125 C8.75015625 5.11300781 9.2503125 5.91351563 9.765625 6.73828125 C11.92952396 10.70314676 12.16179749 13.85568504 12.1875 18.3125 C12.20167969 19.42238281 12.21585938 20.53226563 12.23046875 21.67578125 C11.87755267 26.76614715 10.26068266 30.9997513 7.6875 35.375 C7.29949219 36.06335937 6.91148437 36.75171875 6.51171875 37.4609375 C5 39 5 39 2.33203125 39.2265625 C1.56246094 39.15179688 0.79289063 39.07703125 0 39 C0.5053125 38.10539062 1.010625 37.21078125 1.53125 36.2890625 C7.03974681 26.23821299 7.03974681 26.23821299 7 15 C5.36181617 9.63652312 3.1169711 4.67545665 0 0 Z " fill="#EDE4E4" transform="translate(671,8)"/>
<path d="M0 0 C2.296875 -0.23828125 2.296875 -0.23828125 5 0 C6.765625 1.64453125 6.765625 1.64453125 8.25 3.8125 C9.00023437 4.87404297 9.00023437 4.87404297 9.765625 5.95703125 C13.47511948 12.09647939 12.83607516 21.0221167 12 28 C10.46918111 32.46108042 8.31336796 35.68663204 5 39 C2.375 39.125 2.375 39.125 0 39 C0.42152344 38.32453125 0.84304688 37.6490625 1.27734375 36.953125 C1.82519531 36.06109375 2.37304688 35.1690625 2.9375 34.25 C3.48277344 33.36828125 4.02804687 32.4865625 4.58984375 31.578125 C7.85983734 25.59974336 7.99919032 18.29798776 6.46875 11.71484375 C4.92530141 7.36131213 2.70332852 3.728729 0 0 Z " fill="#F0E6E6" transform="translate(303,44)"/>
<path d="M0 0 C0.66 0 1.32 0 2 0 C4.33333333 7 6.66666667 14 9 21 C3.72 21 -1.56 21 -7 21 C-4.85761818 13.90797742 -2.7047418 6.89709158 0 0 Z " fill="#8B2A2A" transform="translate(766,23)"/>
<path d="M0 0 C0.66 0.33 1.32 0.66 2 1 C2 5.62 2 10.24 2 15 C-3.7480315 17.2992126 -3.7480315 17.2992126 -8 16 C-9.80271782 14.19728218 -9.21502284 11.55591251 -9.25 9.125 C-9.27578125 8.05507813 -9.3015625 6.98515625 -9.328125 5.8828125 C-9 3 -9 3 -7.67578125 1.1328125 C-5.12919626 -0.58865521 -2.99038319 -0.2545007 0 0 Z " fill="#964343" transform="translate(249,55)"/>
<path d="M0 0 C2.875 1 2.875 1 4.25 2.5625 C5.1579673 6.10357245 5.47518479 9.37666221 4.875 13 C3.1875 15.5625 3.1875 15.5625 0.875 17 C-1.98821168 16.93016557 -3.50095845 16.49203276 -5.75 14.71875 C-7.93532783 11.98709022 -7.59947759 9.54803317 -7.47265625 6.16796875 C-7.125 4 -7.125 4 -5.5 1.375 C-3.125 0 -3.125 0 0 0 Z " fill="#823737" transform="translate(222.125,55)"/>
<path d="M0 0 C0 1.32 0 2.64 0 4 C-2.26807204 5.0067004 -4.53907754 6.00551766 -6.8125 7 C-7.77639648 7.42925781 -7.77639648 7.42925781 -8.75976562 7.8671875 C-11.67756469 9.13711041 -13.78265714 10 -17 10 C-17 10.66 -17 11.32 -17 12 C-16.30519531 12.11214844 -15.61039062 12.22429687 -14.89453125 12.33984375 C-11.62967036 13.08446115 -8.76399795 14.24400088 -5.6875 15.5625 C-4.08455078 16.24505859 -4.08455078 16.24505859 -2.44921875 16.94140625 C-1.64097656 17.29074219 -0.83273438 17.64007813 0 18 C0 19.32 0 20.64 0 22 C-7.91909556 19.54234965 -15.41985296 16.33181427 -23 13 C-23 11.68 -23 10.36 -23 9 C-19.54418685 7.49414477 -16.08495247 5.99631711 -12.625 4.5 C-11.64015625 4.07074219 -10.6553125 3.64148438 -9.640625 3.19921875 C-8.69960937 2.79316406 -7.75859375 2.38710937 -6.7890625 1.96875 C-5.91975098 1.59169922 -5.05043945 1.21464844 -4.15478516 0.82617188 C-2 0 -2 0 0 0 Z " fill="#F2E6E6" transform="translate(137,70)"/>
<path d="M0 0 C7.91909556 2.45765035 15.41985296 5.66818573 23 9 C23 10.32 23 11.64 23 13 C19.54418685 14.50585523 16.08495247 16.00368289 12.625 17.5 C11.64015625 17.92925781 10.6553125 18.35851562 9.640625 18.80078125 C8.22910156 19.40986328 8.22910156 19.40986328 6.7890625 20.03125 C5.91975098 20.40830078 5.05043945 20.78535156 4.15478516 21.17382812 C2 22 2 22 0 22 C0 20.68 0 19.36 0 18 C2.2898234 16.9955866 4.5816599 15.99632388 6.875 15 C7.52597656 14.71382812 8.17695313 14.42765625 8.84765625 14.1328125 C13.7734375 12 13.7734375 12 16 12 C16 11.34 16 10.68 16 10 C15.43152344 9.81824219 14.86304688 9.63648438 14.27734375 9.44921875 C9.39298997 7.85915366 4.68970973 6.09540222 0 4 C0 2.68 0 1.36 0 0 Z " fill="#F2E9E9" transform="translate(463,23)"/>
<path d="M0 0 C1.98 0 3.96 0 6 0 C6.35030608 3.39926645 6.49118251 6.60977288 6 10 C2.22861302 13.87063401 -2.48372239 14.82347413 -7.55859375 16.22265625 C-10.38913701 17.12390122 -12.64186364 18.40598292 -15.15234375 19.9609375 C-18.1769637 21.66188657 -21.41247668 22.81173457 -24.64453125 24.05859375 C-27.1842133 25.03568499 -27.1842133 25.03568499 -30.25 26.625 C-33.11180541 28.0559027 -35.96804356 28.98934785 -39 30 C-39.99 30.53625 -40.98 31.0725 -42 31.625 C-45.273095 33.12516854 -47.44439305 33.25397192 -51 33 C-51 32.67 -51 32.34 -51 32 C-49.35 32 -47.7 32 -46 32 C-46 31.34 -46 30.68 -46 30 C-39.375 27.125 -39.375 27.125 -36 26 C-36 25.34 -36 24.68 -36 24 C-32.17679443 22.57741188 -29.08718695 21.75957724 -25 22 C-25 21.34 -25 20.68 -25 20 C-19.52929686 17.06450076 -14.0085092 15.44204221 -8 14 C-8 13.34 -8 12.68 -8 12 C-6.35 12 -4.7 12 -3 12 C-3 11.34 -3 10.68 -3 10 C-0.69 9.34 1.62 8.68 4 8 C4.33425735 5.62625139 4.33425735 5.62625139 4 3 C2.0995533 1.15684329 2.0995533 1.15684329 0 0 Z " fill="#360202" transform="translate(461,0)"/>
<path d="M0 0 C1.32 0 2.64 0 4 0 C4 3.63 4 7.26 4 11 C7.3 11 10.6 11 14 11 C14 11.99 14 12.98 14 14 C10.7 14 7.4 14 4 14 C4 17.63 4 21.26 4 25 C2.68 25 1.36 25 0 25 C0 21.37 0 17.74 0 14 C-3.3 14 -6.6 14 -10 14 C-10 13.01 -10 12.02 -10 11 C-6.7 11 -3.4 11 0 11 C0 7.37 0 3.74 0 0 Z " fill="#F6F0F0" transform="translate(378,37)"/>
<path d="M0 0 C1.65 0 3.3 0 5 0 C5 10.23 5 20.46 5 31 C3.35 31 1.7 31 0 31 C0 20.77 0 10.54 0 0 Z " fill="#E7DBDB" transform="translate(201,44)"/>
<path d="M0 0 C6.59010821 9.88516231 5.07543372 26.64213195 3 38 C2.3974699 40.02024799 1.75679435 42.03233469 1 44 C0.67 44 0.34 44 0 44 C-0.12568575 36.58454047 -0.12568575 36.58454047 0.49780273 33.68481445 C1.00156662 30.99162465 1.12929034 28.54140234 1.1328125 25.8046875 C1.13410156 24.84175781 1.13539062 23.87882812 1.13671875 22.88671875 C1.13285156 21.89285156 1.12898438 20.89898437 1.125 19.875 C1.12886719 18.87339844 1.13273437 17.87179688 1.13671875 16.83984375 C1.13542969 15.87949219 1.13414063 14.91914062 1.1328125 13.9296875 C1.13168457 13.05554199 1.13055664 12.18139648 1.12939453 11.28076172 C1.09054706 8.83499984 1.09054706 8.83499984 0 6 C-3.3 6 -6.6 6 -10 6 C-9.67 4.35 -9.34 2.7 -9 1 C-4.545 0.505 -4.545 0.505 0 0 Z " fill="#160303" transform="translate(51,56)"/>
<path d="M0 0 C2 0 2 0 3.515625 1.50390625 C4.08796875 2.18324219 4.6603125 2.86257812 5.25 3.5625 C5.86488281 4.28566406 6.47976563 5.00882813 7.11328125 5.75390625 C7.73589844 6.49511719 8.35851562 7.23632812 9 8 C10.14473463 9.33427675 11.29046728 10.66769833 12.4375 12 C13.283125 12.99 14.12875 13.98 15 15 C13.35 16.32 11.7 17.64 10 19 C8.66070495 17.71451591 7.32871357 16.42141845 6 15.125 C5.2575 14.40570313 4.515 13.68640625 3.75 12.9453125 C2 11 2 11 2 9 C1.34 9 0.68 9 0 9 C-1.36623674 6.26752652 -1.128426 4.01801098 -1 1 C-0.67 0.67 -0.34 0.34 0 0 Z " fill="#0A0404" transform="translate(495,56)"/>
<path d="M0 0 C5.61 0 11.22 0 17 0 C17 1.98 17 3.96 17 6 C15.35962605 7.64037395 13.50523159 7.24911331 11.25 7.3125 C7.56190012 7.28084249 6.19606116 7.1160362 2.9375 5.1875 C1 3 1 3 0 0 Z " fill="#080404" transform="translate(661,30)"/>
<path d="M0 0 C0.33 0 0.66 0 1 0 C1.33 8.25 1.66 16.5 2 25 C9.26 25.33 16.52 25.66 24 26 C24 28.64 24 31.28 24 34 C17.4 34.33 10.8 34.66 4 35 C3.67 36.32 3.34 37.64 3 39 C1.515 39.495 1.515 39.495 0 40 C-0.04254356 38.00045254 -0.04080783 35.99958364 0 34 C1 33 1 33 3.13305664 32.88647461 C4.04949951 32.89171143 4.96594238 32.89694824 5.91015625 32.90234375 C6.89951172 32.90556641 7.88886719 32.90878906 8.90820312 32.91210938 C9.94912109 32.92048828 10.99003906 32.92886719 12.0625 32.9375 C13.62967773 32.94426758 13.62967773 32.94426758 15.22851562 32.95117188 C17.8190666 32.96300087 20.40950559 32.97948311 23 33 C23 31.02 23 29.04 23 27 C15.41 27 7.82 27 0 27 C0 18.09 0 9.18 0 0 Z " fill="#2D0707" transform="translate(216,13)"/>
<path d="M0 0 C13.24889231 -1.21363899 13.24889231 -1.21363899 17.3671875 1.640625 C19.00929917 3.76201328 20.17891668 5.44344513 21 8 C20.625 10.265625 20.625 10.265625 20 12 C19.63390625 11.28972656 19.2678125 10.57945313 18.890625 9.84765625 C15.57970218 4.05538118 15.57970218 4.05538118 9.86328125 1.11328125 C6.87423528 0.89750397 3.99094151 0.83301804 1 1 C1 1.66 1 2.32 1 3 C1.7425 3.185625 2.485 3.37125 3.25 3.5625 C6.99277952 5.51895293 8.17919846 8.3729053 10 12 C10.74256822 13.31671891 11.49228245 14.62944023 12.25 15.9375 C12.8275 16.948125 13.405 17.95875 14 19 C14.66 19 15.32 19 16 19 C15.67 19.99 15.34 20.98 15 22 C14.01 22 13.02 22 12 22 C11.608125 20.783125 11.21625 19.56625 10.8125 18.3125 C9.28104818 14.22143857 7.26107762 11.9504988 4 9 C2.14615144 7.06726427 0.60199261 5.16740177 -1 3 C-0.67 2.01 -0.34 1.02 0 0 Z " fill="#5C1E1E" transform="translate(25,29)"/>
<path d="M0 0 C9.57 0 19.14 0 29 0 C30.36623674 2.73247348 30.128426 4.98198902 30 8 C29 9 29 9 25.12280273 9.11352539 C23.39305833 9.11336621 21.66330919 9.10766849 19.93359375 9.09765625 C19.02497086 9.0962413 18.11634796 9.09482635 17.18019104 9.09336853 C14.26592779 9.08775193 11.35174019 9.07519665 8.4375 9.0625 C6.46679798 9.05748714 4.49609476 9.05292386 2.52539062 9.04882812 C-2.31643559 9.03777711 -7.15820495 9.02050138 -12 9 C-12 8.67 -12 8.34 -12 8 C0.87 8 13.74 8 27 8 C27 5.69 27 3.38 27 1 C18.09 1 9.18 1 0 1 C0 0.67 0 0.34 0 0 Z " fill="#4E0808" transform="translate(521,55)"/>
<path d="M0 0 C0.66 0 1.32 0 2 0 C2.33 4.62 2.66 9.24 3 14 C3.66 14 4.32 14 5 14 C5.66 18.29 6.32 22.58 7 27 C4.69 27 2.38 27 0 27 C0 18.09 0 9.18 0 0 Z " fill="#361010" transform="translate(206,46)"/>
<path d="M0 0 C6.75 -0.125 6.75 -0.125 9 1 C9.3125 3.6875 9.3125 3.6875 9 7 C6.5 9.875 6.5 9.875 4 12 C6.97 12.495 6.97 12.495 10 13 C10 13.66 10 14.32 10 15 C6.37 15 2.74 15 -1 15 C0 11 0 11 2.5625 9 C3.366875 8.34 4.17125 7.68 5 7 C5 5.68 5 4.36 5 3 C3.35 3 1.7 3 0 3 C0 2.01 0 1.02 0 0 Z " fill="#E2CBCB" transform="translate(35,5)"/>
<path d="M0 0 C0.33 0 0.66 0 1 0 C1 1.98 1 3.96 1 6 C1.66 6 2.32 6 3 6 C3.22171552 8.60365928 3.42784859 11.20696493 3.625 13.8125 C3.68945312 14.55048828 3.75390625 15.28847656 3.8203125 16.04882812 C4.2265625 21.66015625 4.2265625 21.66015625 2 25 C2.06443283 26.9974176 2.12897966 28.99483209 2.1953125 30.9921875 C1.8891475 34.13956374 0.16933566 35.83066434 -2 38 C-1.855625 37.195625 -1.71125 36.39125 -1.5625 35.5625 C-0.25889807 27.30635447 0.13106431 19.2970716 0.0625 10.9375 C0.05798828 9.88111328 0.05347656 8.82472656 0.04882812 7.73632812 C0.03715918 5.15749092 0.02078885 2.57877706 0 0 Z " fill="#4D0707" transform="translate(54,62)"/>
<path d="M0 0 C0 2.31 0 4.62 0 7 C-2.75924185 8.80411967 -3.88972103 9.0127245 -7.25 8.625 C-8.61125 8.315625 -8.61125 8.315625 -10 8 C-10 6.02 -10 4.04 -10 2 C-6.38026598 0.68373308 -3.90432869 0 0 0 Z " fill="#953939" transform="translate(293,63)"/>
<path d="M0 0 C7.92 0 15.84 0 24 0 C24 0.99 24 1.98 24 3 C16.08 3 8.16 3 0 3 C0 2.01 0 1.02 0 0 Z " fill="#FBF9F9" transform="translate(563,52)"/>
<path d="M0 0 C7.92 0 15.84 0 24 0 C24 0.99 24 1.98 24 3 C16.08 3 8.16 3 0 3 C0 2.01 0 1.02 0 0 Z " fill="#FBF9F9" transform="translate(563,44)"/>
<path d="M0 0 C7.92 0 15.84 0 24 0 C24 0.99 24 1.98 24 3 C16.08 3 8.16 3 0 3 C0 2.01 0 1.02 0 0 Z " fill="#FEFDFD" transform="translate(319,16)"/>
<path d="M0 0 C2.5 0.25 2.5 0.25 4.5 2.25 C4.75 4.75 4.75 4.75 4.5 7.25 C2.5 9.25 2.5 9.25 0 9.5 C-2.5 9.25 -2.5 9.25 -4.5 7.25 C-4.75 4.75 -4.75 4.75 -4.5 2.25 C-2.5 0.25 -2.5 0.25 0 0 Z " fill="#F6EEEE" transform="translate(161.5,35.75)"/>
<path d="M0 0 C1.32 0.33 2.64 0.66 4 1 C4 1.66 4 2.32 4 3 C4.66 3 5.32 3 6 3 C6.33 2.01 6.66 1.02 7 0 C7.99 0.33 8.98 0.66 10 1 C9.01 2.485 9.01 2.485 8 4 C8.25723969 6.02919843 8.25723969 6.02919843 9 8 C9.33 8.99 9.66 9.98 10 11 C8.68 10.67 7.36 10.34 6 10 C6 9.34 6 8.68 6 8 C5.566875 8.495 5.13375 8.99 4.6875 9.5 C3 11 3 11 0 11 C0.350625 10.4225 0.70125 9.845 1.0625 9.25 C2.1724449 6.58613224 1.94589945 5.66571663 1 3 C0.67 2.01 0.34 1.02 0 0 Z " fill="#E8D5D5" transform="translate(724,52)"/>
<path d="M0 0 C4.05572321 -0.34435386 7.95554448 -0.52637004 12 0 C14.8125 2.75 14.8125 2.75 16 6 C15.75 8.375 15.75 8.375 15 10 C14.01 7.69 13.02 5.38 12 3 C8.7 2.67 5.4 2.34 2 2 C2.515625 3.423125 3.03125 4.84625 3.5625 6.3125 C5.125 10.625 5.125 10.625 4 14 C0.78331852 10.78331852 0.02192892 7.28440791 -0.0546875 2.796875 C-0.03664063 1.87390625 -0.01859375 0.9509375 0 0 Z " fill="#4E0E0E" transform="translate(316,50)"/>
<path d="M0 0 C3.80858597 1.76827206 6.05090508 3.98388019 9 7 C11.13080362 8.73400593 13.2634951 10.4615932 15.42578125 12.15625 C17 14 17 14 17.35546875 16.57421875 C16.88161726 19.80786463 15.44540249 20.93669165 13 23 C12.34 22.67 11.68 22.34 11 22 C11.515625 21.4225 12.03125 20.845 12.5625 20.25 C14.22507734 18.16437548 14.22507734 18.16437548 13.7890625 16.03125 C12.8471352 13.60648666 11.8780629 12.80031211 9.8125 11.25 C5.78655347 8.00595217 2.93090415 4.22994958 0 0 Z " fill="#450808" transform="translate(522,77)"/>
<path d="M0 0 C2 2 2 2 2 5 C-1.96 5 -5.92 5 -10 5 C-7.36847659 -1.57880853 -6.48639237 -1.48646492 0 0 Z " fill="#872B2B" transform="translate(712,65)"/>
<path d="M0 0 C1.65 0 3.3 0 5 0 C4.34 0.66 3.68 1.32 3 2 C2.75787127 3.98128508 2.75787127 3.98128508 2.875 6.125 C2.936875 8.043125 2.936875 8.043125 3 10 C3.66 10 4.32 10 5 10 C6.69140625 11.6796875 6.69140625 11.6796875 8.5625 13.875 C9.18253906 14.59429687 9.80257813 15.31359375 10.44140625 16.0546875 C12 18 12 18 13 20 C8.75153925 19.52794881 6.73180712 17.11122478 4 14 C4 13.34 4 12.68 4 12 C3.01 11.67 2.02 11.34 1 11 C-0.20272819 8.59454362 -0.10071472 7.05003047 -0.0625 4.375 C-0.05347656 3.55773438 -0.04445313 2.74046875 -0.03515625 1.8984375 C-0.02355469 1.27195313 -0.01195312 0.64546875 0 0 Z " fill="#521111" transform="translate(492,55)"/>
<path d="M0 0 C0 4.38968456 -2.12805101 5.76905739 -5 9 C-4.34 10.65 -3.68 12.3 -3 14 C-6.3 14 -9.6 14 -13 14 C-8.88380164 9.08064098 -4.59589638 4.47352044 0 0 Z " fill="#5C2727" transform="translate(516,70)"/>
<path d="M0 0 C0.99 0 1.98 0 3 0 C3.05874776 3.33325754 3.09384467 6.66637938 3.125 10 C3.15013672 11.40185547 3.15013672 11.40185547 3.17578125 12.83203125 C3.21606145 18.59209963 2.65416655 23.4774282 1 29 C0.67 29 0.34 29 0 29 C-0.02687279 27.18757948 -0.04633715 25.37504767 -0.0625 23.5625 C-0.07410156 22.55316406 -0.08570313 21.54382813 -0.09765625 20.50390625 C0 18 0 18 1 17 C1.09983684 15.08548183 1.12967589 13.16711381 1.125 11.25 C1.12757812 10.20328125 1.13015625 9.1565625 1.1328125 8.078125 C1.01155348 5.26776878 0.63784091 2.73360391 0 0 Z " fill="#4D0F0F" transform="translate(42,65)"/>
<path d="M0 0 C0.33 0 0.66 0 1 0 C1.49502521 4.95025214 0.31607873 7.87326374 -1.984375 12.1015625 C-3.11896476 14.12716128 -3.11896476 14.12716128 -4.125 16.9375 C-5 19 -5 19 -7 20 C-6.33333333 16.66666667 -5.66666667 13.33333333 -5 10 C-4.34 10 -3.68 10 -3 10 C-2.86722656 9.36191406 -2.73445313 8.72382812 -2.59765625 8.06640625 C-2.42105469 7.24011719 -2.24445313 6.41382812 -2.0625 5.5625 C-1.88847656 4.73878906 -1.71445312 3.91507812 -1.53515625 3.06640625 C-1 1 -1 1 0 0 Z " fill="#3C0101" transform="translate(360,71)"/>
<path d="M0 0 C1.98 0 3.96 0 6 0 C6.35033875 3.39958347 6.51667499 6.61231654 6 10 C3.3125 12.5 3.3125 12.5 0 14 C-0.886875 14.433125 -1.77375 14.86625 -2.6875 15.3125 C-5 16 -5 16 -8 15 C-5 13 -5 13 -2 13 C-1.67 12.01 -1.34 11.02 -1 10 C1.5625 8.8125 1.5625 8.8125 4 8 C4.33425735 5.62625139 4.33425735 5.62625139 4 3 C2.0995533 1.15684329 2.0995533 1.15684329 0 0 Z " fill="#510505" transform="translate(461,0)"/>
<path d="M0 0 C2.81751803 3.35418813 4.38429826 6.97970927 6 11 C6.36738281 11.84820312 6.73476563 12.69640625 7.11328125 13.5703125 C7.67595703 14.89675781 7.67595703 14.89675781 8.25 16.25 C8.60578125 17.08015625 8.9615625 17.9103125 9.328125 18.765625 C10 21 10 21 9 24 C8.15675328 22.421924 7.32576082 20.8372958 6.5 19.25 C6.0359375 18.36828125 5.571875 17.4865625 5.09375 16.578125 C4 14 4 14 4 10 C3.34 10 2.68 10 2 10 C0.68373308 6.38026598 0 3.90432869 0 0 Z " fill="#3D0404" transform="translate(326,76)"/>
<path d="M0 0 C0.9583374 0.00523682 1.9166748 0.01047363 2.90405273 0.01586914 C4.45576172 0.02070312 4.45576172 0.02070312 6.03881836 0.02563477 C7.12743164 0.03401367 8.21604492 0.04239258 9.33764648 0.05102539 C10.97636719 0.05779297 10.97636719 0.05779297 12.64819336 0.06469727 C15.35723144 0.07652713 18.06616248 0.09300996 20.77514648 0.11352539 C20.77514648 0.44352539 20.77514648 0.77352539 20.77514648 1.11352539 C14.17514648 1.44352539 7.57514648 1.77352539 0.77514648 2.11352539 C0.44514648 3.43352539 0.11514648 4.75352539 -0.22485352 6.11352539 C-1.21485352 6.44352539 -2.20485352 6.77352539 -3.22485352 7.11352539 C-3.26739708 5.11397793 -3.26566134 3.11310903 -3.22485352 1.11352539 C-2.22485352 0.11352539 -2.22485352 0.11352539 0 0 Z " fill="#3F1313" transform="translate(219.224853515625,45.886474609375)"/>
<path d="M0 0 C11.3489009 -1.2123455 11.3489009 -1.2123455 15.234375 1.640625 C16.87611924 3.75143903 18.10660952 5.47640214 19 8 C18.6328125 10.265625 18.6328125 10.265625 18 12 C17.62230469 11.28972656 17.24460937 10.57945313 16.85546875 9.84765625 C13.59959771 4.16454711 13.59959771 4.16454711 8.0859375 1.11328125 C5.35282792 0.89788114 2.73507097 0.83184012 0 1 C0 0.67 0 0.34 0 0 Z " fill="#4E1111" transform="translate(27,29)"/>
<path d="M0 0 C4.97306516 0.49730652 8.63799813 1.55302334 13 4 C13 5.32 13 6.64 13 8 C9.49223216 9.60355101 6.85645121 10.22036864 3 10 C4.1875 8.5 4.1875 8.5 6 7 C8.6875 6.8125 8.6875 6.8125 11 7 C11 6.01 11 5.02 11 4 C10.113125 3.87625 9.22625 3.7525 8.3125 3.625 C5.29612498 3.05587264 2.79673946 2.23385564 0 1 C0 0.67 0 0.34 0 0 Z " fill="#3F0101" transform="translate(437,0)"/>
<path d="M0 0 C4.29 0 8.58 0 13 0 C13 0.99 13 1.98 13 3 C8.71 3 4.42 3 0 3 C0 2.01 0 1.02 0 0 Z " fill="#F9F4F4" transform="translate(95,15)"/>
<path d="M0 0 C0.99 0.33 1.98 0.66 3 1 C0.70295166 3.29704834 -0.58875477 3.56828225 -3.6875 4.375 C-7.03596412 5.31449713 -9.81221636 6.32756092 -12.75 8.1875 C-16.22082257 10.12315105 -18.10014799 10.38047337 -22 10 C-22 9.67 -22 9.34 -22 9 C-20.35 9 -18.7 9 -17 9 C-17 8.34 -17 7.68 -17 7 C-12.34132394 4.91846389 -7.68728806 3.18277217 -2.8203125 1.6484375 C-1.00569531 1.14863649 -1.00569531 1.14863649 0 0 Z " fill="#510303" transform="translate(432,23)"/>
<path d="M0 0 C0.33 0 0.66 0 1 0 C1.02891949 4.29165262 1.04677118 8.58328036 1.0625 12.875 C1.07087891 14.09832031 1.07925781 15.32164063 1.08789062 16.58203125 C1.09111328 17.74863281 1.09433594 18.91523437 1.09765625 20.1171875 C1.10289307 21.19597168 1.10812988 22.27475586 1.11352539 23.38623047 C1 26 1 26 0 28 C-0.66 28 -1.32 28 -2 28 C-1.84660156 27.07058594 -1.69320312 26.14117187 -1.53515625 25.18359375 C-0.81806202 20.16393411 -0.64854502 15.12412066 -0.4375 10.0625 C-0.39431641 9.09248047 -0.35113281 8.12246094 -0.30664062 7.12304688 C-0.20137907 4.74881399 -0.09924293 2.37449079 0 0 Z " fill="#200404" transform="translate(45,65)"/>
<path d="M0 0 C0.66 0 1.32 0 2 0 C2.66 4.29 3.32 8.58 4 13 C2.35 13 0.7 13 -1 13 C-0.67 8.71 -0.34 4.42 0 0 Z " fill="#191414" transform="translate(209,60)"/>
<path d="M0 0 C2.87299765 1.43649883 3.30297023 3.35854307 4.625 6.25 C5.07101562 7.20390625 5.51703125 8.1578125 5.9765625 9.140625 C6.99617173 11.98930421 7.20762094 14.00588745 7 17 C4.30166927 14.64185996 3.11535036 12.38202294 1.8125 9.0625 C1.46832031 8.20785156 1.12414062 7.35320312 0.76953125 6.47265625 C0 4 0 4 0 0 Z " fill="#3F0505" transform="translate(332,60)"/>
<path d="M0 0 C1.65 0 3.3 0 5 0 C5 1.98 5 3.96 5 6 C3.35 6 1.7 6 0 6 C0 4.02 0 2.04 0 0 Z " fill="#FAF7F7" transform="translate(329,24)"/>
<path d="M0 0 C1.65 0 3.3 0 5 0 C5 1.98 5 3.96 5 6 C3.35 6 1.7 6 0 6 C0 4.02 0 2.04 0 0 Z " fill="#FBF7F7" transform="translate(329,5)"/>
<path d="M0 0 C0.99 0.33 1.98 0.66 3 1 C3 4.3 3 7.6 3 11 C2.01 10.34 1.02 9.68 0 9 C-0.29296875 6.8359375 -0.29296875 6.8359375 -0.1875 4.375 C-0.16042969 3.55773438 -0.13335937 2.74046875 -0.10546875 1.8984375 C-0.05326172 0.95871094 -0.05326172 0.95871094 0 0 Z " fill="#603939" transform="translate(215,59)"/>
<path d="M0 0 C0.99 0.33 1.98 0.66 3 1 C2.67 2.98 2.34 4.96 2 7 C3.98 6.67 5.96 6.34 8 6 C7.01 6.33 6.02 6.66 5 7 C5 7.66 5 8.32 5 9 C3.35 9 1.7 9 0 9 C0 6.03 0 3.06 0 0 Z " fill="#220101" transform="translate(410,23)"/>
<path d="M0 0 C-2.25693432 2.25693432 -4.04141517 2.87292007 -7 4 C-7.680625 4.391875 -8.36125 4.78375 -9.0625 5.1875 C-11.47542156 6.19937033 -12.54781638 5.71883137 -15 5 C-2.63803681 -1.3190184 -2.63803681 -1.3190184 0 0 Z " fill="#430000" transform="translate(439,11)"/>
<path d="M0 0 C3.63 0.33 7.26 0.66 11 1 C11 1.66 11 2.32 11 3 C7.37 3 3.74 3 0 3 C0 2.01 0 1.02 0 0 Z " fill="#F7F0F0" transform="translate(34,17)"/>
<path d="M0 0 C1.32 0.66 2.64 1.32 4 2 C4 2.99 4 3.98 4 5 C2.02 5 0.04 5 -2 5 C-1.125 1.125 -1.125 1.125 0 0 Z " fill="#1E1515" transform="translate(655,32)"/>
<path d="M0 0 C-3.85756507 2.15305957 -6.55129785 3.39253254 -11 3 C-11 3.66 -11 4.32 -11 5 C-12.32 4.67 -13.64 4.34 -15 4 C-13.730447 3.35165346 -12.45930294 2.70642185 -11.1875 2.0625 C-10.47980469 1.70285156 -9.77210938 1.34320312 -9.04296875 0.97265625 C-5.54717095 -0.69169108 -3.67208522 -1.13961265 0 0 Z " fill="#200000" transform="translate(428,18)"/>
<path d="M0 0 C0.66 0 1.32 0 2 0 C1.44687265 4.02992782 0.8441938 8.02022924 0 12 C-0.33 12 -0.66 12 -1 12 C-1.02687279 10.18757948 -1.04633715 8.37504767 -1.0625 6.5625 C-1.07410156 5.55316406 -1.08570313 4.54382813 -1.09765625 3.50390625 C-1 1 -1 1 0 0 Z " fill="#4B0707" transform="translate(43,82)"/>
<path d="M0 0 C2.33294775 -0.04241723 4.66702567 -0.04092937 7 0 C8 1 8 1 8.0625 3.5625 C8.041875 4.366875 8.02125 5.17125 8 6 C7.67 4.68 7.34 3.36 7 2 C4.69 2.33 2.38 2.66 0 3 C0 2.01 0 1.02 0 0 Z " fill="#F1E6E6" transform="translate(35,5)"/>
<path d="M0 0 C0.66 0.33 1.32 0.66 2 1 C1.690625 1.5775 1.38125 2.155 1.0625 2.75 C0.07416636 4.84294184 -0.5168613 6.74535275 -1 9 C-1.99 9 -2.98 9 -4 9 C-2.94124926 5.59687262 -1.99097846 2.98646769 0 0 Z " fill="#3D0000" transform="translate(352,91)"/>
<path d="M0 0 C0.99 0.495 0.99 0.495 2 1 C2 1.99 2 2.98 2 4 C3.65 3.67 5.3 3.34 7 3 C6.34 4.32 5.68 5.64 5 7 C3.68 6.67 2.36 6.34 1 6 C0.67 4.02 0.34 2.04 0 0 Z " fill="#1A0000" transform="translate(339,81)"/>
<path d="M0 0 C0.99 0.33 1.98 0.66 3 1 C2.21625 1.7425 1.4325 2.485 0.625 3.25 C-1.56504531 5.54433318 -2.82731386 7.12158858 -4 10 C-4.41176754 6.39703406 -4.1535853 5.21597933 -2 2.1875 C-1.34 1.465625 -0.68 0.74375 0 0 Z " fill="#DFC9C9" transform="translate(239,53)"/>
<path d="M0 0 C-1.24176695 0.70226141 -2.49385599 1.38629109 -3.75 2.0625 C-4.79414063 2.63677734 -4.79414063 2.63677734 -5.859375 3.22265625 C-8.36140628 4.1312406 -9.5332355 3.88336837 -12 3 C-11.34 3 -10.68 3 -10 3 C-10 2.34 -10 1.68 -10 1 C-6.16112237 -0.48320272 -3.93795909 -1.22419163 0 0 Z " fill="#230000" transform="translate(435,23)"/>
<path d="M0 0 C0.66 0 1.32 0 2 0 C1.55090939 1.48199902 1.09043436 2.96055236 0.625 4.4375 C0.36976563 5.26121094 0.11453125 6.08492188 -0.1484375 6.93359375 C-1 9 -1 9 -3 10 C-2.39009109 6.44219804 -1.4216319 3.3171411 0 0 Z " fill="#170000" transform="translate(353,84)"/>
<path d="M0 0 C2.72107452 2.3500189 3.96702492 4.55674975 5 8 C4.67 8.99 4.34 9.98 4 11 C0 4.5 0 4.5 0 0 Z " fill="#4E0E0E" transform="translate(321,65)"/>
<path d="M0 0 C0.33 0 0.66 0 1 0 C1.25 2.25 1.25 2.25 1 5 C-1 7.3125 -1 7.3125 -3 9 C-3.66 8.67 -4.32 8.34 -5 8 C-3.625 6 -3.625 6 -2 4 C-1.34 4 -0.68 4 0 4 C0 2.68 0 1.36 0 0 Z " fill="#510404" transform="translate(538,91)"/>
<path d="M0 0 C1.32 0.33 2.64 0.66 4 1 C3.6875 2.9375 3.6875 2.9375 3 5 C2.01 5.33 1.02 5.66 0 6 C0 4.02 0 2.04 0 0 Z " fill="#541F1F" transform="translate(216,47)"/>
</svg>
