<?xml version="1.0" encoding="UTF-8"?>
<svg version="1.1" xmlns="http://www.w3.org/2000/svg" width="1705" height="267">
<path d="M0 0 C1.19206055 -0.01160156 1.19206055 -0.01160156 2.40820312 -0.0234375 C14.87282519 0.01713084 25.5572076 3.8235999 34.80078125 12.3359375 C37.56715785 15.34153513 39.62642357 18.66639699 41.5625 22.25 C44.59801581 20.25045009 47.58852103 18.23119373 50.53515625 16.1015625 C68.21051894 3.36457548 86.38454913 -2.31559701 108.1328125 0.75390625 C116.94001162 2.72482677 124.61058929 6.33291458 130.5625 13.25 C131.04332031 13.77851562 131.52414063 14.30703125 132.01953125 14.8515625 C145.41763228 30.79360676 143.85197696 53.65359061 143.7578125 73.1484375 C143.75407525 75.43771236 143.75123165 77.72698883 143.74923706 80.01626587 C143.74165668 85.99695369 143.72205716 91.977542 143.6998291 97.95819092 C143.67924918 104.07888443 143.67020954 110.19959425 143.66015625 116.3203125 C143.63880523 128.29692541 143.60366963 140.2734388 143.5625 152.25 C134.9825 152.25 126.4025 152.25 117.5625 152.25 C117.54268066 149.38489746 117.52286133 146.51979492 117.50244141 143.56787109 C117.43525952 134.05639871 117.3576255 124.54503175 117.27497292 115.03368187 C117.2252219 109.27215311 117.17889147 103.51064083 117.140625 97.74902344 C117.10350263 92.17923724 117.05707286 86.60959648 117.00443649 81.03993607 C116.98603468 78.92472534 116.9708755 76.80948361 116.95915604 74.69422531 C117.78082338 51.82997903 117.78082338 51.82997903 109.3125 31.5 C101.94169382 25.4693404 92.78901715 24.35793343 83.5625 25.25 C74.10227359 27.24289034 65.79301153 31.2683746 57.5625 36.25 C56.81942628 36.62177179 56.07635256 36.99354359 55.31076145 37.37658119 C50.48901312 40.00640032 50.48901312 40.00640032 47.74508476 44.55308151 C47.45296646 47.41439825 47.4483926 50.1538501 47.54077148 53.02880859 C47.53945724 54.10257751 47.53814301 55.17634644 47.53678894 56.28265381 C47.54304691 59.82292862 47.6129838 63.35891024 47.68359375 66.8984375 C47.70038437 69.35606558 47.71319339 71.81372383 47.72218323 74.27139282 C47.75651055 80.73304748 47.84488838 87.19287485 47.94451904 93.65380859 C48.03666545 100.24942301 48.07770818 106.84533338 48.12304688 113.44140625 C48.21950679 126.37853529 48.37778778 139.31382967 48.5625 152.25 C39.9825 152.25 31.4025 152.25 22.5625 152.25 C22.54268066 149.38489746 22.52286133 146.51979492 22.50244141 143.56787109 C22.43525952 134.05639871 22.3576255 124.54503175 22.27497292 115.03368187 C22.2252219 109.27215311 22.17889147 103.51064083 22.140625 97.74902344 C22.10350263 92.17923724 22.05707286 86.60959648 22.00443649 81.03993607 C21.98603468 78.92472534 21.9708755 76.80948361 21.95915604 74.69422531 C22.81554804 51.78754022 22.81554804 51.78754022 14.25 31.5 C6.74362391 25.21559211 -1.97182665 24.50051853 -11.4375 25.25 C-23.06414037 27.26164745 -33.12438896 32.93825679 -42.4765625 39.9296875 C-44.4375 41.25 -44.4375 41.25 -46.4375 41.25 C-46.4375 77.88 -46.4375 114.51 -46.4375 152.25 C-55.0175 152.25 -63.5975 152.25 -72.4375 152.25 C-72.4375 103.41 -72.4375 54.57 -72.4375 4.25 C-63.8575 4.25 -55.2775 4.25 -46.4375 4.25 C-45.9425 11.18 -45.9425 11.18 -45.4375 18.25 C-43.601875 16.909375 -41.76625 15.56875 -39.875 14.1875 C-27.75025222 5.62646608 -14.99017654 -0.14518331 0 0 Z " fill="#FFFFFF" transform="translate(74.4375,56.75)"/>
<path d="M0 0 C0.5710144 -1.2223938 0.5710144 -1.2223938 1.15356445 -2.46948242 C3 -5 3 -5 5.54370117 -5.56762695 C6.53345947 -5.54144287 7.52321777 -5.51525879 8.54296875 -5.48828125 C9.61611328 -5.47216797 10.68925781 -5.45605469 11.79492188 -5.43945312 C12.91447266 -5.39755859 14.03402344 -5.35566406 15.1875 -5.3125 C16.31865234 -5.28994141 17.44980469 -5.26738281 18.61523438 -5.24414062 C21.41147976 -5.18514811 24.20508097 -5.1028824 27 -5 C27.04689502 12.84700716 27.08207408 30.69399814 27.10362434 48.54105377 C27.11390019 56.82931081 27.12788918 65.11752938 27.15087891 73.40576172 C27.17092662 80.63684254 27.1837432 87.86789547 27.18817699 95.09900331 C27.19076527 98.92139931 27.1967701 102.74371559 27.21146011 106.56608582 C27.42038705 163.2020469 27.42038705 163.2020469 9.6875 181.9375 C-6.78630327 197.15695277 -28.83022449 199.81499448 -50.35791016 199.14501953 C-55.22315291 198.87797516 -60.04363652 198.30744151 -64.875 197.6875 C-65.80078857 197.56987305 -66.72657715 197.45224609 -67.68041992 197.33105469 C-74.68194886 196.35863738 -81.05220929 194.73694768 -88 193 C-88 184.09 -88 175.18 -88 166 C-84.37 166.99 -80.74 167.98 -77 169 C-56.93481921 174.0601695 -33.31672939 179.80305977 -14 169 C-6.53269166 164.32558257 -2.96218639 157.18657604 -0.87109375 148.8046875 C0.17567727 143.82437556 0.22727771 139.00811416 0.125 133.9375 C0.11597656 133.07189453 0.10695313 132.20628906 0.09765625 131.31445312 C0.07439723 129.20951221 0.03854008 127.10471658 0 125 C-0.88300781 125.59167969 -1.76601562 126.18335938 -2.67578125 126.79296875 C-20.61703508 138.67421095 -37.38737314 143.93698615 -59.1875 139.875 C-73.48323115 136.4059456 -84.37726834 128.90113255 -92.44140625 116.609375 C-104.93687089 95.68964973 -106.80009042 68.52790435 -102 45 C-97.57874233 27.53581136 -88.56663115 10.84151757 -73 1 C-49.41589648 -12.57358476 -24.14739446 -12.39459284 0 0 Z M-64 25 C-64 25.66 -64 26.32 -64 27 C-64.66 27 -65.32 27 -66 27 C-78.15576028 42.69829614 -78.524627 63.44057253 -76.78173828 82.37060547 C-75.47953565 91.89339134 -71.76857467 103.72469826 -64 110 C-58.00465924 113.63483569 -52.10825553 116.74613373 -45 117 C-44.154375 117.06058594 -43.30875 117.12117188 -42.4375 117.18359375 C-27.71479918 117.82966972 -15.30241954 112.44258176 -3 105 C-2.28450989 104.62425339 -1.56901978 104.24850677 -0.83184814 103.8613739 C1.4815979 101.51063969 1.47154303 99.7691445 1.49768066 96.54983521 C1.48329956 95.81256195 1.46891846 95.0752887 1.45410156 94.31567383 C1.45468567 93.5349501 1.45526978 92.75422638 1.45587158 91.94984436 C1.45308411 89.36845484 1.42196213 86.7882191 1.390625 84.20703125 C1.38316494 82.4177056 1.3774709 80.62837178 1.37347412 78.83903503 C1.35819924 74.12880915 1.31890162 69.41907641 1.2746582 64.70904541 C1.23374536 59.90310335 1.21547164 55.09708163 1.1953125 50.29101562 C1.15240904 40.86046038 1.0841354 31.43027119 1 22 C-1.03516354 21.20112068 -3.07194432 20.40636071 -5.109375 19.61328125 C-6.24342773 19.17024658 -7.37748047 18.72721191 -8.54589844 18.27075195 C-27.35636218 11.35044776 -48.31711621 10.91316191 -64 25 Z " fill="#FFFFFF" transform="translate(1676,66)"/>
<path d="M0 0 C9.38305659 8.68282848 13.15937101 20.22243922 13.94417953 32.7983017 C14.20063525 40.25718121 14.12569849 47.71788655 14.07421875 55.1796875 C14.06861357 57.58106215 14.06434784 59.98244026 14.06135559 62.38381958 C14.04997945 68.66047882 14.02057539 74.93692506 13.98724365 81.21350098 C13.95638585 87.63579427 13.94281687 94.05812246 13.92773438 100.48046875 C13.89569801 113.04958712 13.84299005 125.61849241 13.78125 138.1875 C5.20125 138.1875 -3.37875 138.1875 -12.21875 138.1875 C-12.21875 133.5675 -12.21875 128.9475 -12.21875 124.1875 C-13.10175781 124.77917969 -13.98476563 125.37085938 -14.89453125 125.98046875 C-33.79577565 138.49129242 -52.88765367 144.74188899 -75.70703125 141.7265625 C-82.70590031 140.1833618 -88.38836756 137.31142904 -94.21875 133.1875 C-95.17394531 132.52621094 -95.17394531 132.52621094 -96.1484375 131.8515625 C-105.11387133 124.95814004 -110.24336241 114.1164195 -112.21875 103.1875 C-113.62978152 89.75336843 -112.19532442 76.39789284 -103.953125 65.23828125 C-86.5164336 44.62057183 -57.96812357 43.06322954 -32.890625 40.78125 C-25.99333767 40.23432854 -19.13600363 40.0604484 -12.21875 40.1875 C-12.4751582 37.78932921 -12.7482984 35.39506272 -13.03125 33 C-13.10150391 32.32646484 -13.17175781 31.65292969 -13.24414062 30.95898438 C-13.76921175 26.65340112 -14.82457301 23.7754858 -17.21875 20.1875 C-17.21875 19.5275 -17.21875 18.8675 -17.21875 18.1875 C-17.79753906 17.89875 -18.37632812 17.61 -18.97265625 17.3125 C-20.36182204 16.61670913 -21.74585092 15.91042025 -23.12109375 15.1875 C-43.24320573 5.30024344 -68.43894978 10.59010326 -88.77148438 17.20556641 C-89.95194336 17.58914307 -89.95194336 17.58914307 -91.15625 17.98046875 C-91.84589844 18.2127417 -92.53554688 18.44501465 -93.24609375 18.68432617 C-95.21875 19.1875 -95.21875 19.1875 -99.21875 19.1875 C-99.21875 10.6075 -99.21875 2.0275 -99.21875 -6.8125 C-85.1691437 -10.32490157 -85.1691437 -10.32490157 -78.21875 -11.4375 C-77.44893799 -11.56229736 -76.67912598 -11.68709473 -75.88598633 -11.81567383 C-51.10859192 -15.71944104 -20.47625475 -16.72708135 0 0 Z M-80.93359375 76.87890625 C-85.46309142 82.53749609 -86.52885338 89.15781486 -86.09375 96.25 C-85.08420173 103.64952992 -82.19873495 109.33502211 -76.234375 113.93359375 C-66.23873117 120.15181404 -52.19956711 119.53209378 -41.03125 117.125 C-34.7710364 115.30197076 -28.68184091 112.55178206 -23.07836914 109.20898438 C-21.21875 108.1875 -21.21875 108.1875 -18.81030273 107.35351562 C-15.68678506 105.97962254 -14.22548829 104.98400618 -12.21875 102.1875 C-10.6540286 95.41885922 -11.38040078 88.1942729 -11.65625 81.3125 C-11.70141648 79.36467516 -11.74247731 77.4167505 -11.77929688 75.46875 C-11.87826382 70.70586542 -12.03342052 65.94777471 -12.21875 61.1875 C-34.01902362 60.73599278 -64.34156927 60.51365203 -80.93359375 76.87890625 Z " fill="#FFFFFF" transform="translate(366.21875,70.8125)"/>
<path d="M0 0 C8.58 0 17.16 0 26 0 C26.33 23.76 26.66 47.52 27 72 C34.425 67.05 34.425 67.05 42 62 C52.8915675 56.83112051 62.26476874 53.60325879 74.3125 53.6875 C75.13919189 53.69168945 75.96588379 53.69587891 76.81762695 53.70019531 C89.99559582 53.94187497 101.12266171 57.57414018 110.82421875 66.60546875 C121.87957491 78.77231494 124.17172765 93.8272583 124.11352539 109.61694336 C124.11367142 110.6615976 124.11381744 111.70625183 124.1139679 112.78256226 C124.11327401 116.21834424 124.10550616 119.65407129 124.09765625 123.08984375 C124.09579021 125.47880524 124.09436718 127.86776712 124.09336853 130.25672913 C124.089558 136.53175928 124.07974023 142.80676613 124.06866455 149.08178711 C124.05841893 155.49006841 124.05386416 161.89835349 124.04882812 168.30664062 C124.03811663 180.87110561 124.0205317 193.43554722 124 206 C115.42 206 106.84 206 98 206 C97.98541748 203.04401855 97.97083496 200.08803711 97.95581055 197.04248047 C97.90527687 187.23162659 97.83864946 177.4209283 97.76428509 167.61022758 C97.71972352 161.66708632 97.68043657 155.72401138 97.65356445 149.78076172 C97.6273891 144.03586266 97.58688756 138.29122077 97.53681374 132.54648209 C97.52024075 130.36429184 97.50866733 128.18205722 97.50238609 125.99981308 C98.08053962 103.73259288 98.08053962 103.73259288 88.61328125 84.45703125 C82.75727746 79.1681949 73.25809645 78.66982976 65.7578125 78.79296875 C55.28510718 79.57916334 45.96376732 83.71245653 37 89 C36.17579119 89.44692231 35.35158237 89.89384462 34.50239754 90.35431004 C29.25450629 93.42739061 29.25450629 93.42739061 26.07574081 98.394804 C25.72922455 101.26883925 25.69622448 103.99831678 25.77294922 106.89233398 C25.76173538 107.96624893 25.75052155 109.04016388 25.7389679 110.1466217 C25.71373316 113.68141064 25.7588006 117.21157297 25.8046875 120.74609375 C25.80089918 123.20232681 25.79270983 125.6585567 25.78030396 128.11476135 C25.75950999 134.5679712 25.79840647 141.01948818 25.84979248 147.47247314 C25.89168356 154.06174736 25.87704775 160.65087032 25.8671875 167.24023438 C25.85617531 180.16079207 25.91345423 193.07972705 26 206 C17.42 206 8.84 206 0 206 C0 138.02 0 70.04 0 0 Z " fill="#FFFFFF" transform="translate(533,3)"/>
<path d="M0 0 C16.40386336 13.30463146 24.92579086 31.38411425 27.90185547 52.04150391 C28.18404384 54.9716243 28.34618429 57.87292244 28.43701172 60.81494141 C28.47697266 61.82685547 28.51693359 62.83876953 28.55810547 63.88134766 C29.03393531 86.69319014 23.7694962 109.68150545 7.7644043 126.70288086 C-5.39046144 139.96029258 -22.34320466 144.93072221 -40.56298828 145.06494141 C-57.12966635 144.92594193 -72.00687449 141.23817275 -84.56298828 129.81494141 C-85.31064453 129.17041016 -86.05830078 128.52587891 -86.82861328 127.86181641 C-100.84103655 114.99326443 -107.61886081 95.59573868 -108.73583984 76.92578125 C-109.67647485 51.84086377 -106.47955705 27.9356665 -89.75048828 8.00244141 C-68.13326556 -14.98664352 -25.54923818 -19.37144675 0 0 Z M-70.81298828 23.93994141 C-77.28976938 31.61660426 -80.20257309 40.9949329 -81.56298828 50.81494141 C-81.68544922 51.58322266 -81.80791016 52.35150391 -81.93408203 53.14306641 C-84.27219834 71.50160926 -82.67435695 93.44134041 -71.56298828 108.81494141 C-63.5840131 117.57849114 -54.47270093 122.11925151 -42.71142578 123.03759766 C-30.23607451 123.40831223 -20.86386394 120.29734001 -11.56298828 111.81494141 C-0.61909811 99.36713398 1.83221504 83.03140885 1.74951172 67.06494141 C1.74387207 65.92331543 1.73823242 64.78168945 1.73242188 63.60546875 C1.50266867 47.58416366 -1.29706947 32.54576277 -12.72314453 20.49462891 C-21.76789038 12.23721762 -31.93789671 10.24376213 -43.94580078 10.53369141 C-54.9449371 11.38891583 -63.19699026 16.06722435 -70.81298828 23.93994141 Z " fill="#FFFFFF" transform="translate(1401.56298828125,68.18505859375)"/>
<path d="M0 0 C15.40509171 12.50069532 23.30542762 32.45973286 25.40673828 51.78393555 C26.54422327 76.67727134 24.81792633 100.92304878 8.40673828 120.78393555 C7.96072266 121.41428711 7.51470703 122.04463867 7.05517578 122.6940918 C-0.54714458 132.93157229 -14.90348672 139.57928222 -27.09326172 142.03393555 C-47.10322622 144.88516284 -67.4825527 142.58873749 -84.25195312 130.59790039 C-99.64017099 118.58722893 -107.78076674 100.75364857 -110.59326172 81.78393555 C-112.12169586 68.66381618 -111.75101527 55.7997425 -109.59326172 42.78393555 C-109.42052734 41.72045898 -109.24779297 40.65698242 -109.06982422 39.5612793 C-105.59618364 22.80209133 -95.32236826 6.91160715 -81.59326172 -3.21606445 C-57.11945958 -18.65063748 -22.99921547 -17.5542587 0 0 Z M-73.30419922 21.55737305 C-86.26740287 37.15269927 -85.92940332 60.0684615 -84.40283203 79.16625977 C-83.00639083 91.32099795 -77.97243649 103.86282142 -68.75732422 112.1706543 C-59.16395508 119.32238977 -48.41169447 121.81233508 -36.59326172 120.78393555 C-26.01812301 119.04575667 -17.92861353 114.26113719 -11.15576172 105.9675293 C0.878214 89.15004823 1.03327804 66.06854892 -1.90576172 46.39331055 C-4.26028144 34.032082 -9.21246033 22.59384985 -19.84716797 15.22143555 C-37.36200155 4.09751071 -58.89452843 6.62132159 -73.30419922 21.55737305 Z " fill="#21A887" transform="translate(1144.59326171875,70.216064453125)"/>
<path d="M0 0 C0.82669189 0.00418945 1.65338379 0.00837891 2.50512695 0.01269531 C15.80553502 0.25662046 26.82432193 3.93908229 36.58203125 13.05859375 C47.51744424 24.7649635 49.85784987 40.51353437 49.80102539 55.92944336 C49.80117142 56.9740976 49.80131744 58.01875183 49.8014679 59.09506226 C49.80077401 62.53084424 49.79300616 65.96657129 49.78515625 69.40234375 C49.78329021 71.79130524 49.78186718 74.18026712 49.78086853 76.56922913 C49.777058 82.84425928 49.76724023 89.11926613 49.75616455 95.39428711 C49.74591893 101.80256841 49.74136416 108.21085349 49.73632812 114.61914062 C49.72561663 127.18360561 49.7080317 139.74804722 49.6875 152.3125 C41.1075 152.3125 32.5275 152.3125 23.6875 152.3125 C23.66768066 149.34080811 23.64786133 146.36911621 23.62744141 143.30737305 C23.56036845 133.46060461 23.48273172 123.61393953 23.39997292 113.76729107 C23.35014513 107.8005319 23.30381429 101.83378927 23.265625 95.86694336 C23.22860099 90.10265686 23.18219548 84.33851356 23.12943649 78.57435036 C23.11098317 76.38130024 23.09584223 74.18821953 23.08415604 71.99512291 C23.06713762 68.91025678 23.03806655 65.8257122 23.00634766 62.7409668 C23.00418747 61.84544098 23.00202728 60.94991516 22.99980164 60.0272522 C22.86175203 49.43516772 21.44918116 39.60472153 14.9375 31 C7.24878508 25.23346381 -3.03311914 24.5091408 -12.3125 25.3125 C-22.84117089 27.25036791 -31.41218562 31.57484235 -40.3125 37.3125 C-40.91239022 37.6173038 -41.51228045 37.9221076 -42.13034916 38.23614788 C-45.08337874 39.91567918 -46.97888003 41.17617571 -47.96145439 44.5228672 C-48.21670109 47.3618009 -48.24358155 50.12754049 -48.19897461 52.9777832 C-48.20975037 54.0514061 -48.22052612 55.12502899 -48.23162842 56.23118591 C-48.2590124 59.77591616 -48.23714056 63.31854418 -48.21484375 66.86328125 C-48.22422669 69.32237571 -48.23668314 71.7814602 -48.25209045 74.24052429 C-48.28436073 80.70979051 -48.2748572 87.17834894 -48.25671387 93.64764404 C-48.2455686 100.25020134 -48.27384721 106.85257615 -48.29882812 113.45507812 C-48.34201472 126.40775538 -48.3374364 139.35977454 -48.3125 152.3125 C-56.8925 152.3125 -65.4725 152.3125 -74.3125 152.3125 C-74.3125 103.4725 -74.3125 54.6325 -74.3125 4.3125 C-65.7325 4.3125 -57.1525 4.3125 -48.3125 4.3125 C-47.8175 11.2425 -47.8175 11.2425 -47.3125 18.3125 C-46.39210938 17.66023438 -45.47171875 17.00796875 -44.5234375 16.3359375 C-30.79170132 6.78406136 -17.06117108 -0.11929662 0 0 Z " fill="#21A786" transform="translate(852.3125,56.6875)"/>
<path d="M0 0 C1.16515137 -0.00064453 2.33030273 -0.00128906 3.53076172 -0.00195312 C11.43366871 0.04665975 18.74574771 0.59688415 26.5 2.1875 C26.5 10.1075 26.5 18.0275 26.5 26.1875 C17.79880478 25.0998506 17.79880478 25.0998506 13.625 24.125 C3.64470369 22.09846655 -7.87822156 22.26549973 -16.9375 27.375 C-22.2509801 31.11290829 -24.31701326 35.72259912 -25.6875 41.875 C-26.56472154 47.61067931 -27.01813913 53.4051696 -27.5 59.1875 C-12.65 59.1875 2.2 59.1875 17.5 59.1875 C17.5 66.4475 17.5 73.7075 17.5 81.1875 C2.98 81.1875 -11.54 81.1875 -26.5 81.1875 C-26.5 122.7675 -26.5 164.3475 -26.5 207.1875 C-35.08 207.1875 -43.66 207.1875 -52.5 207.1875 C-52.5 165.6075 -52.5 124.0275 -52.5 81.1875 C-57.78 81.1875 -63.06 81.1875 -68.5 81.1875 C-69.5 80.1875 -69.5 80.1875 -69.61352539 78.14624023 C-69.60828857 77.27169189 -69.60305176 76.39714355 -69.59765625 75.49609375 C-69.59443359 74.55185547 -69.59121094 73.60761719 -69.58789062 72.63476562 C-69.57951172 71.64154297 -69.57113281 70.64832031 -69.5625 69.625 C-69.55798828 68.62791016 -69.55347656 67.63082031 -69.54882812 66.60351562 C-69.53700023 64.13148513 -69.51906415 61.65948528 -69.5 59.1875 C-63.89 59.1875 -58.28 59.1875 -52.5 59.1875 C-52.561875 57.5375 -52.62375 55.8875 -52.6875 54.1875 C-52.61615039 39.02570819 -48.998424 22.99368592 -38.21875 11.640625 C-26.88067409 2.05479719 -14.35496988 -0.0080748 0 0 Z " fill="#21A786" transform="translate(1002.5,1.8125)"/>
<path d="M0 0 C8.58 0 17.16 0 26 0 C26 13.86 26 27.72 26 42 C42.83 42 59.66 42 77 42 C77 49.26 77 56.52 77 64 C60.17 64 43.34 64 26 64 C26.0909397 78.86342504 26.0909397 78.86342504 26.20898438 93.7265625 C26.26318126 99.79424673 26.31429614 105.86184111 26.34643555 111.9296875 C26.37256596 116.82520843 26.41303658 121.72042528 26.46318626 126.61575699 C26.47978936 128.47748132 26.49134426 130.33925818 26.49761391 132.20104599 C26.01295475 147.42779848 26.01295475 147.42779848 31.60346985 161.12667847 C33 163 33 163 33 165 C39.07414448 168.40152091 45.30782303 169.36283718 52.1875 169.3125 C53.29581177 169.31056641 53.29581177 169.31056641 54.42651367 169.30859375 C60.06317079 169.21087296 65.17403982 168.30381862 70.58203125 166.65625 C73 166 73 166 77 166 C77 173.59 77 181.18 77 189 C57.43367494 193.32716804 36.6290744 196.66418776 18.17578125 186.42578125 C9.43267747 180.69645831 4.41160182 171.82758022 1.6875 161.8125 C0.38505443 154.58984727 -0.14810034 147.50789512 -0.11352539 140.17553711 C-0.11367142 139.34516937 -0.11381744 138.51480164 -0.1139679 137.65927124 C-0.11327815 134.948601 -0.10553028 132.2380018 -0.09765625 129.52734375 C-0.09578873 127.63448626 -0.0943664 125.74162829 -0.09336853 123.84877014 C-0.08956966 118.89224895 -0.07976211 113.93575755 -0.06866455 108.97924805 C-0.05839361 103.91129967 -0.05385878 98.84334643 -0.04882812 93.77539062 C-0.03813724 83.8502474 -0.02109276 73.92512619 0 64 C-1.14339844 64.01160156 -2.28679687 64.02320312 -3.46484375 64.03515625 C-4.95572754 64.04453288 -6.44661309 64.05363321 -7.9375 64.0625 C-8.69224609 64.07087891 -9.44699219 64.07925781 -10.22460938 64.08789062 C-12.14994313 64.09652441 -14.07535581 64.05224333 -16 64 C-17 63 -17 63 -17.11352539 60.95874023 C-17.10828857 60.08419189 -17.10305176 59.20964355 -17.09765625 58.30859375 C-17.09443359 57.36435547 -17.09121094 56.42011719 -17.08789062 55.44726562 C-17.07951172 54.45404297 -17.07113281 53.46082031 -17.0625 52.4375 C-17.05798828 51.44041016 -17.05347656 50.44332031 -17.04882812 49.41601562 C-17.03700023 46.94398513 -17.01906415 44.47198528 -17 42 C-11.39 42 -5.78 42 0 42 C0 28.14 0 14.28 0 0 Z " fill="#FFFFFF" transform="translate(427,19)"/>
<path d="M0 0 C8.58 0 17.16 0 26 0 C26 6.6 26 13.2 26 20 C28.330625 18.329375 30.66125 16.65875 33.0625 14.9375 C46.24944969 5.73793551 59.30766125 -0.43752374 75.625 -0.1875 C76.43195313 -0.18685547 77.23890625 -0.18621094 78.0703125 -0.18554688 C90.90823666 -0.09176334 90.90823666 -0.09176334 93 2 C93.08748207 3.92667507 93.10697334 5.85651861 93.09765625 7.78515625 C93.09282227 9.53989258 93.09282227 9.53989258 93.08789062 11.33007812 C93.07532227 13.17762695 93.07532227 13.17762695 93.0625 15.0625 C93.05798828 16.29806641 93.05347656 17.53363281 93.04882812 18.80664062 C93.03699608 21.87114117 93.02051173 24.93554721 93 28 C91.85144531 27.855625 90.70289063 27.71125 89.51953125 27.5625 C70.93678653 25.30365745 55.5305333 24.98990119 38.94294739 34.91325378 C37 36 37 36 34.49784851 36.90571594 C31.02965894 38.53796835 29.30012759 39.89413074 27 43 C24.98685462 50.58995236 25.69882505 58.87450896 25.8046875 66.65234375 C25.80089896 68.99647608 25.79270909 71.34060508 25.78030396 73.68470764 C25.75951454 79.84202969 25.7983986 85.99757681 25.84979248 92.15466309 C25.89169127 98.44232278 25.87704698 104.72982424 25.8671875 111.01757812 C25.85617683 123.34571861 25.91344449 135.67215802 26 148 C17.42 148 8.84 148 0 148 C0 99.16 0 50.32 0 0 Z " fill="#FFFFFF" transform="translate(1467,61)"/>
<path d="M0 0 C8.58 0 17.16 0 26 0 C26 48.84 26 97.68 26 148 C17.42 148 8.84 148 0 148 C0 99.16 0 50.32 0 0 Z " fill="#21A886" transform="translate(704,61)"/>
<path d="M0 0 C10.56 0 21.12 0 32 0 C32 12.54 32 25.08 32 38 C21.44 38 10.88 38 0 38 C0 25.46 0 12.92 0 0 Z " fill="#FFFFFF" transform="translate(1214,171)"/>
<path d="M0 0 C9.57 0 19.14 0 29 0 C29.020625 4.104375 29.04125 8.20875 29.0625 12.4375 C29.071604 13.73357178 29.08070801 15.02964355 29.09008789 16.36499023 C29.09258545 17.37762939 29.09508301 18.39026855 29.09765625 19.43359375 C29.10551147 20.99678345 29.10551147 20.99678345 29.11352539 22.59155273 C29 25 29 25 28 26 C25.92737924 26.08767112 23.85179706 26.10695873 21.77734375 26.09765625 C20.51728516 26.09443359 19.25722656 26.09121094 17.95898438 26.08789062 C16.61848891 26.07953403 15.27799412 26.07106907 13.9375 26.0625 C12.59310058 26.0574866 11.2486994 26.05292342 9.90429688 26.04882812 C6.60284567 26.03699497 3.3014174 26.01905886 0 26 C0 17.42 0 8.84 0 0 Z " fill="#20A787" transform="translate(703,11)"/>
</svg>
